<?xml version="1.0" encoding="UTF-8" standalone="no"?>
<!-- Created with Inkscape (http://www.inkscape.org/) -->
<svg xmlns:rdf="http://www.w3.org/1999/02/22-rdf-syntax-ns#" xmlns="http://www.w3.org/2000/svg" xmlns:cc="http://web.resource.org/cc/" xmlns:dc="http://purl.org/dc/elements/1.1/" xmlns:svg="http://www.w3.org/2000/svg" xmlns:inkscape="http://www.inkscape.org/namespaces/inkscape" xmlns:sodipodi="http://sodipodi.sourceforge.net/DTD/sodipodi-0.dtd" xmlns:ns1="http://sozi.baierouge.fr" xmlns:xlink="http://www.w3.org/1999/xlink" id="svg2851" viewBox="0 0 755 384" version="1.1" inkscape:version="0.91 r13725">
  <path id="path3398" style="fill:#000000" d="m386.43 374.03-2.3623 0.34776-1.1-6.3846-1.1-6.3846 0.41394-4.2156c0.22766-2.3185 0.91637-6.5223 1.5305-9.3417 0.6141-2.8194 1.3307-6.4077 1.5925-7.9741 0.26179-1.5663 1.3349-7.4614 2.3846-13.1 1.0498-5.6388 3.6617-18.025 5.8044-27.524 2.1426-9.4994 3.8957-18.397 3.8957-19.772v-2.5006l-1.7087 0.6557-1.7087 0.6557v-1.5358-1.5358l-4.8414-4.0037c-2.6628-2.202-7.3474-6.3225-10.41-9.1567l-5.5688-5.153 0.75118-1.9575 0.75118-1.9576 2.0622 1.8663 2.0622 1.8663 0.76192-0.76191 0.76192-0.76192v1.7133 1.7133l4.8414 4.4955c2.6628 2.4725 6.4584 5.6316 8.4347 7.0202s3.8285 2.5248 4.1159 2.5248c0.28742 0 1.4025-2.7974 2.4779-6.2164l1.9553-6.2164-1.5146-1.8125c-0.83301-0.99688-2.668-3.0461-4.0777-4.5538s-2.5631-2.9667-2.5631-3.2421c0-0.27548-1.5379-2.1472-3.4175-4.1593s-3.4175-4.1168-3.4175-4.6771c0-0.56027-1.068-2.0866-2.3732-3.3919l-2.3732-2.3732 0.60878-0.60876 0.60876-0.60877 6.3482 6.5543c3.4915 3.6049 7.2154 8.0225 8.2754 9.8169l1.9273 3.2626h1.4414 1.4414l0.53994-2.5631c0.29696-1.4097 1.0245-5.0495 1.6167-8.0884l1.0768-5.5253-6.2282-6.2781-6.2282-6.2781-1.0708-2.8163-1.0708-2.8163 0.64495-1.0436 0.64496-1.0436h-0.98716-0.98714l-1.928-4.3698c-1.0604-2.4034-1.928-5.0031-1.928-5.7771v-1.4073l1.7814 1.7814 1.7814 1.7814-0.65267 1.056-0.65268 1.056 1.5576 1.5576c0.85669 0.85669 2.2711 3.5759 3.1431 6.0427l1.5855 4.4851 4.4469 4.3381 4.4469 4.3381 1.2489-0.41573 1.2489-0.41571 0.14174-2.7291c0.0779-1.501-0.24095-3.7653-0.70868-5.0318-0.46772-1.2665-1.384-4.0969-2.0361-6.2898-0.65214-2.1929-1.5212-5.1404-1.9312-6.5501l-0.74547-2.5631h0.99089 0.99088l1.8781 5.411c1.033 2.976 2.0626 6.6925 2.2882 8.2588l0.41005 2.8479 0.86085-6.8349c0.47348-3.7592 1.556-10.68 2.4056-15.379 0.84958-4.699 1.8318-10.63 2.1828-13.18l0.6381-4.6359-7.4208-5.4488c-4.0814-2.9968-8.0455-6.0435-8.809-6.7704-0.76352-0.72689-2.8485-2.257-4.6333-3.4003l-3.2451-2.0787 0.82689 3.7648c0.45479 2.0706 1.2263 4.5506 1.7146 5.5109 0.48822 0.96036 1.4743 3.943 2.1914 6.6282 0.71702 2.6851 2.3905 7.2987 3.7189 10.252 1.3284 2.9537 3.0888 7.1645 3.912 9.3574 0.82323 2.1929 1.5045 4.1152 1.5139 4.2718 0.009 0.15664-0.81156 0.28479-1.8244 0.28479h-1.8416l0.5856-2.2394 0.58561-2.2394-1.214 0.24585-1.214 0.24584-1.2627-2.2783-1.2627-2.2783-1.6783-0.36616c-0.92309-0.20138-2.191-0.88647-2.8175-1.5224l-1.1392-1.1563 2.8479 0.38328 2.8479 0.38328-0.38458-2.2783c-0.21152-1.2531-1.0644-3.8162-1.8953-5.6958-0.83088-1.8796-2.1174-5.3704-2.8589-7.7572-0.74149-2.3869-1.4544-4.95-1.5843-5.6958-0.12986-0.7458-1.3035-3.7248-2.608-6.62-1.3046-2.8952-3.0234-5.6666-3.8196-6.1587l-1.4477-0.89471 0.64237 2.4564 0.64237 2.4564h-1.0325-1.0325v-2.6493-2.6493l-2.6365-2.4769c-1.4501-1.3623-3.2015-2.4769-3.8921-2.4769-0.69058 0-1.4265-0.41431-1.6353-0.92068-0.20885-0.50637-2.9317-2.662-6.0508-4.7903-3.119-2.1283-6.7074-4.7593-7.9741-5.8468s-3.8409-3.2885-5.7205-4.8912-3.8019-2.9146-4.2718-2.9153c-0.4699-0.00076-1.9223-1.0693-3.2276-2.3746s-2.5574-2.1891-2.7825-1.964c-0.22511 0.2251 2.1396 3.8805 5.255 8.123l5.6642 7.7137-0.77943 1.2611-0.77943 1.2612 1.1944-0.73821 1.1944-0.73819 1.9756 4.834c1.0866 2.6587 2.2075 6.7005 2.4909 8.9818l0.51531 4.1478-1.2391 0.7658-1.2391 0.76578-0.49788-1.4961c-0.27382-0.82288-0.71127-3.3055-0.97208-5.517l-0.47419-4.0209-1.8024-3.3836c-0.99133-1.861-4.2668-6.3986-7.2787-10.084-3.012-3.685-5.9945-7.5296-6.6279-8.5436-0.63337-1.014-5.0355-5.5909-9.7826-10.171-4.747-4.58-11.071-10.062-14.053-12.182l-5.4224-3.8551-6.439 2.8719c-3.5414 1.5795-8.7457 3.6484-11.565 4.5974-2.8194 0.94904-8.2019 3.0131-11.961 4.5868-3.7592 1.5737-8.8057 3.8336-11.214 5.0218-2.4087 1.1883-4.8285 2.1605-5.3772 2.1605-0.54875 0-3.9605 1.3567-7.5816 3.0148l-6.5839 3.0148 2.2783 0.89215 2.2783 0.89215-1.7087 0.14546c-0.93981 0.08-3.7675 0.36055-6.2837 0.62346l-4.575 0.47801-12.782 5.7219c-7.03 3.1471-13.236 5.7219-13.791 5.7219-0.55531 0-3.363 1.041-6.2392 2.3133-2.8763 1.2723-7.4412 4.0015-10.144 6.0648l-4.9148 3.7515-1.113-0.37101-1.113-0.37101-1.6216 3.6634-1.6216 3.6634-0.50495-1.5149-0.50496-1.5148 1.5628-0.98996 1.5628-0.98996-1.7178-0.0174c-0.94478-0.009-4.2768 1.3266-7.4045 2.9692s-6.5838 3.7726-7.6802 4.7332l-1.9935 1.7465v-0.94471-0.94469l-2.5631 2.306c-1.4097 1.2683-5.8951 4.2944-9.9676 6.7246s-10.074 6.3517-13.336 8.7145c-3.2626 2.3628-6.2238 4.2959-6.5805 4.2959-0.35671 0-2.3009 1.4885-4.3205 3.3078-2.0195 1.8193-7.8427 6.3876-12.94 10.152-5.0977 3.7641-9.6204 7.4131-10.05 8.109-0.43005 0.69584-3.4359 3.2417-6.6796 5.6575s-11.193 9.6863-17.666 16.157l-11.768 11.764-1.5999 3.0939-1.5999 3.0939-3.4346 2.4457-3.437 2.47v-1.8429c0-1.0136 0.83184-3.4834 1.8485-5.4885l1.8485-3.6457 8.119-8.5198c4.4655-4.6859 12.22-12.064 17.232-16.395 5.0123-4.3312 12.358-10.75 16.323-14.263 3.9653-3.5135 8.0662-6.857 9.1132-7.43 1.047-0.57298 2.1599-1.3448 2.4732-1.7152 0.31326-0.37037 2.4577-2.0802 4.7654-3.7996s4.7426-3.1262 5.411-3.1262c0.66834 0 1.2152-0.44401 1.2152-0.98669s3.2039-3.0952 7.1197-5.6724c3.9158-2.5771 7.7388-5.2088 8.4956-5.8482 0.75673-0.6394 1.8846-1.1625 2.5065-1.1625 0.62185 0 1.6531-0.89708 2.2918-1.9935 0.63862-1.0964 1.1767-1.6124 1.1958-1.1467 0.019 0.46573 3.326-1.3284 7.3487-3.987 4.0228-2.6586 9.5334-6.1947 12.246-7.8581 2.7125-1.6633 12.461-6.8639 21.664-11.557l16.732-8.5325 0.82251 0.7348 0.82251 0.73481-0.69025-1.2149-0.69027-1.2149 3.3555-1.9822c1.8455-1.0902 3.3555-1.6341 3.3555-1.2087v0.77347l1.4239-1.1319c0.78316-0.62252 4.2433-1.8043 7.6893-2.6261 3.4459-0.82183 9.5401-2.9384 13.543-4.7034 4.0025-1.765 8.0243-3.2091 8.9374-3.2091 0.91311 0 3.0208-0.70527 4.6838-1.5673 1.663-0.862 5.3304-2.5994 8.1498-3.861 2.8194-1.2615 6.9204-3.0586 9.1132-3.9934 2.1929-0.93481 5.7812-2.4724 7.9741-3.4168 2.1929-0.94443 5.2686-2.0835 6.8349-2.5312 1.5663-0.44774 5.7954-2.1126 9.398-3.6997s6.5501-3.2073 6.5501-3.6005c0-0.39317-2.0807-1.6163-4.6238-2.718l-4.6238-2.0032-1.072 0.66252-1.072 0.66252-0.0157-2.0608-0.0157-2.0607-15.21-8.907c-8.36-4.905-17.45-10.125-20.2-11.599-2.7493-1.4742-6.5723-3.4195-8.4956-4.3228-1.9233-0.90331-5.7679-3.076-8.5436-4.8283-2.7757-1.7522-5.0468-3.0209-5.0468-2.8193 0 0.20161-3.1804-1.2887-7.0676-3.3117l-7.0676-3.6783-2.7416 0.35927-2.7416 0.35927-1.5823-1.3065c-0.87027-0.71856-4.8006-2.3886-8.7341-3.7113l-7.1518-2.4048-2.2462 1.2021-2.2462 1.2021v-0.79952-0.79951l-0.61223 0.61223-0.61222 0.61223 1.411 3.2799c0.77604 1.8039 4.1272 6.5247 7.4471 10.491 3.3199 3.9659 6.0362 7.6824 6.0362 8.2589 0 0.57642-0.43776 1.048-0.97281 1.048-0.53504 0-2.3349-1.4097-3.9998-3.1327-1.6648-1.723-4.1504-4.3069-5.5236-5.742s-3.9283-4.7671-5.6782-7.4045l-3.1816-4.7952-0.005-2.4817-0.005-2.4817 1.7901-1.7901 1.7901-1.7901h6.4205 6.4205l12.579 4.667c6.9184 2.5668 15.398 6.0792 18.844 7.8052 3.4459 1.726 8.3158 4.3226 10.822 5.7701 2.5061 1.4475 8.9139 4.9213 14.239 7.7194 5.3255 2.7982 13.928 7.5849 19.116 10.637 5.1881 3.0523 9.7077 5.5497 10.044 5.5497 0.33585 0 2.2424 1.2089 4.2369 2.6864 1.9944 1.4775 5.2922 3.3968 7.3285 4.2651l3.7022 1.5787v1.0006 1.0006l1.7363-1.441 1.7362-1.441 0.79385 0.79384 0.79384 0.79385-1.4449 0.89298-1.4449 0.89298 1.4779 1.1573c0.81282 0.63653 6.604 4.6471 12.869 8.9124 6.2653 4.2653 17.287 11.856 24.492 16.868 7.2051 5.0123 13.613 9.671 14.239 10.353 0.62653 0.68168 5.326 4.4433 10.443 8.3591 5.1172 3.9158 9.5951 7.1197 9.9508 7.1197h0.64678l-0.35512-9.1378-0.35513-9.1378 1.306-1.0839 1.306-1.0839-0.23727 4.347-0.23729 4.347 1.7597 7.8445 1.7597 7.8445 2.6757 2.1047c1.4717 1.1576 3.3252 2.7542 4.1189 3.5479 0.79374 0.79372 3.4822 2.7862 5.9744 4.4278s6.7841 4.5793 9.5377 6.5284l5.0064 3.5438 0.91006-1.4725c0.50053-0.80988 1.2127-4.8209 1.5826-8.9134 0.36991-4.0925 1.1196-9.2351 1.666-11.428 0.54641-2.1929 2.0985-11.933 3.4492-21.644 1.3506-9.7113 3.4508-22.046 4.667-27.41 1.2162-5.3641 4.7381-22.537 7.8264-38.162s6.3754-30.529 7.3046-33.121c0.92923-2.5915 2.5266-6.3307 3.5498-8.3092l1.8603-3.5973 3.528-2.1455 3.528-2.1455 2.682 1.7573 2.682 1.7573-0.0456 5.28-0.0456 5.28-1.8134-3.4175c-0.99738-1.8796-1.9533-3.5823-2.1244-3.7837-0.171-0.20146-2.1475 0.82378-4.3922 2.2783l-4.0814 2.6446-0.02 2.8479c-0.0114 1.5663-1.2681 8.743-2.7935 15.948-1.5255 7.2051-3.8582 19.508-5.1839 27.34-1.3257 7.8317-3.1083 16.802-3.9613 19.935-0.85303 3.1327-1.7819 8.0886-2.0642 11.013l-0.51326 5.3174 1.843 0.69194c1.0137 0.38056 4.1498 1.9327 6.9692 3.4492l5.1262 2.7573-3.4175-0.42744c-1.8796-0.23509-4.9194-0.74667-6.7551-1.1368-1.8357-0.39017-3.7251-0.94888-4.1987-1.2416l-0.86108-0.53218-0.68982 5.433c-0.37939 2.9882-1.146 7.2272-1.7036 9.42-0.55758 2.1929-1.8476 9.6258-2.8666 16.518-1.0191 6.8919-2.3139 15.606-2.8774 19.366-0.56346 3.7592-1.2271 8.5906-1.4748 10.736l-0.45028 3.9014 2.9646 2.6127c1.6305 1.437 3.516 2.6289 4.19 2.6487 0.67394 0.0198 2.4293 1.3175 3.9008 2.8839 1.4715 1.5663 3.1647 2.8479 3.7627 2.8479 0.59802 0 3.0375 1.666 5.4211 3.7022s7.1169 5.8809 10.518 8.5436c3.4015 2.6628 6.4964 4.8414 6.8775 4.8414 0.38108 0 5.1102 3.5258 10.509 7.8351 5.399 4.3093 11.02 8.4793 12.491 9.2667l2.675 1.4316 4.9143-3.8263c2.7029-2.1044 5.2909-4.3521 5.7512-4.9949l0.83691-1.1686 0.0249 1.1392 0.025 1.1392 2.0718-3.1418 2.0718-3.1418 0.7686 0.76862 0.76862 0.76861v-1.1477c0-0.63125 1.9223-3.2504 4.2718-5.8204s6.2328-6.9474 8.6295-9.7276 5.6306-7.5513 7.1865-10.602l2.8288-5.5474 1.0785-5.5985 1.0785-5.5985-4.2095-8.5194-4.2095-8.5194-2.0619-0.5392c-1.134-0.29656-2.0619-0.86476-2.0619-1.2627 0-0.3979-2.3068-1.9472-5.1262-3.4429l-5.1262-2.7194v-1.5504-1.5504h0.9626c0.52943 0 1.873 1.0059 2.9856 2.2354l2.023 2.2354 3.6265 1.1968 3.6265 1.1969 4.0531 5.3962c2.2292 2.9679 4.8616 6.6777 5.8497 8.244l1.7966 2.8479 0.5154 5.9894 0.5154 5.9893-1.0162 0.62802c-0.55888 0.3454-1.0208 1.4948-1.0266 2.5543-0.006 1.0595-1.1591 4.2892-2.5631 7.1771l-2.5527 5.2508-4.2718 4.8651c-2.3495 2.6758-4.2718 5.3412-4.2718 5.9232v1.058l-1.1392-0.70403-1.1392-0.70403v1.1704c0 0.64373-4.1784 5.2876-9.2854 10.32-5.107 5.032-9.6839 9.1492-10.171 9.1492-0.48709 0-1.6912 0.80554-2.6757 1.7901-0.98456 0.98454-1.7901 2.1964-1.7901 2.693 0 0.49657 2.1786 2.3823 4.8414 4.1904 2.6628 1.8082 5.354 3.6784 5.9806 4.156 0.62653 0.47762 4.2149 2.9113 7.9741 5.4083 3.7592 2.4969 7.4412 4.5411 8.1821 4.5426l1.3472 0.002 0.69046-2.1754c0.37975-1.1965 1.4685-2.8211 2.4193-3.6103l1.7289-1.4349-0.34908 1.6168c-0.19198 0.88922-0.66443 1.8731-1.0499 2.1863-0.38546 0.31327-1.0476 1.6814-1.4714 3.0402l-0.77053 2.4707 3.4649 2.0468c1.9057 1.1257 3.4649 2.4488 3.4649 2.9403 0 0.49144 0.48986 0.89354 1.0886 0.89354 0.59872 0 2.8848 1.1534 5.0802 2.5631s6.4473 4.0749 9.4486 5.9226 9.5579 6 14.57 9.2272c5.0123 3.2272 9.8821 6.1277 10.822 6.4456l1.7087 0.578 3.1018-2.1715c1.706-1.1943 4.7288-4.437 6.7173-7.206l3.6155-5.0345 1.2567 0.71611 1.2568 0.71611-0.8092-0.8969-0.80919-0.8969 1.6636-3.9815c0.91495-2.1898 1.6636-4.8357 1.6636-5.8798s-1.0252-3.9093-2.2783-6.3671-2.2783-4.9426-2.2783-5.5216c0-0.57908 1.7279 1.1953 3.8398 3.9431l3.8398 4.996-0.48694 3.4175c-0.26782 1.8796-1.7401 6.0329-3.2717 9.2296l-2.7847 5.8122-5.8386 5.3782-5.8385 5.3782 0.99854 0.96113c0.5492 0.52864 6.6374 4.0492 13.529 7.8234 6.8919 3.7742 14.595 8.4027 17.119 10.285 2.5235 1.8828 6.9983 4.7702 9.944 6.4166l5.3558 2.9934 2.2658-0.71914c1.2462-0.39554 4.1714-2.3558 6.5004-4.3561s5.9335-5.2858 8.0101-7.3012c2.0765-2.0154 3.7755-4.0255 3.7755-4.4669 0-0.44144 0.70286-1.6119 1.5619-2.6011 0.85907-0.98913 2.6532-5.0043 3.987-8.9227l2.4251-7.1238v-4.4235-4.4235l-4.5566-13.927-4.5566-13.927v-3.6556c0-2.0106-0.71051-5.9255-1.5789-8.6999-0.86841-2.7744-2.5034-8.301-3.6334-12.281l-2.0544-7.2371-3.192-5.0333-3.192-5.0333-2.9259-1.1124-2.9259-1.1124 0.51857-0.8565 0.51855-0.8565-1.5892-1.4688-1.5892-1.4688v1.2513 1.2513l-1.0894-0.67328-1.0894-0.67329 0.7134-1.8591 0.71342-1.8591-1.2827 0.79275-1.2827 0.79275-2.0172-3.169c-1.1095-1.7429-2.2854-3.4253-2.6131-3.7386-0.32774-0.31327-1.211-1.5948-1.9629-2.8479-0.75187-1.2531-4.1531-7.1482-7.5583-13.1-3.4052-5.9521-7.5946-13.62-9.3097-17.04-1.7152-3.42-5.217-9.0588-7.7818-12.531-2.5648-3.4719-4.4416-6.3125-4.1707-6.3125 0.27095 0-1.79-3.0757-4.58-6.8349-2.7899-3.7592-5.0928-7.0912-5.1175-7.4045-0.0246-0.31327-0.54408-1.3493-1.1543-2.3023-0.61017-0.95299-2.5191-2.3517-4.2421-3.1082l-3.1327-1.3755v-1.1636-1.1636h3.2316 3.2315l5.1799 7.6893c2.849 4.2291 8.5188 12.815 12.6 19.081 4.0808 6.2653 10.128 16.518 13.439 22.783 3.3104 6.2653 7.6551 13.956 9.6549 17.091 1.9998 3.1347 5.5222 8.0046 7.8274 10.822 2.3053 2.8174 6.1785 7.4293 8.6072 10.249 2.4287 2.8194 6.0736 7.433 8.0998 10.252 2.0262 2.8194 4.1132 5.2971 4.6379 5.5059l0.95395 0.37972v3.7977 3.7977l2.1793 5.084 2.1793 5.084 0.77513 6.6867 0.77512 6.6867 4 11.777 4 11.777-0.46588 8.1583-0.46588 8.1583-2.4096 5.1467c-1.3252 2.8307-4.4499 7.7006-6.9437 10.822l-4.5342 5.6752-4.573 3.4174c-2.5152 1.8796-5.1106 4.277-5.7677 5.3276l-1.1947 1.9101 5.3686 3.1542c2.9527 1.7348 8.7006 4.7833 12.773 6.7745 4.0725 1.9912 12.274 6.5853 18.226 10.209l10.822 6.5887 2.6557 2.9531c1.4606 1.6242 3.9316 4.827 5.4912 7.1173l2.8355 4.1643-0.36499 3.8098-0.36498 3.8098-5.0305 2.5373-5.0305 2.5373-2.9436-0.69061c-1.619-0.37984-4.8711-1.7471-7.2269-3.0384l-4.2834-2.3478 1.0284-1.0284 1.0284-1.0284 2.1338 1.142 2.1338 1.142 5.5001-0.3462 5.5001-0.34619 1.1965-1.1965 1.1965-1.1965-1.4541-3.5106-1.4542-3.5106-5.3778-4.8351-5.3778-4.8351-9.0157-5.3238c-4.9586-2.9281-15.121-8.4638-22.583-12.302l-13.567-6.9777-6.918 2.5345c-3.8049 1.394-7.9432 2.7011-9.1963 2.9047-1.2531 0.20361-4.9905 1.1256-8.3055 2.0489-3.315 0.92328-8.1848 1.9696-10.822 2.3251-2.6371 0.35553-6.4607 0.63538-8.497 0.62187-2.0362-0.0136-4.343-0.0531-5.1262-0.0879-0.78317-0.0349-3.987-0.0212-7.1197 0.0304s-8.0025-0.16556-10.822-0.48257c-2.8194-0.317-5.8951-0.72954-6.8349-0.91678-0.9398-0.18723-2.4776-0.82506-3.4174-1.4174-0.93981-0.59236-2.2214-1.1406-2.8479-1.2184-0.62654-0.0778-3.0615-0.21947-5.411-0.31491l-4.2718-0.17357v-1.6098-1.6098l3.1327 0.98446c1.723 0.54147 6.9773 1.7507 11.676 2.6872l8.5436 1.7027 14.685-0.11106 14.685-0.11107 7.5286-1.5535c4.1407-0.85444 9.579-2.3452 12.085-3.3129 2.5061-0.96765 5.9672-2.3668 7.6912-3.1092l3.1346-1.3499-0.36384-1.145c-0.20012-0.62974-3.6612-3.3502-7.6912-6.0455-4.0301-2.6952-9.3778-5.968-11.884-7.2727-2.5061-1.3047-4.8129-2.6983-5.1262-3.0968-0.31327-0.39849-1.8511-1.3565-3.4175-2.1289-1.5663-0.77242-6.0775-3.222-10.025-5.4434l-7.177-4.039-5.9955 2.8363-5.9955 2.8363-10.586-0.34548-10.586-0.34548-1.0011-1.5808-1.0011-1.5808-0.0174 0.94727-0.0174 0.94728-4.2718-2.5993c-2.3495-1.4296-5.6827-3.9058-7.4071-5.5027l-3.1353-2.9034-1.7928-5.3975-1.7928-5.3975 0.59686-5.5322c0.32827-3.0428 0.75174-6.2034 0.94103-7.0238l0.34415-1.4915-11.961-8.3764c-6.5786-4.607-13.441-9.3588-15.25-10.56l-3.2892-2.1833-2.4066 1.3358c-1.3236 0.73472-2.7632 1.8336-3.199 2.442l-0.79242 1.1062-0.88332-0.88331-0.88331-0.88332 1.1062-0.79242c0.60839-0.43584 1.7728-1.6451 2.5877-2.6873l1.4815-1.8949-7.7469-5.4879c-4.2608-3.0184-10.458-7.6763-13.772-10.351-3.3137-2.6747-6.4209-4.8631-6.9049-4.8631-0.48402 0-1.8845-0.89708-3.1122-1.9935-1.2276-1.0964-5.4226-4.4604-9.322-7.4754l-7.09-5.4819-1.1451 0.70771-1.1451 0.70771v-1.683-1.683l-4.047-2.5012c-2.2258-1.3756-4.2434-2.3047-4.4836-2.0645-0.24015 0.24015-1.2562 5.5295-2.2578 11.754l-1.8212 11.317 0.75454 3.4696c0.41499 1.9083 1.458 4.4807 2.3177 5.7166l1.5632 2.247v2.9874 2.9874l-2.2492 2.0355c-1.2371 1.1195-2.5555 3.0006-2.9299 4.1801l-0.68067 2.1446-1.0571-0.65335c-0.58143-0.35933-1.0571-0.3939-1.0571-0.0768 0 0.31709 1.2816 2.9868 2.8479 5.9326l2.8479 5.3561-0.13214 2.963-0.13214 2.963-0.52993-2.0401c-0.29146-1.1221-1.7364-4.1641-3.2109-6.7601l-2.681-4.72-0.66212 3.3426c-0.36416 1.8384-1.1666 5.5286-1.7831 8.2003-0.61656 2.6717-1.121 5.6016-1.121 6.5108v1.6531l3.3042 3.3801 3.3042 3.3801 0.68285-0.68284 0.68284-0.68284v2.4682 2.4682l0.85615-0.28479c0.47089-0.15663 2.8688 1.5094 5.3288 3.7022 2.4599 2.1929 5.3106 4.788 6.3348 5.767l1.8621 1.7799 1.1538-0.38461 1.1538-0.38461 3.4355 3.1613c1.8895 1.7387 4.4336 3.9302 5.6535 4.87s4.2488 2.8964 6.731 4.3479c2.4822 1.4516 7.845 4.2398 11.918 6.1961 4.0725 1.9563 7.789 3.4599 8.2588 3.3414 0.4699-0.11856 0.85437 0.29705 0.85437 0.92358 0 0.62654 0.38446 1.0129 0.85436 0.85861 0.4699-0.1543 3.1612 0.40216 5.9806 1.2366 2.8194 0.83443 7.6992 2.4985 10.844 3.698s6.059 2.1809 6.476 2.1809 2.2013 0.59097 3.965 1.3133c1.7638 0.7223 4.2098 1.5042 5.4357 1.7375 1.2259 0.23333 2.6277 1.052 3.1152 1.8194l0.88636 1.3952 0.0174-1.266 0.0174-1.266 2.8479 0.54441 2.8479 0.5444v1.0064c0 0.55349 0.38447 0.91857 0.85437 0.81128 0.4699-0.10731 3.2893 0.20723 6.2653 0.69892l5.411 0.89399v1.1366 1.1366l-4.2718-0.73373c-2.3495-0.40355-6.8349-1.326-9.9676-2.0498-3.1327-0.72382-6.2909-1.7571-7.0183-2.2962l-1.3225-0.98021-0.51349 0.90968c-0.28243 0.50033-0.85045 2.3194-1.2623 4.0424l-0.74877 3.1327h-4.3566-4.3566l-6.1589-2.1723c-3.3874-1.1948-9.7472-3.9419-14.133-6.1047-4.3857-2.1628-9.1275-4.2955-10.537-4.7394l-2.5631-0.80695v1.2159 1.2159h1.2064 1.2064l-0.71916 1.1636-0.71917 1.1636-2.0926-2.5842-2.0926-2.5842 1.3206-0.90522 1.3206-0.90521-1.7087 0.31447-1.7087 0.31446-6.2653-4.6682c-3.4459-2.5675-9.341-6.2042-13.1-8.0815-3.7592-1.8773-10.295-5.0282-14.524-7.002-4.2291-1.9738-7.6893-3.9862-7.6893-4.472v-0.88337l-1.9935-0.20274c-1.0964-0.11153-3.2751-0.34952-4.8414-0.5289l-2.8479-0.32614-2.0133 8.5436c-1.1073 4.699-2.4839 10.338-3.0592 12.531-0.5752 2.1929-1.8786 8.3443-2.8964 13.67-1.0178 5.3255-3.0669 15.322-4.5535 22.213-1.4866 6.8919-2.9524 14.398-3.2575 16.68l-0.5547 4.149 1.5637 2.2326 1.5637 2.2326-0.87761 3.3012-0.8776 3.3012-2.3623 0.34776h0.00004zm206.42-47.623c0.31327 0 0.56957-0.25631 0.56957-0.56957 0-0.31327-0.2563-0.56958-0.56957-0.56958s-0.56958 0.25631-0.56958 0.56958c0 0.31326 0.25631 0.56957 0.56958 0.56957zm-97.682-3.4521 3.7022 0.0347v-0.92143c0-0.50679-0.64077-1.7043-1.4239-2.6611l-1.4239-1.7397-5.1262-1.457c-2.8194-0.80135-5.3825-1.4416-5.6958-1.4228-0.31326 0.0188-1.2196-0.50528-2.014-1.1646-0.79446-0.65935-2.3323-1.2906-3.4175-1.4028-1.0851-0.1122-3.3827-0.60993-5.1056-1.1061l-3.1327-0.90219v-1.0829-1.0829l-1.0362 0.64043-1.0362 0.64044-5.4503-2.3363-5.4503-2.3362-2.7028 0.3391-2.7028 0.33912 5.4871 2.8479c3.0179 1.5663 5.658 3.2323 5.8668 3.7022 0.20886 0.4699 0.77743 0.85437 1.2635 0.85437 0.48609 0 4.9288 1.8956 9.8726 4.2125l8.9889 4.2125 1.4324-0.27737c0.78782-0.15257 2.3257 0.24299 3.4175 0.879l1.9851 1.1564 3.7022 0.0346zm-43.573-19.331c0.31326 0 0.56957-0.25631 0.56957-0.56958 0-0.31326-0.25631-0.56957-0.56957-0.56957-0.31327 0-0.56958 0.25631-0.56958 0.56957 0 0.31327 0.25631 0.56958 0.56958 0.56958zm-11.676-7.9942c0.4699 0.0114 0.85436-0.27277 0.85436-0.63079 0-0.35801-0.64077-1.2551-1.4239-1.9935-0.78316-0.73841-3.843-3.1367-6.7997-5.3296l-5.3758-3.987-0.0352-1.3882-0.0352-1.3882-1.7087 0.6557-1.7087 0.65571v-1.8306-1.8306h-1.5036-1.5036l-3.7884-3.3822-3.7884-3.3822-0.89197 0.55126-0.89197 0.55127-0.36624-2.4908-0.36622-2.4908-1.4239-0.46896-1.4239-0.46894v1.7087 1.7087l1.4239 0.53378 1.4239 0.53379-2.2783 1.911-2.2783 1.911 1.3186 0.55783c0.72523 0.30681 2.3526 1.4546 3.6164 2.5507s4.1306 2.9799 6.3707 4.1863 4.0728 2.5894 4.0728 3.0735c0 0.48406 0.47487 0.88011 1.0553 0.88011 0.58039 0 4.5532 2.0414 8.8284 4.5364 4.2752 2.4951 8.1576 4.5455 8.6275 4.5566h-0.00004zm103.29-3.9517c3.4951-0.19844 8.5258-0.73397 11.179-1.1901l4.8245-0.82926 1.4408-1.7462 1.4408-1.7462-1.4498-0.48789c-0.79741-0.26834-3.8731-2.209-6.8349-4.3125-2.9618-2.1036-7.5637-4.9221-10.226-6.2634l-4.8414-2.4388v-1.0375c0-0.57064-0.52158-1.0375-1.1591-1.0375-0.63749 0-5.6355-2.783-11.107-6.1845l-9.9477-6.1845-0.79347 0.77349c-0.43641 0.42542-1.0059 3.4785-1.2655 6.7847l-0.47207 6.0112 0.98075 0.60615 0.98075 0.60613 0.0253 2.4959 0.0253 2.4959 2.2277 2.8479c1.2252 1.5663 2.239 3.5189 2.253 4.339l0.0253 1.4912 1.1469-0.70884 1.1469-0.70883 3.3007 2.3503 3.3008 2.3503 2.1024 0.0174c1.1564 0.009 2.8312 0.47865 3.7218 1.0423l1.6193 1.0249 6.3548-0.3608 0.00005 0.00001zm-130.34-8.57c0.31326 0 0.56957-0.25631 0.56957-0.56957 0-0.31327-0.25631-0.56958-0.56957-0.56958-0.31327 0-0.56958 0.25631-0.56958 0.56958 0 0.31326 0.25631 0.56957 0.56958 0.56957zm4.0249-51.103 2.2404-2.6893v-2.5998-2.5998l-1.6144-0.61953-1.6144-0.61953-0.66385 1.73c-0.36512 0.95147-0.6468 3.6104-0.62596 5.9086l0.0379 4.1786 2.2404-2.6893h-0.00003zm-32.314-76.862 0.75942-0.75944-0.75942-0.75943-0.75944-0.75943v1.5189 1.5189l0.75944-0.75943zm268.65 206.57c-0.31327 0-0.56958-0.25631-0.56958-0.56958s0.25631-0.56958 0.56958-0.56958 0.56958 0.25631 0.56958 0.56958-0.25631 0.56958-0.56958 0.56958zm-9.1132-3.4175c-0.31326 0-0.56957-0.25631-0.56957-0.56958 0-0.31326 0.25631-0.56957 0.56957-0.56957 0.31327 0 0.56958 0.25631 0.56958 0.56957 0 0.31327-0.25631 0.56958-0.56958 0.56958zm-141.68-13.79c-0.39319-0.0641-2.2528-0.51517-4.1324-1.0023s-5.9805-2.0344-9.1132-3.4382c-3.1327-1.4039-7.3618-3.7984-9.398-5.321s-3.7022-3.2766-3.7022-3.8977v-1.1292l5.411 3.0824c2.976 1.6953 7.172 4.3786 9.3244 5.9628l3.9134 2.8805h5.4422 5.4422l-1.2363 1.4897c-0.67997 0.81931-1.558 1.4372-1.9512 1.373zm6.5238-4.9014-2.4441 2.1701 1.311-2.4996c0.72107-1.3748 1.8209-2.8148 2.4441-3.1999l1.133-0.70025v1.0298c0 0.5664-1.0998 2.0064-2.4441 3.1999zm-34.149-10.41-0.67596 0.67598-2.7245-2.2087-2.7245-2.2087 0.58659-0.58973 0.5866-0.58972 2.8138 2.1225 2.8138 2.1225-0.67597 0.67597zm-7.1968-5.0768c-0.27629 0-0.81916-0.51262-1.2064-1.1392l-0.70403-1.1392h1.2064 1.2064v1.1392c0 0.62653-0.22605 1.1392-0.50234 1.1392zm-3.2761-3.2039-0.59829 1.4951-0.0899-2.1834-0.09-2.1834 0.68824 0.68823 0.68823 0.68824-0.5983 1.4951zm-154.41-29.292-2.4324 0.46844v-0.99698-0.99697l2.3642-0.75036 2.3642-0.75035 0.67359 0.67358 0.67358 0.67359-0.6053 0.6053c-0.33291 0.33292-1.6999 0.8161-3.0377 1.0738zm0.41544-0.53989c0.31326 0 0.56957-0.25631 0.56957-0.56958s-0.25631-0.56958-0.56957-0.56958c-0.31327 0-0.56958 0.25631-0.56958 0.56958s0.25631 0.56958 0.56958 0.56958zm10.176 0.0292-2.6904 1.0229-0.72397-1.1714-0.72397-1.1714 0.68363-0.68365 0.68366-0.68364v1.3962 1.3962l1.4239-0.88863c0.78316-0.48876 2.321-1.0284 3.4174-1.1992l1.9935-0.31059v1.3219 1.3219l-0.68671-0.68671-0.68671-0.6867-2.6904 1.0229zm10.728 0.52139-0.58857 0.58856-0.75943-0.75943c-0.41769-0.41765-0.75943-1.2891-0.75943-1.9365v-1.1771l1.348 1.348 1.348 1.348-0.58856 0.58855v-0.00003zm-34.378-0.83538h-3.0843l-0.54226-0.87739-0.54226-0.87739 1.5914-0.6107 1.5915-0.6107 2.0351 1.4881 2.0351 1.4881h-3.0843zm4.9313 0.28483h-1.5189l0.75943-0.75944 0.75944-0.75943 0.75943 0.75943 0.75943 0.75944h-1.5189zm3.4174 0c-0.62653 0-1.1392-0.51262-1.1392-1.1392 0-0.62653 0.51262-1.1392 1.1392-1.1392 0.62654 0 1.1392 0.51262 1.1392 1.1392 0 0.62654-0.51261 1.1392-1.1392 1.1392zm22.281 0c-0.27629 0-0.81916-0.51262-1.2064-1.1392l-0.70403-1.1392h1.2064 1.2064v1.1392c0 0.62654-0.22605 1.1392-0.50234 1.1392zm8.9065 0c-0.23656 0-0.4301-0.76893-0.4301-1.7087v-1.7087h1.8482 1.8482l-1.4181 1.7087c-0.77996 0.9398-1.6117 1.7087-1.8482 1.7087zm5.8352-1.1392-1.7087 1.4181v-1.1568c0-0.63622 0.76892-1.4518 1.7087-1.8125 0.9398-0.36063 1.7087-0.47824 1.7087-0.26136 0 0.21689-0.76892 1.0325-1.7087 1.8125zm3.641 0.39357-0.91559 1.3152 0.3591-2.2652 0.35911-2.2652 2.1116-0.40667 2.1116-0.40666-0.51092 1.5327-0.51091 1.5327-1.0442-0.17601c-0.57433-0.0968-1.4562 0.41581-1.9598 1.1392zm-56.327-0.411c-1.0964-0.009-2.6776-0.4511-3.5138-0.98112l-1.5202-0.96366 2.0898-0.54222c1.1494-0.29822 2.7306-0.32662 3.5138-0.0631 0.78316 0.26351 1.4239 0.949 1.4239 1.5233v1.0442l-1.9935-0.0174zm-8.7452-1.5322-2.7631 0.15905 0.55915-1.4571 0.55915-1.4571 2.2047 0.57655c1.2126 0.3171 2.2044 0.90123 2.2039 1.298-0.00043 0.39682-1.2442 0.79308-2.7639 0.88055zm-4.0702-1.2982-1.1392 0.70403v-1.2064-1.2064h1.1392c0.62653 0 1.1392 0.22605 1.1392 0.50234s-0.51262 0.81916-1.1392 1.2064zm76.893 0.56958c-0.31327 0-0.56958-0.25631-0.56958-0.56958 0-0.31326 0.25631-0.56957 0.56958-0.56957 0.31326 0 0.56957 0.25631 0.56957 0.56957 0 0.31327-0.25631 0.56958-0.56957 0.56958zm2.2783 0c-0.31327 0-0.56958-0.25631-0.56958-0.56958 0-0.31326 0.25631-0.56957 0.56958-0.56957s0.56958 0.25631 0.56958 0.56957c0 0.31327-0.25631 0.56958-0.56958 0.56958zm2.2783 0c-0.31326 0-0.56957-0.25631-0.56957-0.56958 0-0.31326 0.25631-0.56957 0.56957-0.56957 0.31327 0 0.56958 0.25631 0.56958 0.56957 0 0.31327-0.25631 0.56958-0.56958 0.56958zm-87.525-1.5189-0.75944 0.75943v-1.5189-1.5189l0.75944 0.75943 0.75942 0.75944-0.75942 0.75943zm3.4174 0-0.75944 0.75943v-1.5189-1.5189l0.75944 0.75943 0.75943 0.75944-0.75943 0.75943zm-8.4487-0.77686c-1.0964-0.009-2.689-0.45815-3.5391-0.99677l-1.5456-0.97932 1.3107-0.81004 1.3107-0.81004 1.4788 1.2273 1.4789 1.2274 0.74955-0.74955 0.74955-0.74955v1.329 1.329l-1.9935-0.0174zm103.95-1.1217c-0.31327 0-0.56958-0.25631-0.56958-0.56957 0-0.31327 0.25631-0.56958 0.56958-0.56958 0.31326 0 0.56957 0.25631 0.56957 0.56958 0 0.31326-0.25631 0.56957-0.56957 0.56957zm2.2783 0c-0.31327 0-0.56958-0.25631-0.56958-0.56957 0-0.31327 0.25631-0.56958 0.56958-0.56958s0.56958 0.25631 0.56958 0.56958c0 0.31326-0.25631 0.56957-0.56958 0.56957zm-116.76-1.3887-3.4175 0.0972v-1.0987c0-0.60429 0.86634-1.4312 1.9252-1.8375l1.9252-0.73877 0.45039 1.3512 0.4504 1.3512 1.0419-0.6439 1.0419-0.6439v1.033 1.033l-3.4175 0.0972v-0.00001zm177.14-0.88961c-0.31327 0-0.56957-0.25631-0.56957-0.56958 0-0.31326 0.2563-0.56957 0.56957-0.56957s0.56958 0.25631 0.56958 0.56957c0 0.31327-0.25631 0.56958-0.56958 0.56958zm-184.06-1.5486-3.5074-0.14334-1.2116-1.4599-1.2116-1.4598 0.75089-0.7509 0.75089-0.75089 1.348 1.348 1.348 1.348h2.62 2.62v1.0061 1.0061l-3.5074-0.14334zm135.08 0.40945c-0.31327 0-0.56957-0.25631-0.56957-0.56958s0.2563-0.56957 0.56957-0.56957 0.56958 0.2563 0.56958 0.56957-0.25631 0.56958-0.56958 0.56958zm2.2783 0c-0.31327 0-0.56958-0.25631-0.56958-0.56958s0.25631-0.56957 0.56958-0.56957c0.31326 0 0.56957 0.2563 0.56957 0.56957s-0.25631 0.56958-0.56957 0.56958zm5.9043-2.0647-0.59829 1.4951-0.0899-2.1834-0.09-2.1834 0.68824 0.68823 0.68823 0.68824-0.59831 1.4951zm-153.42-1.3527h-2.2783v-1.7087-1.7087h1.1392 1.1392v1.2064 1.2064l1.1392-0.70403 1.1392-0.70403v1.2064 1.2064h-2.2783zm-5.6008-2.4334c-0.36547-0.0853-1.8255-0.37828-3.2445-0.65103l-2.58-0.49588 0.76248-1.2337 0.76248-1.2337-1.3418 0.82928-1.3418 0.82928-3.3908-1.5009-3.3908-1.5009v-1.4306-1.4306h1.6274c0.89506 0 2.3719 0.74452 3.2818 1.6545 0.90997 0.90997 1.8786 1.4303 2.1526 1.1564 0.27395-0.27395 2.3655 0.45393 4.6478 1.6175l4.1497 2.1156-0.71502 0.71501c-0.39326 0.39327-1.014 0.64522-1.3795 0.5599zm195.27-0.98403c-0.31326 0-0.56957-0.2563-0.56957-0.56957s0.25631-0.56958 0.56957-0.56958c0.31327 0 0.56958 0.25631 0.56958 0.56958s-0.25631 0.56957-0.56958 0.56957zm0.42427-3.4946c-0.23334-0.0424-1.5777-0.63336-2.9874-1.3132l-2.5631-1.2361 0.0801-1.2498c0.044-0.68743 0.52061-2.2751 1.0591-3.5282l0.97902-2.2783 0.0801 2.0336 0.0801 2.0336 2.2783-1.2193 2.2783-1.2193v1.0398c0 0.57187-0.77525 1.6832-1.7228 2.4695l-1.7228 1.4298 1.2927 1.5576c0.71098 0.85668 1.1018 1.5229 0.86841 1.4805h-0.00003zm-80.03-1.062c-0.31327 0-0.88639-0.51262-1.2736-1.1392-0.38722-0.62653-0.44772-1.1392-0.13445-1.1392s0.88639 0.51262 1.2736 1.1392c0.38722 0.62654 0.44772 1.1392 0.13445 1.1392zm-130.7-2.6063-0.43208 1.1254-3.4174-1.1133c-1.8796-0.61231-4.4757-2.0733-5.7692-3.2466-1.2934-1.1733-2.8527-2.1333-3.4649-2.1333-0.61226 0-3.1423-1.9139-5.6224-4.2532-2.48-2.3392-4.5092-4.0096-4.5092-3.7118 0 0.29772-1.8719-0.88648-4.1599-2.6316l-4.1599-3.1729-6.6621 2.194c-3.6641 1.2067-9.4815 2.8502-12.927 3.6523-3.4459 0.80206-7.2906 1.6223-8.5436 1.8228-1.2531 0.20045-4.8414 0.9082-7.9741 1.5727-3.1327 0.66455-11.078 1.8904-17.657 2.7241l-11.961 1.5159-19.081-0.0517-19.081-0.0517v-0.8763c0-0.48197 0.45729-1.1589 1.0162-1.5043 0.55891-0.34543 2.9938-0.90683 5.411-1.2476 2.4171-0.34073 11.315-0.84137 19.773-1.1125 8.4582-0.27115 18.191-0.73999 21.628-1.0419 3.437-0.30188 7.334-0.82118 8.66-1.154s4.4091-0.91376 6.8512-1.291c2.4421-0.37723 7.9829-1.422 12.313-2.3218 4.33-0.89973 11.378-2.7008 15.663-4.0022l7.7907-2.3664v-1.4583c0-0.80206-0.76893-2.0964-1.7087-2.8764l-1.7087-1.4181v-2.8033-2.8033l1.0707 0.37972c0.58889 0.20884 2.2932 2.1739 3.7873 4.3668l2.7165 3.987 3.3324-0.22314c1.8328-0.12273 6.4082-1.0739 10.167-2.1138 3.7592-1.0398 11.961-3.4216 18.226-5.2928 6.2653-1.8712 12.16-3.5194 13.1-3.6625 0.9398-0.14318 2.734-0.68963 3.987-1.2143 1.2531-0.5247 4.7132-1.8907 7.6893-3.0355 2.976-1.1448 5.411-1.8368 5.411-1.5378 0 0.29905 1.9223-0.204 4.2718-1.1179 2.3495-0.91387 8.1164-2.7034 12.815-3.9768 4.699-1.2734 11.876-3.2412 15.948-4.3729 4.0725-1.1317 7.9171-2.1752 8.5436-2.3189 0.62653-0.14368 3.1896-0.81003 5.6958-1.4808 2.5061-0.67074 7.376-2.1223 10.822-3.2257 3.4459-1.1034 9.341-2.914 13.1-4.0234 3.7592-1.1095 8.5009-2.5625 10.537-3.2289l3.7022-1.2116v-1.5471-1.5471l1.2079 0.74652 1.2079 0.74653 3.6335-1.4112c1.9984-0.77618 5.9403-2.434 8.7597-3.6841s7.3248-3.3184 10.012-4.5962l4.8858-2.3233-0.57822-1.5068-0.57821-1.5068h2.6726 2.6726l1.3918 1.677 1.3918 1.677-1.5371 1.4557c-0.84539 0.80063-3.972 2.6024-6.948 4.004l-5.411 2.5483v1.2057c0 0.66315 1.2816 2.4873 2.8479 4.0536s2.8479 3.336 2.8479 3.9326c0 0.59661 1.8422 3.649 4.0939 6.7831l4.0939 5.6984h-1.155c-0.63526 0-3.9918-3.1847-7.4591-7.0771-3.4672-3.8924-6.5473-6.8338-6.8445-6.5366-0.29726 0.29727 0.98334 3.6101 2.8458 7.3618 1.8624 3.7518 4.5742 9.0092 6.026 11.683 1.4518 2.6741 3.4797 5.7901 4.5064 6.9246s1.8667 2.6845 1.8667 3.4445c0 0.76003 0.89708 2.3487 1.9935 3.5304s2.9196 3.7234 4.0514 5.6481c1.1318 1.9248 1.839 3.4996 1.5716 3.4996-0.2675 0-3.8848-4.5991-8.0385-10.22-4.1537-5.6211-7.5521-10.583-7.5521-11.027 0-0.44393-2.0099-3.9186-4.4664-7.7215s-5.6066-9.292-7.0001-12.198l-2.5337-5.2838-4.1066 1.6872c-2.2586 0.92798-4.4813 2.04-4.9392 2.4711l-0.83256 0.78385 2.8261 3.0478c1.5543 1.6763 2.8261 3.5828 2.8261 4.2367v1.1889h1.1392 1.1392v2.0635 2.0635l2.0506 2.2083c1.1278 1.2146 3.0501 3.969 4.2718 6.1209s2.9902 4.7517 3.93 5.7772c0.93981 1.0256 3.2466 3.8069 5.1262 6.1808s5.5961 6.9201 8.2588 10.103l4.8414 5.7867v1.492 1.492h-1.0411c-0.57259 0-3.6483-3.2766-6.8349-7.2812-3.1866-4.0047-5.7938-7.8796-5.7938-8.6109v-1.3296l-1.0571 0.65334-1.0571 0.65335-0.72836-2.2948c-0.40059-1.2622-1.1476-2.2948-1.66-2.2948-0.51242 0-3.1533-3.7165-5.8686-8.2588-2.7153-4.5424-5.2465-8.5152-5.6248-8.8284-0.3783-0.31327-1.1163-1.5948-1.64-2.8479-0.52367-1.2531-0.87074-2.6628-0.77127-3.1327 0.0995-0.4699-0.33177-0.85436-0.9583-0.85436h-1.1392v-1.4553c0-0.8004-0.78487-2.5758-1.7442-3.9454l-1.7441-2.4901-3.0973 1.2587c-1.7035 0.69228-7.9671 3.0072-13.919 5.1444-5.9521 2.1371-12.103 4.0941-13.67 4.3489-1.5663 0.2548-5.9236 1.5259-9.6828 2.8247s-7.0912 2.4102-7.4045 2.4698c-0.31327 0.0596-1.3385 0.34863-2.2783 0.64223-0.9398 0.29361-2.4777 0.82235-3.4175 1.175-0.9398 0.35264-2.1318 0.54691-2.6488 0.43173-0.51704-0.11518-7.1811 1.6252-14.809 3.8675s-15.407 4.5461-17.286 5.1195c-1.8796 0.57344-8.031 2.5574-13.67 4.4089-5.6388 1.8514-12.815 4.1364-15.948 5.0777-3.1327 0.94127-10.053 2.8117-15.379 4.1565-5.3255 1.3448-10.1 2.8508-10.61 3.3466l-0.92759 0.90149 1.5957 1.5785c0.8776 0.8682 5.5493 4.3979 10.382 7.8439 4.8322 3.4459 9.1452 6.2787 9.5843 6.2951 0.43913 0.0164 1.7618 0.58645 2.9392 1.2669l2.1408 1.2371-0.43207 1.1254zm124.31 1.4671h-1.5189l0.75943-0.75943 0.75944-0.75943 0.75944 0.75943 0.75942 0.75943h-1.5189zm76.893 0c-0.31327 0-0.56958-0.25631-0.56958-0.56957 0-0.31327 0.25631-0.56958 0.56958-0.56958 0.31326 0 0.56957 0.25631 0.56957 0.56958 0 0.31326-0.25631 0.56957-0.56957 0.56957zm-86.576-1.1392c-0.31327 0-0.56958-0.25631-0.56958-0.56957 0-0.31327 0.25631-0.56958 0.56958-0.56958 0.31326 0 0.56957 0.25631 0.56957 0.56958 0 0.31326-0.25631 0.56957-0.56957 0.56957zm17.087 0c-0.31327 0-0.56958-0.25631-0.56958-0.56957 0-0.31327 0.25631-0.56958 0.56958-0.56958 0.31326 0 0.56957 0.25631 0.56957 0.56958 0 0.31326-0.25631 0.56957-0.56957 0.56957zm13.67-1.1392c-0.31326 0-0.56957-0.25631-0.56957-0.56958 0-0.31326 0.25631-0.56957 0.56957-0.56957 0.31327 0 0.56958 0.25631 0.56958 0.56957 0 0.31327-0.25631 0.56958-0.56958 0.56958zm-38.731-1.1392c-0.31327 0-0.56957-0.25631-0.56957-0.56958s0.2563-0.56957 0.56957-0.56957 0.56958 0.2563 0.56958 0.56957-0.25631 0.56958-0.56958 0.56958zm107.27-0.37972-0.75944 0.75943v-1.5189-1.5189l0.75944 0.75943 0.75943 0.75944-0.75943 0.75943zm-111.64-1.1392-0.75944 0.75943v-1.5189-1.5189l0.75944 0.75942 0.75942 0.75944-0.75942 0.75944zm115.05 0-0.75944 0.75943v-1.5189-1.5189l0.75944 0.75942 0.75943 0.75944-0.75943 0.75944zm-63.982-0.75944c-0.31327 0-0.56958-0.25631-0.56958-0.56957 0-0.31327 0.25631-0.56958 0.56958-0.56958 0.31326 0 0.56957 0.25631 0.56957 0.56958 0 0.31326-0.25631 0.56957-0.56957 0.56957zm19.555-0.37971-0.75944 0.75943v-1.5189-1.5189l0.75944 0.75942 0.75942 0.75944-0.75942 0.75944zm48.157-0.75944c-0.58956 0-1.0719-0.51262-1.0719-1.1392v-1.1392h1.776 1.776l-0.70403 1.1392c-0.38722 0.62653-1.1864 1.1392-1.776 1.1392zm-49.419-2.2783c-0.27629 0-0.81916-0.51262-1.2064-1.1392l-0.70403-1.1392h1.2064 1.2064v1.1392c0 0.62653-0.22606 1.1392-0.50235 1.1392zm32.349-0.53883-1.0894 0.67328v-2.3455c0-1.29 0.20147-2.3455 0.4477-2.3455 0.24624 0 0.73646 0.75251 1.0894 1.6722l0.64169 1.6722-1.0894 0.67329zm23.17-0.48208-1.2194 1.2194-0.71673-1.1597-0.71673-1.1597 1.2335-0.76236 1.2335-0.76236 0.70263 0.70263 0.70264 0.70263-1.2194 1.2194zm-136.47-1.2574c-0.31326 0-0.56957-0.25631-0.56957-0.56957 0-0.31327 0.25631-0.56958 0.56957-0.56958 0.31327 0 0.56958 0.25631 0.56958 0.56958 0 0.31326-0.25631 0.56957-0.56958 0.56957zm140.03 0h-1.6274v-0.94666c0-0.52066 1.1534-1.5137 2.5631-2.2067 1.4097-0.69303 3.8446-1.5731 5.411-1.9556l2.8479-0.69557-2.2783 1.4046c-1.2531 0.77249-2.9557 2.0785-3.7836 2.9023-0.82791 0.82374-2.2376 1.4977-3.1327 1.4977zm-143.17-1.6105c-0.31327 0.31326-0.90129-0.29484-1.3067-1.3513s-0.48081-2.1772-0.16755-2.4905c0.31327-0.31326 0.90129 0.29484 1.3067 1.3513s0.48081 2.1772 0.16755 2.4905zm81.737 0.47131c-0.31327 0-0.56958-0.25631-0.56958-0.56958 0-0.31326 0.25631-0.56957 0.56958-0.56957 0.31326 0 0.56957 0.25631 0.56957 0.56957 0 0.31327-0.25631 0.56958-0.56957 0.56958zm-85.436-3.4175c-0.31327 0-0.56958-0.2563-0.56958-0.56957s0.25631-0.56958 0.56958-0.56958 0.56958 0.25631 0.56958 0.56958-0.25631 0.56957-0.56958 0.56957zm82.019 0c-0.31327 0-0.56957-0.2563-0.56957-0.56957s0.2563-0.56958 0.56957-0.56958 0.56958 0.25631 0.56958 0.56958-0.25631 0.56957-0.56958 0.56957zm-83.606-2.2783h-1.261v-1.776-1.776l-1.1392 0.70403-1.1392 0.70403v-1.2064-1.2064h1.7087c0.9398 0 1.7087 0.21439 1.7087 0.47641s0.31115 1.2873 0.69146 2.2783l0.69145 1.8019h-1.261zm81.395 0c-0.27629 0-0.81916-0.51262-1.2064-1.1392l-0.70403-1.1392h1.2064 1.2064v1.1392c0 0.62653-0.22605 1.1392-0.50234 1.1392zm77.585-0.37971-0.75944 0.75942v-1.5189-1.5189l0.75944 0.75943 0.75943 0.75944-0.75943 0.75944zm4.4399-2.6848-1.5632 2.0617-0.6724-1.088-0.67238-1.088 1.987-0.86101c1.0928-0.47354 2.7419-1.0113 3.6645-1.1949 0.92264-0.18366 2.2607-1.1315 2.9735-2.1062 0.71277-0.97476 1.8375-1.7723 2.4994-1.7723 0.66188 0 1.462-0.64077 1.778-1.4239l0.57457-1.4239 0.0899 1.9704 0.09 1.9704-4.5566 2.3246-4.5566 2.3246-0.0362-0.87752c-0.0199-0.48263-0.73964 0.0502-1.5994 1.1842zm114.63 0.72343c-0.43292-0.0345-3.3502-1.8659-6.4829-4.0697s-6.9773-4.5194-8.5436-5.1458c-1.5663-0.62634-4.2399-1.1793-5.9413-1.2287l-3.0934-0.0899 0.59759-0.96691 0.59758-0.96691h3.2194c1.7707 0 5.8161 0.83862 8.9898 1.8636l5.7704 1.8636 3.6659 3.0604 3.6659 3.0604-0.82898 1.3413c-0.45595 0.73774-1.1832 1.3131-1.6161 1.2786v-0.00003zm-198.81-1.4561-0.75944 0.75943v-1.5189-1.5189l0.75944 0.75942 0.75942 0.75944-0.75942 0.75944zm-84.48-1.89c-0.31327 0-0.56958-0.25631-0.56958-0.56958 0-0.31326 0.25631-0.56957 0.56958-0.56957 0.31326 0 0.56957 0.25631 0.56957 0.56957 0 0.31327-0.25631 0.56958-0.56957 0.56958zm228.54-3.1137-1.4155 1.405 0.77779-2.0426 0.77781-2.0426 0.63768 0.63769 0.6377 0.63769-1.4155 1.405zm-231.42-0.30378h-1.1749l-0.67455-1.7579-0.67456-1.7579 0.77224-0.77224 0.77226-0.77224 1.0598 1.6757c0.58287 0.92165 1.0676 2.0602 1.0772 2.5301 0.009 0.4699-0.51126 0.85436-1.1575 0.85436zm111.1-3.4174c-0.31327 0-0.56958-0.25631-0.56958-0.56958s0.25631-0.56957 0.56958-0.56957c0.31326 0 0.56957 0.2563 0.56957 0.56957s-0.25631 0.56958-0.56957 0.56958zm-114.99-2.2783c-0.27629 0-0.79727-0.4772-1.1577-1.0604l-0.65539-1.0604 1.1577-0.71552 1.1577-0.71552v1.776c0 0.97678-0.22605 1.776-0.50234 1.776zm93.719-1.7215c-0.20668 0.19755-1.3233-0.90722-2.4813-2.455s-1.8682-3.0515-1.5782-3.3414c0.28997-0.28997 1.4065 0.81481 2.4813 2.4551 1.0747 1.6402 1.785 3.1439 1.5782 3.3414zm-204.5-0.88909-1.3513 0.47371-1.8255-2.7861c-1.004-1.5323-1.7242-3.2302-1.6005-3.773 0.12376-0.54279-0.0788-1.7558-0.45008-2.6956-0.37132-0.9398-1.2254-4.4428-1.898-7.7845-0.67258-3.3417-1.0178-6.4174-0.76727-6.8349 0.25058-0.41754 0.77219-4.0247 1.1591-8.0159l0.70352-7.2567 1.7992-4.1348c0.98954-2.2741 2.612-5.6727 3.6056-7.5523 0.99351-1.8796 3.0045-5.3398 4.4689-7.6893l2.6625-4.2718h1.1828 1.1828l-2.9058 3.8098c-1.5982 2.0954-2.9058 4.3594-2.9058 5.0313 0 0.67182-0.38673 1.3924-0.85941 1.6012-0.47267 0.20885-2.0617 3.8255-3.5312 8.037l-2.6718 7.6572-0.29528 7.7213-0.29528 7.7213 1.8154 7.4045c0.99844 4.0725 2.1565 7.6608 2.5734 7.9741 0.41694 0.31327 0.93747 1.5416 1.1567 2.7297l0.39864 2.1601-1.3513 0.47369zm107.29-3.0852c-0.31327 0-0.56958-0.25631-0.56958-0.56957 0-0.31327 0.25631-0.56958 0.56958-0.56958 0.31326 0 0.56957 0.25631 0.56957 0.56958 0 0.31326-0.25631 0.56957-0.56957 0.56957zm91.702-3.4174h-1.5189l0.75942-0.75944 0.75944-0.75943 0.75944 0.75943 0.75943 0.75944h-1.5189zm-2.2783-2.2783c-0.62654 0-1.1392-0.51262-1.1392-1.1392 0-0.62653 0.51261-1.1392 1.1392-1.1392 0.62653 0 1.1392 0.51262 1.1392 1.1392 0 0.62653-0.51262 1.1392-1.1392 1.1392zm-90.563-1.1392c-0.31327 0-0.56958-0.25631-0.56958-0.56958 0-0.31326 0.25631-0.56957 0.56958-0.56957 0.31326 0 0.56957 0.25631 0.56957 0.56957 0 0.31327-0.25631 0.56958-0.56957 0.56958zm87.715-3.4175c-0.31327 0-0.56958-0.25631-0.56958-0.56957 0-0.31327 0.25631-0.56958 0.56958-0.56958 0.31326 0 0.56957 0.25631 0.56957 0.56958 0 0.31326-0.25631 0.56957-0.56957 0.56957zm-92.271-7.9741c-0.31327 0-0.56958-0.25631-0.56958-0.56958 0-0.31326 0.25631-0.56957 0.56958-0.56957 0.31326 0 0.56957 0.25631 0.56957 0.56957 0 0.31327-0.25631 0.56958-0.56957 0.56958zm129.86-2.2783c-0.31327 0-0.56958-0.2563-0.56958-0.56957s0.25631-0.56958 0.56958-0.56958c0.31326 0 0.56957 0.25631 0.56957 0.56958s-0.25631 0.56957-0.56957 0.56957zm-21.074-3.987-1.1392 0.70403v-1.2064-1.2064h1.1392c0.62654 0 1.1392 0.22606 1.1392 0.50235s-0.51262 0.81916-1.1392 1.2064zm-1.1392-2.8479c-0.62653 0-1.1392-0.22605-1.1392-0.50234s0.51262-0.81917 1.1392-1.2064l1.1392-0.70403v1.2064 1.2064h-1.1392zm-1.1392-2.8479-1.1392 0.70403v-2.9823-2.9823l1.1392 0.70403c0.62653 0.38722 1.1392 1.4125 1.1392 2.2783 0 0.86584-0.51262 1.8911-1.1392 2.2783zm-106.51-2.8479c-0.31327 0-0.56958-0.25631-0.56958-0.56957 0-0.31327 0.25631-0.56958 0.56958-0.56958 0.31326 0 0.56957 0.25631 0.56957 0.56958 0 0.31326-0.25631 0.56957-0.56957 0.56957zm-1.7087-3.987c-0.62653 0.38722-1.1392 0.44772-1.1392 0.13445 0-0.31326 0.51262-0.88638 1.1392-1.2736 0.62653-0.38722 1.1392-0.44772 1.1392-0.13446 0 0.31327-0.51262 0.88639-1.1392 1.2736zm107.76 0.56958c-0.29773 0-0.78135-0.38838-1.0747-0.86305-0.29337-0.47466-0.89328-2.7814-1.3332-5.1262l-0.79976-4.2631h1.2659 1.2659l0.0936 1.9935c0.0515 1.0964 0.32536 3.4032 0.60854 5.1262s0.27128 3.1327-0.0264 3.1327h0.00003zm-1.7964-15.39-1.1577 0.71551v-1.776c0-0.97677 0.22606-1.776 0.50235-1.776s0.79727 0.4772 1.1577 1.0604l0.65539 1.0604-1.1577 0.71553zm-0.39829-4.3553-0.75944 0.75942v-1.5189-1.5189l0.75944 0.75943 0.75943 0.75944-0.75943 0.75944zm-107.05-2.2051-0.52514 2.0152-0.0422-3.4174-0.0423-3.4175 0.56735 1.4023c0.31204 0.77124 0.33103 2.3091 0.0423 3.4175h-0.00006zm-89.576-1.9718h-1.2064v-1.1392c0-0.62653 0.22605-1.1392 0.50234-1.1392s0.81917 0.51262 1.2064 1.1392l0.70403 1.1392h-1.2064zm196.44 0c-0.31327 0-0.56958-0.25631-0.56958-0.56958 0-0.31326 0.25631-0.56957 0.56958-0.56957s0.56958 0.25631 0.56958 0.56957c0 0.31327-0.25631 0.56958-0.56958 0.56958zm-82.019-22.783c-0.31327 0-0.56958-0.25631-0.56958-0.56958 0-0.31326 0.25631-0.56957 0.56958-0.56957 0.31326 0 0.56957 0.25631 0.56957 0.56957 0 0.31327-0.25631 0.56958-0.56957 0.56958zm201.35-1.155c-0.4699-0.009-3.033-1.1312-5.6958-2.4944l-4.8414-2.4786v-1.5584-1.5584l5.6946 3.1984c3.132 1.7591 5.6951 3.5828 5.6958 4.0528 0.00064 0.4699-0.3833 0.84726-0.8532 0.83857zm-208.75-2.2625h-1.5189l0.75943-0.75944 0.75944-0.75942 0.75944 0.75942 0.75942 0.75944h-1.5189zm-80.31-1.1392c-0.31327 0-0.56958-0.25631-0.56958-0.56958 0-0.31326 0.25631-0.56957 0.56958-0.56957 0.31326 0 0.56957 0.25631 0.56957 0.56957 0 0.31327-0.25631 0.56958-0.56957 0.56958zm69.488-1.1392c-0.31326 0-0.56957-0.25631-0.56957-0.56958 0-0.31326 0.25631-0.56957 0.56957-0.56957 0.31327 0 0.56958 0.25631 0.56958 0.56957 0 0.31327-0.25631 0.56958-0.56958 0.56958zm207.04-1.1801c-0.4699-0.0226-4.6398-1.8167-9.2665-3.987l-8.4121-3.9461h-2.125-2.125v-1.0624-1.0624l-2.5631-0.71234c-1.4097-0.39179-4.6136-1.5076-7.1197-2.4796-2.5061-0.97197-5.7389-2.226-7.1839-2.7867l-2.6273-1.0195 0.67637-1.0944 0.67636-1.0944 8.2163 3.0011c4.519 1.6506 9.2274 3.6831 10.463 4.5167 1.2358 0.83358 2.9135 1.5156 3.7282 1.5156s5.3142 1.6089 9.9989 3.5754l8.5176 3.5754v1.5508c0 0.85293-0.38446 1.5324-0.85436 1.5099zm-274.25-1.0982c-0.31327 0-0.56958-0.25631-0.56958-0.56957 0-0.31327 0.25631-0.56958 0.56958-0.56958s0.56958 0.25631 0.56958 0.56958c0 0.31326-0.25631 0.56957-0.56958 0.56957zm47.844 0c-0.31327 0-0.56958-0.25631-0.56958-0.56957 0-0.31327 0.25631-0.56958 0.56958-0.56958 0.31326 0 0.56957 0.25631 0.56957 0.56958 0 0.31326-0.25631 0.56957-0.56957 0.56957zm5.1262 0h-1.5189l0.75942-0.75943 0.75944-0.75943 0.75944 0.75943 0.75943 0.75943h-1.5189zm-10.687-1.1392c-0.31327 0-0.88638-0.51262-1.2736-1.1392-0.38723-0.62653-0.44773-1.1392-0.13446-1.1392s0.88639 0.51262 1.2736 1.1392c0.38722 0.62653 0.44772 1.1392 0.13445 1.1392zm-40.005-1.1392c-0.31326 0-0.56957-0.25631-0.56957-0.56958 0-0.31326 0.25631-0.56957 0.56957-0.56957 0.31327 0 0.56958 0.25631 0.56958 0.56957 0 0.31327-0.25631 0.56958-0.56958 0.56958zm165.18-2.2783c-0.31327 0-0.56958-0.25631-0.56958-0.56958s0.25631-0.56958 0.56958-0.56958 0.56958 0.25631 0.56958 0.56958-0.25631 0.56958-0.56958 0.56958zm-1.1392-3.4175c-0.31327 0-0.56958-0.25631-0.56958-0.56958 0-0.31326 0.25631-0.56957 0.56958-0.56957 0.31326 0 0.56957 0.25631 0.56957 0.56957 0 0.31327-0.25631 0.56958-0.56957 0.56958zm59.236-1.1392c-0.31327 0-0.56958-0.25631-0.56958-0.56958s0.25631-0.56957 0.56958-0.56957c0.31326 0 0.56957 0.2563 0.56957 0.56957s-0.25631 0.56958-0.56957 0.56958zm-211.88-2.2783c-0.31326 0-0.56957-0.25631-0.56957-0.56957 0-0.31327 0.25631-0.56958 0.56957-0.56958 0.31327 0 0.56958 0.25631 0.56958 0.56958 0 0.31326-0.25631 0.56957-0.56958 0.56957zm2.2783-1.1392c-0.31327 0-0.56958-0.25631-0.56958-0.56958 0-0.31326 0.25631-0.56957 0.56958-0.56957s0.56958 0.25631 0.56958 0.56957c0 0.31327-0.25631 0.56958-0.56958 0.56958zm2.2783-2.2783c-0.31326 0-0.56957-0.25631-0.56957-0.56958s0.25631-0.56958 0.56957-0.56958c0.31327 0 0.56958 0.25631 0.56958 0.56958s-0.25631 0.56958-0.56958 0.56958zm2.2783 0c-0.31327 0-0.56958-0.25631-0.56958-0.56958s0.25631-0.56958 0.56958-0.56958c0.31326 0 0.56957 0.25631 0.56957 0.56958s-0.25631 0.56958-0.56957 0.56958zm4.0543-2.2783h-1.2064v-1.1392c0-0.62653 0.22605-1.1392 0.50234-1.1392s0.81917 0.51262 1.2064 1.1392l0.70403 1.1392h-1.2064zm7.3373-3.4174c-0.31327 0-0.56958-0.25631-0.56958-0.56958s0.25631-0.56958 0.56958-0.56958 0.56957 0.25631 0.56957 0.56958-0.2563 0.56958-0.56957 0.56958zm4.5566-2.2783c-0.31327 0-0.56958-0.25631-0.56958-0.56957 0-0.31327 0.25631-0.56958 0.56958-0.56958 0.31326 0 0.56957 0.25631 0.56957 0.56958 0 0.31326-0.25631 0.56957-0.56957 0.56957zm171.06-1.5189-0.75944 0.75942v-1.5189-1.5189l0.75944 0.75943 0.75942 0.75944-0.75942 0.75944zm-168.78-0.75944c-0.31327 0-0.56957-0.25631-0.56957-0.56958s0.2563-0.56957 0.56957-0.56957 0.56958 0.2563 0.56958 0.56957-0.25631 0.56958-0.56958 0.56958zm3.987 0c-0.62653 0-1.1392-0.51262-1.1392-1.1392 0-0.62654 0.51262-1.1392 1.1392-1.1392 0.62654 0 1.1392 0.51262 1.1392 1.1392 0 0.62653-0.51262 1.1392-1.1392 1.1392zm161.76 0h-1.5189l0.75942-0.75944 0.75944-0.75943 0.75944 0.75943 0.75943 0.75944h-1.5189zm-2.8479-1.1392c-0.31326 0-0.56957-0.25631-0.56957-0.56958s0.25631-0.56958 0.56957-0.56958c0.31327 0 0.56958 0.25631 0.56958 0.56958s-0.25631 0.56958-0.56958 0.56958zm-3.4174-1.174c-0.62654 0-1.9081-0.49692-2.8479-1.1043l-1.7087-1.1043h1.1392c0.62653 0 1.9081 0.49692 2.8479 1.1043l1.7087 1.1043h-1.1392zm-145.74-1.1043c-0.27629 0-0.79727-0.4772-1.1577-1.0604l-0.65539-1.0604 1.1577-0.71551 1.1577-0.71552v1.776c0 0.97678-0.22605 1.776-0.50234 1.776zm124.75 0h-0.90685l0.26866-2.5631c0.14777-1.4097 0.33407-3.0501 0.41404-3.6453l0.14538-1.0822 1.2523 1.2523 1.2523 1.2523-0.75949 2.393c-0.41773 1.3161-1.1676 2.393-1.6664 2.393zm14.445-0.0174c-0.15663-0.01-1.0537-0.51436-1.9935-1.1217l-1.7087-1.1043 1.9935-0.0174 1.9935-0.0174v1.1392c0 0.62653-0.12816 1.1313-0.28479 1.1217zm-108.3-2.0473-0.5983 1.4951-0.0899-2.1834-0.0899-2.1834 0.68824 0.68823 0.68823 0.68824-0.59831 1.4951zm102.32 0.92556c-0.31326 0-0.56957-0.25631-0.56957-0.56958 0-0.31326 0.25631-0.56957 0.56957-0.56957 0.31327 0 0.56958 0.25631 0.56958 0.56957 0 0.31327-0.25631 0.56958-0.56958 0.56958zm-127.57-1.5189h-1.6906l1.2606-1.5189c0.6933-0.83538 1.4541-1.5189 1.6906-1.5189 0.23655 0 0.4301 0.68349 0.4301 1.5189v1.5189h-1.6906zm125.29 0.37972c-0.31327 0-0.56958-0.25631-0.56958-0.56958s0.25631-0.56957 0.56958-0.56957 0.56957 0.2563 0.56957 0.56957-0.2563 0.56958-0.56957 0.56958zm-119.48-1.1392c-0.31327 0-0.88638-0.51262-1.2736-1.1392-0.38723-0.62653-0.44773-1.1392-0.13446-1.1392s0.88639 0.51262 1.2736 1.1392c0.38722 0.62654 0.44772 1.1392 0.13445 1.1392zm2.1438-1.1392c-0.31327 0-0.56957-0.25631-0.56957-0.56957 0-0.31327 0.2563-0.56958 0.56957-0.56958s0.56958 0.25631 0.56958 0.56958c0 0.31326-0.25631 0.56957-0.56958 0.56957zm2.4009 0c-0.17187 0-0.3125-0.74638-0.3125-1.6586v-1.6586l0.96788 0.59818 0.96787 0.59818-0.65539 1.0604c-0.36046 0.58325-0.796 1.0604-0.96786 1.0604zm105.32 0c-0.58956 0-1.3887-0.51262-1.776-1.1392l-0.70403-1.1392h1.776 1.776v1.1392c0 0.62653-0.48236 1.1392-1.0719 1.1392zm-99.743-1.1392c-0.31327 0-0.56958-0.25631-0.56958-0.56958 0-0.31326 0.25631-0.56957 0.56958-0.56957 0.31326 0 0.56957 0.25631 0.56957 0.56957 0 0.31327-0.25631 0.56958-0.56957 0.56958zm92.841 0c-0.62653 0-1.1392-0.22605-1.1392-0.50235 0-0.27629 0.51262-0.81916 1.1392-1.2064l1.1392-0.70403v1.2064 1.2064h-1.1392zm-89.993-1.1392c-0.62654 0-1.1392-0.51262-1.1392-1.1392 0-0.62654 0.51262-1.1392 1.1392-1.1392 0.62653 0 1.1392 0.51262 1.1392 1.1392 0 0.62653-0.51262 1.1392-1.1392 1.1392zm82.873-0.0174c-0.15663-0.01-1.0537-0.51437-1.9935-1.1217l-1.7087-1.1043 1.9935-0.0174 1.9935-0.0174v1.1392c0 0.62653-0.12815 1.1313-0.28479 1.1217zm4.2718 0.0174c-0.31326 0-0.56957-0.25631-0.56957-0.56958 0-0.31326 0.25631-0.56957 0.56957-0.56957 0.31327 0 0.56958 0.25631 0.56958 0.56957 0 0.31327-0.25631 0.56958-0.56958 0.56958zm-22.743-1.1392c-0.29123 0-1.072-1.0137-1.7351-2.2527l-1.2056-2.2527 1.7351 0.66582 1.7351 0.66582v1.5869c0 0.87276-0.23828 1.5868-0.5295 1.5868zm13.63 0c-0.31327 0-0.56958-0.25631-0.56958-0.56958s0.25631-0.56958 0.56958-0.56958c0.31326 0 0.56957 0.25631 0.56957 0.56958s-0.25631 0.56958-0.56957 0.56958zm23.922 0c-0.31327 0-0.56958-0.25631-0.56958-0.56958s0.25631-0.56958 0.56958-0.56958 0.56958 0.25631 0.56958 0.56958-0.25631 0.56958-0.56958 0.56958zm-63.52-2.034c-1.4097 0.25387-3.4602 0.27604-4.5566 0.04927s-1.9919-0.75919-1.9899-1.1831l0.003-0.77084 4.553-0.0555 4.553-0.0555v0.77707c0 0.42739-1.1534 0.98478-2.5631 1.2387l0.00019-0.000005zm8.9574-0.303-1.6348 1.3568-0.7432-1.2025-0.74319-1.2025 1.8301-0.70226c1.0065-0.38624 2.0766-0.45567 2.378-0.15428 0.30139 0.30139-0.18769 1.1585-1.0869 1.9048zm5.0153 0.86645h-3.3994l1.1629-1.4013 1.163-1.4013 2.2364 0.58484c1.23 0.32166 2.2364 0.95223 2.2364 1.4013v0.81644h-3.3994zm6.8168 0.19985h-2.8479l1.4239-0.57457 1.4239-0.57458 1.4239 0.57458 1.4239 0.57457h-2.8479zm11.392 0.17986h-4.5566v-0.88446-0.88447l4.5566 0.43454c2.5061 0.239 4.5566 0.63701 4.5566 0.88447s-2.0505 0.44992-4.5566 0.44992zm-44.619-1.4261-4.9337-0.01581 3.7512-1.1666 3.7512-1.1666 1.1824 1.1824 1.1824 1.1824-4.9337-0.01581zm16.71 0.28694c-0.31327 0-0.56958-0.25631-0.56958-0.56958s0.25631-0.56958 0.56958-0.56958 0.56958 0.25631 0.56958 0.56958-0.25631 0.56958-0.56958 0.56958zm61.704-1.5189-0.75944 0.75943v-1.5189-1.5189l0.75944 0.75943 0.75942 0.75944-0.75942 0.75944zm1.1392-3.4175-0.75944 0.75943v-1.5189-1.5189l0.75944 0.75943 0.75943 0.75944-0.75943 0.75944zm-184.73-4.1769c-0.31327 0-0.56958-0.25631-0.56958-0.56958s0.25631-0.56958 0.56958-0.56958c0.31326 0 0.56957 0.25631 0.56957 0.56958s-0.25631 0.56958-0.56957 0.56958zm0.13445-2.2783c-0.31327 0-0.88639-0.51262-1.2736-1.1392-0.38722-0.62653-0.44772-1.1392-0.13445-1.1392s0.88638 0.51262 1.2736 1.1392c0.38722 0.62653 0.44772 1.1392 0.13445 1.1392zm191.24-3.4175c-0.31327 0-0.56958-0.25631-0.56958-0.56958s0.25631-0.56958 0.56958-0.56958 0.56958 0.25631 0.56958 0.56958-0.25631 0.56958-0.56958 0.56958zm-33.74-2.903c-0.27536 0.27536-1.0174 0.14406-1.6489-0.29177-0.63153-0.43583-2.7943-3.3138-4.8062-6.3954l-3.658-5.603 0.58088-0.58088 0.58089-0.58088 3.1192 3.7651c1.7156 2.0708 2.8629 3.9027 2.5496 4.0708-0.31327 0.16811 0.40979 1.3878 1.6068 2.7105s1.9511 2.6302 1.6757 2.9055zm34.879 0.62453c-0.31327 0-0.56957-0.25631-0.56957-0.56958s0.2563-0.56958 0.56957-0.56958 0.56958 0.25631 0.56958 0.56958-0.25631 0.56958-0.56958 0.56958zm-197.08-2.279c-0.31327 0-0.56958-0.25631-0.56958-0.56958s0.25631-0.56958 0.56958-0.56958c0.31326 0 0.56957 0.25631 0.56957 0.56958s-0.25631 0.56958-0.56957 0.56958zm150.37-13.67c-0.31326 0-0.56957-0.25631-0.56957-0.56958s0.25631-0.56958 0.56957-0.56958c0.31327 0 0.56958 0.25631 0.56958 0.56958s-0.25631 0.56958-0.56958 0.56958zm115.25-1.1566c-0.10537-0.0096-0.89806-0.4649-1.7615-1.0118l-1.5699-0.99435 0.78275-1.2665c0.43051-0.69658 1.4587-1.2665 2.2848-1.2665 0.82611 0 2.0905 0.70906 2.8097 1.5757l1.3077 1.5757-1.831 0.70261c-1.007 0.38644-1.9172 0.69476-2.0226 0.68517zm-4.5204-3.4c-0.81449 0-2.096-0.61514-2.8479-1.367-0.75184-0.75184-1.367-1.7661-1.367-2.2539v-0.8869l2.8479 1.2976c1.5663 0.71367 2.8479 1.7279 2.8479 2.2539v0.9563h-1.4809zm-19.6-23.922c-0.31326 0-0.56957-0.25631-0.56957-0.56958s0.25631-0.56958 0.56957-0.56958c0.31327 0 0.56958 0.25631 0.56958 0.56958s-0.25631 0.56958-0.56958 0.56958z"/>
  <metadata>
    <rdf:RDF>
      <cc:Work>
        <dc:format>image/svg+xml</dc:format>
        <dc:type rdf:resource="http://purl.org/dc/dcmitype/StillImage"/>
        <cc:license rdf:resource="http://creativecommons.org/licenses/publicdomain/"/>
        <dc:publisher>
          <cc:Agent rdf:about="http://openclipart.org/">
            <dc:title>Openclipart</dc:title>
          </cc:Agent>
        </dc:publisher>
        <dc:title>Scratch That!</dc:title>
        <dc:date>2010-04-22T06:54:31</dc:date>
        <dc:description>These are some quick sketches and doodles I made in my notebook on a flight. These are mostly shit, but hey, lets see if useful!</dc:description>
        <dc:source>https://openclipart.org/detail/49807/scratch-that!-by-rejon</dc:source>
        <dc:creator>
          <cc:Agent>
            <dc:title>rejon</dc:title>
          </cc:Agent>
        </dc:creator>
        <dc:subject>
          <rdf:Bag>
            <rdf:li>black</rdf:li>
            <rdf:li>bw</rdf:li>
            <rdf:li>drawings</rdf:li>
            <rdf:li>fast</rdf:li>
            <rdf:li>rapid</rdf:li>
            <rdf:li>rejon</rdf:li>
            <rdf:li>sketch</rdf:li>
            <rdf:li>sketchbook</rdf:li>
            <rdf:li>unchecked</rdf:li>
            <rdf:li>white</rdf:li>
          </rdf:Bag>
        </dc:subject>
      </cc:Work>
      <cc:License rdf:about="http://creativecommons.org/licenses/publicdomain/">
        <cc:permits rdf:resource="http://creativecommons.org/ns#Reproduction"/>
        <cc:permits rdf:resource="http://creativecommons.org/ns#Distribution"/>
        <cc:permits rdf:resource="http://creativecommons.org/ns#DerivativeWorks"/>
      </cc:License>
    </rdf:RDF>
  </metadata>
</svg>
