<?xml version="1.0" encoding="iso-8859-1"?>
<!-- Generator: Adobe Illustrator 16.0.4, SVG Export Plug-In . SVG Version: 6.00 Build 0)  -->
<!DOCTYPE svg PUBLIC "-//W3C//DTD SVG 1.1//EN" "http://www.w3.org/Graphics/SVG/1.1/DTD/svg11.dtd">
<svg version="1.1" id="some_hat_xA0_Image_1_" xmlns="http://www.w3.org/2000/svg" xmlns:xlink="http://www.w3.org/1999/xlink"
	 x="0px" y="0px" width="167.04px" height="157.2px" viewBox="0 0 167.04 157.2" style="enable-background:new 0 0 167.04 157.2;"
	 xml:space="preserve">
<g>
	<path d="M155.685,47.916c-0.898,0.28-1.712,0.211-2.568,0.118c-0.403-0.044-0.8-0.095-1.188,0.018
		c-3.19,0.929-6.485,1.316-9.744,1.893c-0.429,0.076-0.926,0.327-1.24-0.052c-0.279-0.337,0.053-0.764,0.207-1.116
		c0.748-1.709,1.521-3.407,2.28-5.111c0.192-0.433,0.272-0.895-0.231-1.147c-0.469-0.235-0.973,0.023-1.116,0.417
		c-0.291,0.804-0.962,1.383-1.231,2.155c-1.357,3.884-2.224,7.899-3.044,11.922c-0.087,0.423-0.153,1.05,0.383,1.109
		c0.786,0.087,1.098,0.653,1.406,1.152c0.322,0.521,0.653,0.602,1.142,0.427c0.006-0.009,0.013-0.014,0.019-0.022
		c0.026-0.003,0.052-0.011,0.078-0.015c2.536-1.293,5.193-2.262,8.024-2.787c-0.681,0.292-1.335,0.691-2.045,0.856
		c-2.05,0.477-3.878,1.623-5.979,1.93c-0.019,0.009-0.037,0.017-0.055,0.026c-0.016,0.006-0.027,0.006-0.042,0.011
		c-1.093,1.629-2.716,0.923-4.218,1.087c0.139-0.727,1.464-0.733,0.875-1.416c-0.509-0.59-1.311,0.106-1.961,0.339
		c-0.1,0.035-0.175,0.161-0.243,0.257c-1.299,1.848-3.399,2.858-4.795,4.626c-0.641,0.812-1.2,0.627-1.52-0.39
		c-0.233-0.745-0.548-1.414-1.075-1.978c-0.537-0.574-0.67-1.211-0.528-1.987c0.129-0.711,0.301-1.398,0.527-2.084
		c0.257-0.774-0.03-2.156,1.548-1.186c0.078,0.048,0.238-0.063,0.35-0.042c1.415,0.268,3.01,0.187,4.183,0.963
		c1.193,0.79,1.551,0.327,2.098-0.575c1.556-2.562,1.69-5.622,2.945-8.286c-0.771-0.994-0.09-1.636,0.544-2.3
		c0.062-0.064,0.054-0.246,0.014-0.348c-0.244-0.622,0.093-1.017,0.436-1.495c0.371-0.517,0.825-1.333,0.07-1.742
		c-0.895-0.485-1.97-0.716-2.938,0.056c-0.812,0.646-1.663,1.229-2.408,1.969c-1.467,1.454-2.809,3.056-4.608,4.141
		c-0.224,0.135-0.466,0.453-0.722,0.153c-0.217-0.253,0.013-0.561,0.184-0.749c0.639-0.703,1.272-1.42,1.985-2.043
		c2.084-1.821,3.759-4.008,5.508-6.124c0.733-0.887,0.533-2.943-0.339-3.391c-0.985-0.505-1.829,0.321-2.323,0.966
		c-1.409,1.838-3.702,1.935-5.469,3.034c-0.253,0.158-0.63,0.163-0.874-0.148c-0.218-0.277-0.248-0.576-0.093-0.897
		c0.26-0.537,0.516-1.075,0.768-1.615c0.353-0.753,0.41-1.569-0.267-2.085c-0.761-0.581-0.441-0.951,0.012-1.429
		c0.574-0.604,1.249-0.981,2.1-1.015c0.436-0.017,0.848-0.069,1.268-0.277c2.103-1.044,3.893-2.887,6.526-2.61
		c0.11,0.011,0.241-0.042,0.342-0.102c0.763-0.446,1.57-0.825,1.299-1.993c-0.387-1.664-0.749-1.967-2.12-2.066
		c-1.376-0.1-2.247,0.74-3.154,1.485c-0.725,0.595-1.118,0.556-1.279-0.375c-0.17-0.987-0.433-1.859-1.226-2.599
		c-0.49-0.457-0.78-1.205-0.527-1.995c0.066-0.21,0.06-0.49-0.022-0.694c-0.692-1.727-1.398-3.449-2.122-5.164
		c-0.789-1.867-2.069-3.48-2.552-5.531c-0.346-1.466-1.592-2.552-2.444-3.797c-0.615-0.897-0.906-1.947-1.555-2.818
		c-0.248-0.333-0.5-0.493-0.888-0.471c-0.359,0.02-0.596,0.182-0.657,0.567c-0.038,0.24,0.076,0.659-0.389,0.551
		c-0.333-0.078-0.308-0.428-0.312-0.705c-0.019-1.238-0.116-1.273-1.282-0.821c-1.553,0.601-3.005,1.49-4.726,1.632
		c-0.645,0.053-0.902,0.604-1.064,1.163c-0.101,0.348-0.215,0.754,0.188,0.969c1.312,0.7,0.681,1.681,0.211,2.404
		c-0.955,1.472-1.412,3.122-1.833,4.758c-0.291,1.132-0.568,0.959-1.27,0.404c-0.707-0.561-1.098-1.453-2.078-1.745
		c-1.716-0.51-3.309-1.385-5.074-1.772c-0.421-0.092-0.912-0.242-1.189-0.536c-1.218-1.287-2.686-1.355-4.308-1.167
		c-0.837,0.097-1.794,0.396-2.616-0.36c0.376-0.237,0.676-0.428,0.976-0.618c-1.209-0.193-2.229,0.263-3.263,0.6
		c-0.623,0.203-1.474,0.245-1.693,0.975c-0.323,1.07-1.168,1.285-2.03,1.573c-0.415,0.139-0.813,0.31-1.138,0.638
		c-0.666,0.673-1.533,0.917-2.425,0.791c-1.124-0.159-2.131,0.1-3.148,0.502c-2.015,0.797-2.358,1.697-1.263,3.555
		c0.318,0.54,0.375,0.868-0.364,0.986c-1.774,0.286-3.514,0.72-5.178,1.396c-1.563,0.636-3.415,0.588-4.789,1.44
		c-2.455,1.523-5.302,2.139-7.711,3.704c-1.871,1.216-3.932,2.104-5.782,3.375c-2.811,1.931-5.232,4.26-7.622,6.679
		c-1.596,1.615-2.994,3.287-4.027,5.293c-0.382,0.741-0.877,1.408-1.521,1.979c-0.771,0.683-1.218,1.622-1.318,2.627
		c-0.234,2.345-0.968,4.583-1.43,6.876c-0.26,1.294-0.268,2.512-0.087,3.778c0.05,0.352,0.077,0.712,0.073,1.067
		c-0.029,2.75-0.983,5.403-0.841,8.175c0.026,0.508,0.028,1.1-0.199,1.524c-0.89,1.666-1.304,3.421-1.317,5.298
		c-0.003,0.426-0.043,0.98-0.488,1.152c-0.45,0.175-0.636-0.367-0.904-0.628c-0.673-0.656-1.214-1.574-2.375-1.255
		c-0.448,0.123-1.266,0.061-1.058,0.796c0.158,0.558,0.426,1.424,1.339,1.241c0.826-0.166,1.131,0.316,1.273,0.915
		c0.161,0.679,0.391,1.127,1.185,0.983c0.166-0.029,0.331,0.024,0.388,0.197c0.081,0.244-0.103,0.376-0.278,0.464
		c-0.212,0.105-0.441,0.208-0.673,0.237c-0.942,0.12-1.107,0.538-0.514,1.262c0.48,0.585,0.564,1.308,0.337,1.932
		c-0.611,1.68-0.659,3.58-1.979,4.998c-0.446,0.479-0.802,1.16-1.525,0.745c-0.623-0.357-1.34-0.855-0.753-1.823
		c0.228-0.376,0.354-0.812,0.167-1.263c-0.739-1.771-0.734-1.766,0.687-3.171c0.333-0.329,0.856-0.799,0.481-1.214
		c-0.75-0.832-0.53-1.657-0.154-2.441c0.709-1.476-0.83-1.682-1.32-2.458c-0.417-0.659-1.055-0.255-1.62-0.05
		c-0.928,0.336-1.223,1.385-1.938,1.819c-1.899,1.153-2.286,3.015-2.707,4.91c-0.077,0.345,0.079,0.911-0.111,1.133
		c0.019,0.776,0.141,1.551,0.083,2.329c-0.021,0.294-0.048,0.562-0.081,0.822c0.251,1.409,0.124,2.778-0.027,4.08
		c-0.135,1.169,0.093,1.63,0.937,2.201c0.803,0.545,1.838,0.692,2.555,1.442c-0.338,0.243-0.523,0.006-0.723-0.083
		c-0.776-0.349-1.644-0.541-2.242,0.114c-0.603,0.66-1.182,1.691-1.014,2.464c0.694,3.195,0.874,6.452,1.378,9.667
		c0.156,0.993,0.459,1.969,0.944,2.779c1.038,1.73,2.463,3.205,3.704,4.798c1.028,1.318,2.043,2.613,2.94,4.032
		c0.567,0.896,1.113,2.128,2.132,2.402c2.44,0.656,4.995,1.395,7.336-0.396c0.72-0.552,1.406-1.152,2.072-1.77
		c0.952-0.881,1.792-1.807,0.682-3.159c-0.205-0.249-0.11-0.566,0.16-0.729c0.353-0.211,0.48,0.137,0.642,0.345
		c0.193,0.249,0.327,0.562,0.562,0.757c1.502,1.247,1.514,1.254,0.807,2.956c0.613-0.034,1.329,0.202,1.703-0.307
		c0.671-0.913,1.489-0.639,2.333-0.544c1.721,0.194,3.319,1.13,5.142,0.764c1.227-0.247,2.096,0.239,2.591,1.468
		c0.233,0.58,0.248,0.854-0.421,0.821c-1.303-0.063-1.573,0.828-1.544,1.792c0.025,0.825-0.334,1.447-0.649,2.129
		c-0.529,1.146-1.958,2.281-0.094,3.5c0.037,0.024,0.015,0.153,0.006,0.231c-0.156,1.453-0.586,2.843-1.563,3.921
		c-1.063,1.173-0.757,3.143,0.76,3.651c-0.329,0.775-1.247,1.686-0.007,2.319c0.995,0.508,1.042-0.584,1.331-1.255
		c0.513,0.932,0.941,0.785,1.188-0.009c0.391-1.256,1.299-2.213,1.862-3.373c-0.508,2.231-0.846,4.53-2.597,6.282
		c-0.356-0.364-0.155-0.639-0.147-0.901c0.007-0.198,0.057-0.42-0.176-0.512c-0.214-0.086-0.376,0.062-0.53,0.194
		c-0.67,0.573-0.807,2.723-0.225,3.369c0.272,0.303,0.56,0.281,0.848,0.068c0.354-0.261,0.684-0.552,0.871-0.972
		c0.936-2.102,1.877-4.202,2.811-6.305c0.11-0.249,0.145-0.649,0.481-0.585c0.451,0.087,0.255,0.5,0.218,0.792
		c-0.025,0.196-0.069,0.407-0.167,0.573c-1.559,2.621-2.083,5.753-4.044,8.175c-0.1,0.123-0.188,0.262-0.253,0.405
		c-0.111,0.246-0.077,0.488,0.172,0.619c0.261,0.136,0.496,0.016,0.57-0.247c0.476-1.673,1.755-2.928,2.316-4.573
		c0.399-1.171,1.086-2.244,1.691-3.454c0.531,0.579-1.067,2.252,1.076,1.688c-0.693,1.738-1.298,3.413-2.035,5.027
		c-0.3,0.655-0.688,1.349-1.424,1.689c-0.082,1.089-0.686,2.005-1.022,3.01c-0.313,0.934-0.868,1.611-2,1.747
		c-0.588,0.071-1.391,0.289-1.618,0.908c-0.646,1.761-2.461,2.271-3.722,3.149c-1.26,0.878-2.513,2.222-4.332,2.313
		c-0.629,0.031-0.995,0.656-0.923,1.341c0.082,0.781,0.658,0.662,1.246,0.723c0.823,0.085,1.523-0.145,2.143-0.564
		c0.718-0.488,1.403-0.853,2.311-0.67c0.312,0.062,0.873,0.044,0.688-0.495c-0.225-0.655,0.213-0.883,0.556-1.172
		c0.758-0.636,1.573-1.205,2.32-1.853c1.734-1.503,3.708-2.678,5.455-4.187c1.621-1.399,3.798-2.109,5.476-3.534
		c0.595-0.505,1.336-0.679,1.999-0.227c0.858,0.587,1.881,0.642,2.787,1.046c0.333,0.148,0.588,0.101,0.846-0.188
		c0.533-0.595,1.151-0.521,1.854-0.261c1.688,0.624,3.15,1.856,5.081,1.85c0.36-0.001,0.774,0.247,1.074,0.491
		c1.333,1.088,2.867,1.459,4.545,1.386l-0.007,0.021c0.269-0.795,0.778-1.1,1.562-0.703c2.788,1.412,5.844,1.951,8.863,2.347
		c3.172,0.415,6.458,1.07,9.498-0.888c1.501-0.967,3.019-1.82,3.471-3.714c0.076-0.321,0.109-1.02-0.169-0.881
		c-0.679,0.341-1.521-0.068-1.983,0.341c-1.186,1.05-2.678,1.377-4.031,2.026c-0.498,0.239-0.993,0.817-1.442,0.772
		c-2.25-0.225-4.536,0.51-6.675-0.304c-0.405,0.322,0.815,0.982-0.265,1.024c-1.687,0.065-3.19-0.702-4.899-1.106
		c0.892-0.786,1.825,0.085,2.869-0.435c-2.079-0.417-3.863-0.767-5.644-1.135c-1.521-0.315-3.044-0.633-4.558-0.982
		c-2.21-0.51-4.314-1.371-6.482-2.012c-1.635-0.483-3.48-1.783-4.873,0.514c-0.04,0.066-0.102,0.129-0.169,0.166
		c-0.465,0.259-0.871,0.085-1.182-0.254c-0.368-0.401,0.046-0.629,0.275-0.885c0.239-0.267,0.468-0.509,0.844-0.63
		c1.208-0.385,1.877-1.258,2.122-2.488c0.053-0.268,0.127-0.572,0.298-0.768c1.333-1.526,2.078-3.28,2.167-5.312
		c0.026-0.602,0.298-0.814,0.847-0.435c0.646,0.447,1.154,0.882,0.399,1.715c-0.225,0.248-0.683,0.736-0.252,1.145
		c0.94,0.89,1.13,1.616-0.307,2.101c0.248,0.587,0.877,0.291,1.139,0.689c0.99,1.502,2.777,1.451,4.195,2.111
		c0.524,0.244,0.993-0.132,1.329-0.576c0.442-0.585-0.604-0.504-0.428-1.055c1.024,0.505,1.974-0.29,3.023-0.073
		c3.642,0.756,7.304,0.556,10.956,0.043c0.727-0.103,1.42-0.344,1.371-1.3h-0.03c0.01-0.007,0.021-0.013,0.031-0.02v-0.009
		c-1.231-0.238-2.297,0.483-3.483,0.604c-2.882,0.294-5.735,0.045-8.587-0.222c-1.101-0.103-2.24-0.064-3.306-0.471
		c-0.099-0.038-0.266-0.033-0.341,0.027c-0.925,0.739-1.038,0.756-2.151,0.203c0.348-0.463,0.836-0.068,1.22-0.239
		c0.24-0.36-0.387-0.321-0.271-0.702c1.899-0.409,3.804-0.024,5.701,0.354c0.832,0.165,1.642,0.384,2.439-0.093
		c0.068-0.04,0.167-0.109,0.217-0.088c1.548,0.672,2.696-0.735,4.104-0.784c0.435-0.015,0.967-0.377,1.069,0.461
		c0.059,0.478,0.484,0.342,0.769,0.252c3.351-1.065,6.859-1.772,9.628-4.178c0.181-0.156,0.328-0.398,0.596-0.294
		c0.294,0.115,0.342,0.42,0.391,0.697c0.111,0.634-0.27,1.077-0.656,1.47c-1.197,1.215-2.66,1.965-4.408,2.22
		c0.813-0.817,2.103-1.062,2.673-2.233c-1.921,0.916-3.825,1.842-5.602,3.025c0,0.007-0.001,0.013-0.001,0.02
		c0.859,0.002,1.723,0.002,2.75,0.002c-0.659,0.777-1.282,1.039-2.036,1.065c-0.302,0.01-0.713,0.045-0.753,0.43
		c-0.039,0.378,0.406,0.274,0.611,0.42c0.743,0.528,1.429,0.051,2.134-0.085c0.757-1.558,2.181-2.315,3.647-3.015
		c0.532-0.254,0.833-1.212,1.556-0.759c0.534,0.335,0.552,1.117,0.687,1.742c0.051,0.233,0.034,0.49,0.123,0.706
		c0.301,0.732,0.29,1.79,0.976,2.128c1.534,0.757,2.687,1.875,3.758,3.14c0.373,0.441,0.68,1.043,1.453,0.546
		c0.258-0.166,0.537,0.059,0.646,0.359c0.482,1.331,1.432,2.383,2.122,3.587c0.382,0.665,0.896,0.879,1.47,0.479
		c0.672-0.466,0.255-1-0.182-1.384c-0.924-0.812-1.954-1.532-2.099-2.901c0.031-0.011,0.124-0.079,0.179-0.056
		c3.424,1.454,7.185,2.34,9.54,5.606c0.161,0.223,0.374,0.272,0.61,0.32c0.689,0.141,0.835,0.518,0.513,1.132
		c-0.346,0.66-0.146,1.285,0.508,1.474c0.928,0.267,1.895,0.009,2.655-0.565c0.661-0.497,0.728-1.103-0.183-1.538
		c-0.312-0.148-0.639-0.382-0.822-0.665c-2.232-3.441-5.806-4.667-9.456-5.787c-1.914-0.587-4.217-0.269-5.508-2.352
		c-0.169-0.273-0.549-0.267-0.881-0.276c-1.139-0.03-1.958-0.627-2.733-1.427c-1.875-1.932-2.241-4.46-2.736-6.897
		c-0.32-1.575-0.134-3.217,0.545-4.793c-0.517,2.111,1.295,3.714,1.119,5.765c-0.059,0.679,0.165,1.413,0.151,2.135
		c-0.006,0.333,0.118,0.696,0.553,0.574c0.366-0.103,0.247-0.419,0.151-0.697c-0.366-1.072-0.38-2.211-0.355-3.304
		c0.069-2.984,0.735-5.884,1.456-8.775c0.143-0.571,1.207-1.648-0.438-1.933c-0.021-0.003-0.022-0.145-0.027-0.222
		c-0.035-0.595,0.484-1.106,1.129-1.136c0.103-0.005,0.252-0.066,0.292-0.146c0.426-0.829,1.24-1.329,1.745-2.087
		c0.158-0.237,0.353-0.611,0.127-0.767c-0.976-0.677-0.163-1.186,0.154-1.667c0.296-0.449,0.508-0.893,0.573-1.419
		c0.07-0.562,0.197-1.204-0.72-0.701c-0.343,0.188-0.24-0.007-0.306-0.195c-0.343-0.979,0.17-1.555,0.957-1.907
		c1.431-0.639,2.355-1.713,2.945-3.121c-0.948,0.465-1.552,1.534-2.793,1.526c-0.287-0.001-0.645,0.345-0.851,0.619
		c-0.665,0.89-1.429,1.728-1.722,2.848c-0.104,0.396-0.229,0.794-0.894,0.912c0.497-1.069,0.922-1.964,1.329-2.865
		c0.209-0.463,0.473-0.912-0.463-0.854c-0.652,0.041-1.319-0.15-1.979-0.243c-0.275-0.038-0.705-0.11-0.482-0.458
		c0.378-0.591,0.604-1.389,1.432-1.565c0.407,0.486-0.552,1.252,0.331,1.479c0.785,0.201,1.691,0.443,2.383-0.228
		c0.593-0.575,1.288-0.913,2.011-1.263c1.427-0.69,2.938-1.155,4.291-2.072c1.702-1.154,3.594-2.027,5.157-3.407
		c0.224-0.197,0.543-0.413,0.871-0.188c0.263,0.18,0.241,0.502,0.194,0.771c-0.136,0.792-0.03,1.584,0.458,2.174
		c1.714,2.07,2.566,4.646,4.315,6.759c1.636,1.977,3.052,4.304,3.418,7.132c0.285,2.206,0.862,4.437,1.8,6.516
		c0.154,0.342,0.331,0.757,0.755,0.527c0.504-0.272,0.594-0.868,0.531-1.379c-0.064-0.536,0.472-1.355-0.323-1.567
		c-0.908-0.242-0.451-0.669-0.296-1.045c0.245-0.594,0.499-1.119,0.236-1.821c-0.424-1.134-0.621-2.288,0.446-3.271
		c0.395-0.363,0.277-0.883,0.164-1.362c-0.157-0.666-0.454-1.518,0.03-1.965c1.081-0.999,0.868-2.2,0.897-3.402
		c0.008-0.314,0.062-0.644,0.175-0.935c0.507-1.311,1.266-2.567,1.518-3.922c0.494-2.655,1.117-5.28,1.717-7.908
		c0.583-2.555,1.416-5.036,2.542-7.419c1.118-2.364,2.499-4.527,4.379-6.362c0.303-0.296,0.738-0.677,0.376-1.131
		c-0.719-0.902-0.868-2.005-1.283-3.006c-0.396-0.958-0.299-1.382,0.403-2.01c0.535-0.479,1.424-1.169,1.166-1.776
		c-0.363-0.854,0.063-1.231,0.483-1.577c0.761-0.627,0.542-1.455,0.775-2.175c0.161-0.5,1.472-0.673,1.742-1.544
		c0.23-0.742,0.528-1.44,0.822-2.149c0.231-0.561,0.998-1.464-0.66-2.077c1.395,0.021,1.653-0.692,1.843-1.392
		c0.449-1.654,1.398-3.089,1.909-4.738c0.864-2.787,3.042-5.046,3.011-8.263C159.326,49.416,157.548,47.335,155.685,47.916z
		 M140.504,53.948c-0.652,0.41-0.84,0.084-0.77-0.57c0.148-1.382,0.797-1.959,2.192-2.072c0.94-0.076,1.872-0.274,2.808-0.418
		l0.129,0.237C143.412,52.068,141.969,53.026,140.504,53.948z M137.538,28.017c0.477,0.113,1.138-0.169,1.162,0.552
		c0.019,0.532-0.501,0.673-0.947,0.665c-0.536-0.01-1.154-0.228-1.18-0.77C136.542,27.807,137.251,28.214,137.538,28.017z
		 M103.566,147.587c-1.323,0.45-2.573,1.251-4.086,0.82C99.969,147.862,102.042,147.404,103.566,147.587z M141.591,62.496
		c0.021-0.085,0.279-0.197,0.383-0.162c0.579,0.195,0.592,0.638,0.412,1.283C141.907,63.282,141.447,63.085,141.591,62.496z
		 M126.564,21.76c0.447-1.784,0.402-3.583,0.229-5.504c0.671,0.302,0.946,0.741,1.13,1.291c1.173,3.517,2.676,6.897,4.247,10.25
		c0.286,0.611,0.503,1.255,0.746,1.887c0.314,0.818-0.481,1.093-0.802,1.596c-0.169,0.266-0.341,0.161-0.562-0.046
		c-0.464-0.434-0.67-0.874-0.313-1.462c0.23-0.378,0.325-0.733-0.134-1.032c-0.082-0.054-0.175-0.258-0.145-0.294
		c1.047-1.253-0.789-1.638-0.769-2.574c-1.517-0.126-1.395-0.823-0.834-1.942c0.254-0.506-1.316-1.634-1.94-1.377
		C126.436,22.955,126.421,22.327,126.564,21.76z M125.712,28.024c1.136,1.532,1.279,3.148,1.612,4.763
		c0.247,1.197-0.068,2.018-0.617,2.921c-0.131,0.216-0.255,0.419-0.538,0.366c-0.234-0.044-0.209-0.295-0.307-0.451
		C124.315,33.16,125.502,30.678,125.712,28.024z M126.789,69.956c-0.185-0.928-0.711-1.485-0.681-2.244
		c0.016-0.37,0.164-0.647,0.536-0.669c0.35-0.02,0.452,0.276,0.468,0.576C127.149,68.324,127.319,69.044,126.789,69.956z
		 M126.032,43.985c-0.106,0.384-0.436,0.425-0.751,0.433c-0.251,0.005-0.522-0.118-0.506-0.395c0.022-0.381,0.357-0.509,0.688-0.538
		C125.792,43.456,125.979,43.649,126.032,43.985z M125.097,36.836c-0.078,0.849-0.418,1.342-1.142,1.273
		c-1.256-0.119-0.959-1.397-1.332-2.123c-0.214-0.414,0.877-0.802,1.144-0.769C124.678,35.332,124.617,36.393,125.097,36.836z
		 M123.492,15.683c-0.02,0.291-0.119,0.535-0.419,0.48c-0.529-0.098-0.802-0.476-0.872-0.995c-0.033-0.238,0.119-0.418,0.332-0.394
		C123.072,14.835,123.322,15.239,123.492,15.683z M121.388,9.515c0.761-0.043,0.978,0.541,1.013,1.268
		c-0.307,0.57,0.092,1.545-0.854,1.848c-0.389,0.124-1.362-1.414-1.362-2.073C120.184,9.751,120.8,9.549,121.388,9.515z
		 M120.935,20.977c0.135-0.25,0.495-0.369,0.712-0.587c0.583-0.586,0.677-0.177,0.78,0.343c0.185,0.921,0.099,1.843-0.098,2.729
		c-0.419,1.894,0.194,3.836-0.315,5.936c-1.522-2.507-1.523-5.56-3.796-7.51C119.446,22.399,120.32,22.114,120.935,20.977z
		 M121.142,32.09c0.493,0.975,1.178,1.548,0.83,2.484C121.441,33.928,120.994,33.267,121.142,32.09z M121.026,31.215
		c-0.271,0.199-0.524,0.118-0.77-0.062c-0.785-0.578-0.777-1.538-1.103-2.333c-0.087-0.212,0.161-0.324,0.384-0.333
		c0.373-0.016,0.775,0.008,0.957,0.361c0.306,0.593,0.314,1.315,0.756,1.752C121.291,30.921,121.197,31.09,121.026,31.215z
		 M118.731,19.378c-0.333-0.037-0.633-0.167-0.624-0.577c0.005-0.187,0.043-0.518,0.265-0.429c0.345,0.138,0.739,0.295,0.914,0.681
		C119.217,19.391,118.961,19.404,118.731,19.378z M118.565,9.27c0.776,0.087,0.643,0.791,0.686,1.318
		c0.054,0.654-0.424,0.829-0.928,0.804c-0.714-0.036-0.726-0.601-0.721-1.107C117.678,9.678,117.931,9.199,118.565,9.27z
		 M112.836,17.019c1.132-2.131,1.479-4.545,2.419-6.747c0.132-0.311,0.157-0.799,0.625-0.741c0.362,0.045,0.347,0.485,0.451,0.777
		c0.147,0.414,0.304,0.824,0.441,1.241c0.444,1.348,0.441,1.354-0.996,1.411c-0.245,0.009-0.5-0.027-0.6,0.258
		c-0.099,0.281,0.089,0.518,0.301,0.575c0.46,0.125,0.847,1.69,1.448,0.092c0.12-0.319,0.582-0.323,0.839-0.075
		c0.39,0.375,0.816,0.689,1.304,1.032c-0.762-0.241-1.334-0.078-1.854,0.396c-0.225,0.204-0.412,0.085-0.63-0.069
		c-0.449-0.317-0.816-0.401-0.795,0.375c0.02,0.678-0.497,0.767-0.984,0.72c-0.816-0.078-0.819,0.239-0.662,0.918
		c0.229,0.989,0.911,1.57,1.615,2.155c0.452,0.376,0.921,0.723,1.31,1.364c-0.737,0-1.311-0.002-1.883,0.001
		c-0.478,0.002-0.773-0.23-0.804-0.702c-0.06-0.923-0.605-1.532-1.271-2.071C112.808,17.684,112.609,17.448,112.836,17.019z
		 M110.608,18.157c0.376-0.262,0.529-0.067,0.687,0.3c1.017,2.367,2.62,4.165,4.998,5.271c1.574,0.732,2.362,1.966,2.304,3.611
		c-0.297-1.125-1.512-1.418-2.012-2.384c-0.337-0.652-1.042-0.992-1.723-1.217c-0.602-0.198-1.115-0.509-1.445-1.006
		c-0.721-1.086-1.66-1.904-2.766-2.562C110.475,20.065,110.437,18.276,110.608,18.157z M114.427,27.891
		c-0.112-0.175,0.032-0.47,0.243-0.376c0.461,0.204,0.365,0.72,0.474,1.096c-0.03,0.289-0.062,0.751-0.344,0.632
		C114.236,29.003,114.705,28.322,114.427,27.891z M111.522,28.822c0.782,0.125,1.506,0.967,2.141,1.602
		c1.732,1.734,2.693,4.064,4.402,5.825c0.544,0.559,1.47,1.226,1.92,0.932c0.768-0.5-0.617-0.979-0.458-1.722
		c0.575,0.085,0.881,0.492,1.139,0.93c0.405,0.688,0.815,1.377,1.152,2.099c0.162,0.348,0.212,0.77,0.221,1.16
		c0.01,0.455-0.381,0.683-0.716,0.888c-0.367,0.225-0.592-0.08-0.808-0.31c-2.016-2.153-4.152-4.183-6.348-6.15
		c-0.324-0.29-0.64-0.483-0.058-0.877c0.243-0.164-0.459-1.735-0.794-1.824c-0.357-0.095-0.571,0.102-0.514,0.443
		c0.177,1.064-0.535,0.655-0.731,0.345c-0.606-0.958-1.785-1.323-2.28-2.403c-0.326-0.713-2.376-1.354-3.079-1.112
		c-0.54,0.186-0.669,0.69-0.754,1.144c-0.138,0.731-0.17,1.481-0.286,2.606c-0.919-1.573-2.524-1.957-3.304-3.275
		c-0.177-0.3-0.405-0.56-0.744-0.511c-0.914,0.131-1.717,0.184-2.597-0.406c-0.537-0.359-0.983,0.253-0.854,0.973
		c0.129,0.728,0.26,1.458,0.038,2.484c-0.52-1.184-0.471-2.167-0.516-3.138c-0.066-1.431-0.325-1.634-1.747-1.389
		c-0.233,0.04-0.501,0.178-0.646-0.088c-0.194-0.36,0.187-0.448,0.365-0.639c0.731-0.781,1.799-0.799,2.699-1.187
		c2.229-0.958,4.485-1.857,6.898-2.275c0.214-0.038,0.409-0.225,0.598-0.363c0.4-0.293,0.88-0.597,1.312-0.315
		c0.408,0.266,0.51,0.893,0.339,1.313c-0.587,1.439,0.19,2.371,0.979,3.423C109.286,28.069,110.181,28.608,111.522,28.822z
		 M101.545,80.283c0.176,0.496,0.611,0.257,0.919,0.14c0.818-0.311,1.649-0.597,2.376-1.115c0.17-0.121,0.407-0.363,0.629-0.128
		c0.196,0.209,0.038,0.452-0.108,0.642c-0.121,0.157-0.312,0.27-0.404,0.438c-0.174,0.316-0.788,0.685-0.363,0.96
		c0.42,0.271,0.729,1.06,1.502,0.636c0.45-0.248,0.952-0.4,1.426-0.607c0.253-0.111,0.5-0.316,0.727,0.027
		c0.19,0.288,0.273,0.539-0.054,0.833c-0.615,0.555-1.052,1.272-1.775,1.749c-0.774,0.51-1.396,1.308-2.095,1.825
		c-1.031,0.766-2.259,1.442-3.572,1.8c-0.256,0.07-0.486,0.062-0.593-0.219c-0.105-0.278,0.05-0.461,0.293-0.564
		c0.73-0.311,1.104-0.862,1.216-1.643c0.043-0.3,0.335-0.601-0.017-0.862c-0.293-0.219-0.634-0.108-0.912,0.04
		c-1.35,0.723-2.812,1.103-4.285,1.458c-0.682,0.164-1.315,0.32-1.771-0.478c-0.127-0.223-0.553-0.269-0.832-0.413
		c-0.408-0.21-0.9-0.16-0.654-1.041c0.173-0.619-0.525-1.567-1.269-1.922c-1.41-0.672-2.53-2.117-4.517-1.699
		c1.065-0.596,1.379-1.059-0.014-1.465c0.965-0.534,1.854-0.508,2.664-0.131c2.089,0.973,4.243,0.485,6.35,0.278
		c1.293-0.128,2.746-0.095,3.766-1.246c0.189-0.214,2.262,0.845,2.263,1.137c0.002,0.363-0.356,0.383-0.582,0.519
		C101.426,79.489,101.417,79.918,101.545,80.283z M109.063,68.398c-1.021-0.443-2.066-0.833-3.104-1.236
		c-0.287-0.111-0.637-0.098-0.982-0.809c1.532,1.045,3.047-0.074,4.318,0.671c1.332,0.78,2.572,1.733,3.78,2.7
		c0.639,0.511,1.425,0.827,1.892,1.607c0.316,0.53,1.118,0.805,0.272,1.549c-0.213,0.187,0.102,0.505,0.348,0.657
		c0.333,0.207,0.66,0.491,1.071,0.122c0.236-0.212,0.476-0.435,0.751-0.586c0.427-0.233,0.804-0.022,1.043,0.317
		c0.34,0.484-0.198,0.732-0.438,0.776c-1.271,0.233-0.823,0.858-0.138,1.643c-1.278-0.074-1.9-1.065-2.908-0.846
		c-0.225,0.049-0.498-0.06-0.697,0.025c-0.269,0.114-0.729,0.146-0.692,0.542c0.042,0.453,0.464,0.306,0.77,0.31
		c0.111,0.001,0.222,0.05,0.342,0.08c-0.521,0.734-0.557,0.773-1.074,0.293c-0.536-0.497-1.137-0.859-1.77-1.207
		c-0.629-0.346-0.946-0.927-1.318-1.57c-0.664-1.149-1.386-2.276-2.758-2.982c-1.614-0.831-3.27-1.24-5.218-1.51
		c2.091-1.388,3.65-0.072,5.287,0.554c0.182,0.069,0.329,0.222,0.504,0.315c0.604,0.323,0.881-0.147,1.151-0.524
		C109.862,68.779,109.403,68.546,109.063,68.398z M113.752,87.497c0.352-0.336,0.814-0.288,1.234-0.354
		c0.517-0.079,1.057-0.333,1.138-0.766c0.212-1.137,1.29-1.539,1.809-2.548c-0.123,2.45-2.511,5.299-4.279,5.249
		C114.689,88.183,114.689,88.183,113.752,87.497z M114.796,79.47c0.161-0.091,0.479-0.248,0.479-0.016
		c0.002,0.934,1.005,0.889,1.472,1.53c-1.058,0.176-1.529-0.487-2.052-1.032C114.525,79.774,114.588,79.588,114.796,79.47z
		 M115.481,77.706c0.943,0.562,1.887,1.124,2.83,1.685c-0.055,0.098-0.11,0.195-0.165,0.292
		C117.156,79.193,116.024,78.932,115.481,77.706z M106.463,88.144c-0.482,1.173-1.673,1.13-2.443,1.689
		C104.652,89.103,105.156,88.143,106.463,88.144z M80.331,38.252c-0.565-0.126-0.974-0.887-1.767-0.429
		c0.656-0.775,1.53-1.069,2.348-1.417c0.588-0.25,1.003,0.004,0.986,0.728c-0.017,0.691,0.111,1.275,0.691,1.804
		c0.5,0.457-0.724,2.732-1.431,2.756c-0.188,0.006-0.459,0.021-0.486-0.23c-0.064-0.608-0.265-1.183-0.245-1.825
		C80.441,39.222,81.989,38.621,80.331,38.252z M80.206,34.776c0.83-0.195,1.659-0.396,2.493-0.578
		c0.183-0.04,0.419-0.058,0.478,0.202c0.056,0.251-0.15,0.38-0.334,0.399C81.975,34.89,81.133,35.377,80.206,34.776z M80.048,32.193
		c-0.853,0.259-1.746,0.575-2.692,0.117c1.824-1.211,7.146-1.89,8.237-0.86C83.45,30.67,81.795,31.663,80.048,32.193z
		 M77.223,30.127c-0.228-0.104,0.015-0.238,0.151-0.292c0.842-0.326,1.685-0.648,2.486-0.956c-0.188,1.629-1.057,2.42-2.706,2.239
		C77.025,30.711,78.205,30.573,77.223,30.127z M70.198,32.771c-0.144,0.063-0.243,0.234-0.137,0.396
		c0.229,0.346,0.599-0.014,1.09,0.269c-1.082,0.28-1.727,1.115-2.839,1.093c1.073-1.052,1.073-1.052-0.361-1.502
		c2.564-0.924,4.881-1.759,7.251-2.612c0.042,0.594-0.646,0.418-0.607,0.887c0.169,0.316,0.472,0.126,0.724,0.135
		c0.228,0.007,0.456-0.19,0.833,0.125c-1.139,0.425-2.19,0.817-3.344,1.248c0.194-0.545,0.79-0.575,0.893-1.199
		C72.333,31.456,71.313,32.283,70.198,32.771z M65.552,33.09c7.078-3.77,14.546-6.298,22.603-6.97
		C80.332,27.495,72.791,29.801,65.552,33.09z M80.706,26.172c2.828-0.723,5.652-1.464,8.587-1.552
		C86.437,25.171,83.569,25.657,80.706,26.172z M84.769,38.223c0.108-0.301,0.229-0.659,0.661-0.5
		c1.374,0.501,2.884,0.667,4.067,1.647c0.763,0.631,1.447,0.216,2.052-0.262c0.68-0.539,0.062-0.815-0.271-1.211
		c-0.258-0.309-0.417-0.771-0.456-1.18c-0.07-0.752-0.582-1.162-0.992-1.7c-0.699-0.916-1.248-1.947-1.854-2.932
		c-0.133-0.215-0.201-0.477-0.025-0.674c0.383-0.43,0.369-0.759,0.013-1.247c-0.322-0.44-0.21-1.042,0.232-1.411
		c0.502-0.419,0.893,0.05,1.254,0.323c0.278,0.21,0.609,0.45,0.63,0.838c0.068,1.224,0.765,2.305,0.767,3.547
		c0.001,0.63,0.147,0.641,1.369,0.11c-0.065,0.304-0.132,0.564-0.178,0.828c-0.097,0.56,0.11,0.808,0.65,0.52
		c0.784-0.417,0.984-0.006,0.833,0.632c-0.146,0.618-0.061,1.173,0.088,1.755c0.184,0.719-0.241,1.244-0.501,1.872
		c-0.688,1.667-1.531,1.992-3.317,1.426c-1.64-0.52-3.062-1.568-4.789-1.807C84.708,38.76,84.679,38.47,84.769,38.223z
		 M92.996,56.398c0.188-0.1,0.44-0.076,0.459,0.184c0.031,0.418-0.084,0.852-0.57,0.905c-1.322,0.144-2.65,0.232-4.13,0.355
		C90.082,56.544,91.712,57.077,92.996,56.398z M93.207,74.327c-0.728-0.034-1.519-0.117-0.719-1.283
		c0.242-0.353-0.067-0.508-0.33-0.6c-0.299-0.104-0.616-0.155-0.927-0.222c-0.371-0.08-0.994-0.132-0.787-0.577
		c0.146-0.314,0.646-1.079,1.187-0.679c0.612,0.452,1.717,0.228,1.855,1.418c0.062,0.531,0.629,0.238,0.995,0.103
		c0.36-0.135,0.831-0.422,1.03,0.092c0.185,0.477-0.399,0.478-0.671,0.653c-0.253,0.164-0.76,0.139-0.709,0.522
		C94.236,74.531,93.776,74.375,93.207,74.327z M89.308,60.657c0.484-0.123,0.896,0.283,0.846,0.763
		c-0.062,0.59-0.298,1.188-1.283,1.144c-0.404-0.212-0.882-0.699-0.879-1.252C87.997,60.542,88.838,60.775,89.308,60.657z
		 M89.191,74.584c0.425-0.081,0.845-0.227,1.283,0.047c-1.224,0.068-2.003,1.131-3.146,1.312c-0.269,0.042-0.587,0.269-0.681-0.145
		c-0.075-0.333,0.298-0.37,0.496-0.343C88.013,75.576,88.447,74.726,89.191,74.584z M89.229,77.164
		c-0.891,0.554-1.846,0.681-3.395,0.417C86.945,76.426,88.068,76.759,89.229,77.164z M98.791,75.197
		c0.042-0.688,1.052-1.814,1.605-1.78c0.326,0.02,0.649,0.164,0.753,0.497c0.11,0.354-0.25,0.456-0.461,0.609
		C100.126,74.932,99.446,75.014,98.791,75.197z M100.716,64.976c0.372,0.673,1.125,0.476,1.621,0.924
		c-0.407,0.051-0.746,0.102-1.087,0.134c-0.63,0.059-0.558,0.646-0.649,1c-0.112,0.433,0.408,0.342,0.669,0.474
		c0.315,0.159,0.997-0.156,0.854,0.637c-0.122,0.681-0.658,0.525-1.037,0.454c-1.969-0.366-3.96-0.313-5.943-0.428
		c-1.16-0.066-2.289,0.383-3.719,0.08c0.735-0.133,1.216-0.22,1.845-0.334c-0.668-0.792-0.853-1.68-1.059-2.551
		c-0.359-1.52-0.361-1.534,0.45-2.978c0.269-0.479,0.492-0.853-0.228-1.092c-0.188-0.062-0.389-0.172-0.354-0.417
		c0.034-0.246,0.259-0.25,0.452-0.295c2.449-0.577,6.766,1.102,8.067,3.198c0.431,0.692,1.265,0.346,1.827,0.88
		C101.859,64.895,101.26,64.575,100.716,64.976z M99.112,55.109c-1.582-2.238-4.238-3.261-5.886-5.42
		c-0.168-0.22-0.649-0.406-0.298-0.762c0.275-0.279,0.548,0.099,0.688,0.261c1.095,1.27,2.735,1.682,4.001,2.61
		c0.88,0.646,1.225,2.021,1.808,3.069C99.321,54.948,99.216,55.029,99.112,55.109z M94.061,24.15
		c1.309-1.305,1.698-1.433,2.849-0.729C95.669,23.114,95.089,24.194,94.061,24.15z M89.089,17.843
		c1.51-1.281,3.589-1.551,5.089-2.87c0.338-0.296,0.808-0.521,1.326-0.469c0.27,0.027,0.613,0.112,0.677-0.275
		c0.042-0.253-0.217-0.401-0.4-0.555c-1.219-1.019-2.437-0.675-2.906,0.814c-0.164,0.522-0.554,0.791-1.09,0.716
		c-0.387-0.053-0.757-0.221-1.136-0.334c-0.37-0.111-0.751,0.296-1.205-0.064c0.536-0.532,1.197-0.8,1.833-1.059
		c0.563-0.229,1.116-0.486,1.553-0.88c0.993-0.897,1.863-1.146,2.779,0.112c0.557,0.764,0.899,0.138,1.245-0.307
		c0.396-0.512,0.919-0.885,1.543-0.492c0.668,0.422,0.516,1.09,0.272,1.721c-0.135,0.348-0.354,0.499-0.743,0.407
		c-0.319-0.076-0.679-0.377-0.953,0.047c-0.053,0.081,0.037,0.326,0.134,0.419c0.297,0.285,0.824,0.592,1.06,0.354
		c0.729-0.735,1.23-0.471,1.898,0.074c0.462,0.377,1.083,0.035,1.626-0.046c2.266-0.339,4.254,0.602,6.307,1.291
		c-0.86,0.606-1.678,0.101-2.411-0.15c-1.684-0.578-3.395-1.062-4.887,0.157c-1.105,0.903-2.715,0.993-3.507,2.326
		c-0.15,0.253-0.423,0.466-0.703,0.316c-1.375-0.732-2.268,0.332-3.308,0.847c-0.467,0.231-0.932,0.987-1.35-0.081
		c-0.152-0.389-0.624-0.488-0.928-0.292c-1.182,0.764-1.597-0.527-2.293-0.898C88.157,18.429,88.812,18.079,89.089,17.843z
		 M85.189,15.55c0.256-0.079,0.545-0.23,0.797-0.015c0.2,0.172,0.027,0.359-0.045,0.536c-0.143,0.347-0.402,0.472-0.766,0.422
		c-0.353-0.048-0.699-0.104-1.024-0.418C84.463,15.639,84.856,15.654,85.189,15.55z M87.706,21.137
		c-1.687,0.619-3.448,0.856-5.256,0.808C84.195,21.663,85.87,20.981,87.706,21.137z M81.359,21.057
		c-0.782,0.333-1.541,0.674-2.409,0.642C79.729,21.384,80.447,20.877,81.359,21.057z M72.654,24.564
		c0.33-1.065,0.948-1.184,1.753-1.337c0.297-0.056,0.657-0.318,0.854,0.064c0.241,0.468-0.246,0.587-0.511,0.792
		c-0.185,0.143-0.442,0.205-0.587,0.844c3.954-0.841,7.689-2.065,11.608-2.333c-0.541,0.118-1.08,0.312-1.626,0.338
		c-1.718,0.083-3.01,1.437-4.718,1.532c-0.427,0.023-0.512,0.437-0.71,0.731c-0.537,0.8-1.58,0.98-2.343,0.413
		c-0.516-0.384-1.063-0.55-1.679-0.338c-1.011,0.349-2.097,0.467-3.028,1.068c-0.398,0.258-0.89,0.316-1.438,0.121
		C71.192,25.982,72.367,25.492,72.654,24.564z M67.247,30.725c-0.701,0.529-1.477,0.886-2.341,1.046
		C65.573,31.167,66.413,30.953,67.247,30.725z M71.143,34.467c0.001-0.006,0.005-0.01,0.006-0.017c0.013,0,0.026-0.001,0.039,0
		c1.066-0.286,1.944-1.16,3.166-0.956c-1.012,0.455-1.995,1.003-3.166,0.956c-0.009,0.002-0.018,0.006-0.027,0.009
		C71.155,34.462,71.148,34.464,71.143,34.467c-0.206,0.775-0.969,0.705-1.505,0.973c-1.207,0.604-2.421,1.193-3.625,1.803
		c-0.317,0.16-0.604,0.389-1.16,0.104C66.924,36.14,69.106,35.453,71.143,34.467z M74.928,34.437
		c-3.287,1.386-6.313,3.318-9.772,4.416C66.573,37.622,73.664,34.311,74.928,34.437z M65.755,39.831
		c3.204-1.955,6.665-3.342,10.2-4.558c0.251-0.086,0.58-0.286,0.7,0.115c0.1,0.333-0.211,0.473-0.479,0.577
		c-2.002,0.779-4.004,1.56-6.009,2.332c-0.783,0.302-1.43,0.703-2.047,1.347c-1,1.042-2.563,1.039-3.817,1.665
		c-0.055-0.1-0.11-0.201-0.165-0.301C64.675,40.613,65.187,40.177,65.755,39.831z M45.701,52.059
		c0.849-0.28,1.042-1.047,1.465-1.652c0.022-0.032,0.06-0.095,0.051-0.103c-1.24-1.167,0.477-1.009,0.685-1.526
		c0.136-0.338,0.748-0.633,0.341-0.996c-0.333-0.297-0.571,0.266-0.824,0.475c-0.523,0.432-1.002,0.917-1.535,1.336
		c-0.166,0.13-0.47,0.205-0.666,0.148c-0.315-0.091-0.168-0.388-0.109-0.609c0.096-0.359,0.038-0.697-0.028-1.06
		c-0.142-0.78,0.013-1.35,0.964-1.588c0.793-0.199,1.394-0.802,1.798-1.557c-0.471-0.318-0.719,0.129-1.131,0.07
		c1.342-0.783,0.991-3.435,3.457-2.973c0.588-1.293,1.795-1.971,2.838-2.797c0.55-0.436,1.135-0.751,0.906-1.618
		c-0.083-0.314,0.08-0.707,0.384-0.819c1.208-0.446,1.797-1.623,2.782-2.292c1.173-0.798,1.581-2.205,2.671-3.022
		c0.524-0.394,0.942-1.425,1.814-0.282c0.271,0.355,0.951-0.092,1.781-0.158c-0.81,0.526-1.338,0.86-1.854,1.212
		c-0.203,0.138-0.38,0.337-0.23,0.602c0.145,0.255,0.411,0.224,0.639,0.142c0.593-0.215,1.178-0.453,1.837-0.546
		c-0.868,0.49-1.752,0.954-2.596,1.482c-0.341,0.213-0.959,0.446-0.724,0.943c0.278,0.589,0.818,0.2,1.261,0.05
		c0.204-0.069,0.381-0.321,0.729-0.09c-0.824,0.645-1.945,0.783-2.645,1.698c0.675,0.461,1.245-0.054,1.869,0.004
		c-3.019,1.759-6.26,3.079-9.18,4.983c-0.49,0.381-0.98,0.763-1.47,1.144c-0.456,0.562-0.921,1.129-1.602,1.961
		c2.453-0.682,3.994-2.207,5.583-3.481c1.729-1.386,3.834-1.656,5.78-2.801c-0.075,0.632-0.538,0.703-0.764,0.966
		c-0.367,0.427-1.371,0.562-0.695,1.508c0.056,0.078-0.23,0.512-0.443,0.649c-1.459,0.942-2.483,2.442-4.114,3.164
		c-1.506,0.667-2.546,1.937-3.613,3.098c-0.479,0.52-1.057,0.786-1.556,1.207c-1.599,1.351-2.603,3.207-3.938,4.835
		c0.772-0.658,1.586-1.273,2.308-1.982c2.249-2.207,4.631-4.249,7.216-6.054c0.421-0.294,0.775-0.685,1.17-1.019
		c0.399-0.337,0.679-1.175,1.375-0.294c0.18,0.229,0.414-0.063,0.619-0.172c1.172-0.622,2.352-1.227,3.593-1.752
		c-3.271,2.037-5.412,5.417-8.864,7.244c0.31-0.697,0.948-1.075,1.556-1.463c0.369-0.235,0.944-0.404,0.658-0.936
		c-0.321-0.597-0.758-0.071-1.113,0.102c-0.766,0.371-1.425,0.905-1.957,1.557c-0.28,0.344-1.224,0.785,0.017,1.221
		c0.41,0.144,0.012,0.512-0.153,0.647c-1.444,1.189-2.822,2.496-4.407,3.461c-0.807,0.491-2.016,0.282-2.806,1.085
		c-0.122,0.124-0.265-0.047-0.351-0.201C43.901,54.177,44.528,52.445,45.701,52.059z M60.705,41.593
		c-0.766,0.579-1.532,1.159-2.367,1.79C58.405,42.751,58.405,42.751,60.705,41.593z M39.817,84.967
		c0.83-1.026,1.315-2.287,2.236-3.252c0.223-0.233,0.415-0.547,0.206-0.865c-0.221-0.337-0.56-0.187-0.87-0.097
		c-1.043,0.302-1.655-0.181-1.561-1.346c0.215-2.655,0.004-5.38,1.029-7.918c0.936-2.317,1.538-4.759,2.653-7.005
		c0.025-0.05,0.115-0.068,0.185-0.095c-0.002-0.013-0.002-0.026-0.005-0.04c0.016-0.007,0.029-0.018,0.045-0.025
		c0.619-2.121,1.197-4.26,2.524-6.083c0.197-0.271,0.365-0.782,0.764-0.629c0.449,0.171,0.316,0.714,0.221,1.063
		c-0.375,1.361-1.492,2.386-1.851,3.725c-0.266,0.993-0.828,1.53-1.658,1.924c-0.006,0.019-0.011,0.038-0.017,0.056
		c-0.007,0.003-0.016,0.005-0.023,0.008c0.126,0.627,0.052,1.223-0.137,1.843c-0.871,2.857-1.821,5.692-2.453,8.617
		c-0.182,0.844-0.371,1.752,1.017,1.815c-0.396,0.616-0.683,1.089-0.996,1.545c-0.498,0.726-0.219,1.32,0.369,1.77
		c0.632,0.484,1.128,0.102,1.513-0.428c1.755-2.415,4.13-4.197,6.326-6.155c0.956-0.852,2.293-0.896,3.488-1.103
		c1.837-0.32,3.331-1.245,4.801-2.277c0.362-0.254,0.563-0.568,0.451-1.017c-0.105-0.42-0.475-0.495-0.822-0.599
		c-1.69-0.504-3.314,0.136-4.964,0.293c-3.338,0.317-5.104,2.887-7.145,5.048c-0.779,0.824-1.55,1.65-2.577,2.461
		c1.575-4.396,4.293-7.701,7.515-10.742c2.249-2.123,4.753-4.042,6.592-6.539c1.189-1.615,1.937-3.56,2.843-5.376
		c0.885-1.777,1.621-3.616,2.187-5.525c0.118-0.396,0.486-0.721,0.748-1.072c0.418-0.561,0.979-1.025,0.517-1.896
		c-0.144-0.271,0.194-0.815,0.349-1.22c0.129-0.336,0.461-0.491,0.775-0.47c0.544,0.036,0.065,0.435,0.172,0.651
		c0.171,0.347,0.297,0.715,0.442,1.074c0.544,0.08,0.744-0.591,1.388-0.58c-0.075,0.711-0.673,0.904-1.092,1.237
		c-0.094,0.075-0.192,0.146-0.275,0.232c-0.317,0.329-1.043,0.631-0.758,1.063c0.354,0.536,0.904-0.029,1.339-0.246
		c0.135-0.068,0.243-0.19,0.403-0.32c0.057,0.735-0.475,0.939-0.892,1.262c-0.331,0.255-0.782,0.461-0.774,0.985
		c0.001,0.077,0.156,0.221,0.229,0.214c0.474-0.045,0.745-0.413,1.062-0.71c1.041-0.975,2.159-1.839,3.736-2.62
		c-1.044,1.297-1.991,2.191-3.162,2.873c-1.004,0.585-2.089,1.358-2.483,2.34c-0.393,0.978-1.326,1.892-0.989,3.136
		c0.075,0.275-0.197,0.405-0.368,0.567c-0.464,0.438-0.925,0.878-1.384,1.322c-0.229,0.223-0.686,0.539-0.639,0.669
		c0.573,1.601-1.226,1.926-1.636,3.044c0.725,0.197,0.973-0.515,1.553-0.667c-0.17,0.794-0.802,1.146-1.375,1.322
		c-0.982,0.301-1.761,0.966-2.766,1.289c-1.013,0.325-2.064,1.222-2.683,2.251c-0.373,0.62-0.796,0.9-1.443,1.097
		c-0.772,0.235-1.405,0.738-1.873,1.417c-0.114,0.166-0.209,0.351-0.08,0.548c0.106,0.163,0.343,0.183,0.417,0.077
		c0.688-0.992,2.146-0.543,2.888-1.772c0.032,0.953,0.285,1.244,0.978,0.725c0.424-0.317,0.802-0.624,1.456-0.135
		c0.364,0.272,1.153,0.043,1.734-0.055c2.096-0.354,4.089-0.88,5.425-2.787c0.561-0.802,1.291-1.483,2.229-1.93
		c1.178-0.561,1.538-1.882,2.313-2.817c1.936-2.333,4.183-4.356,6.192-6.607c1.43-1.602,2.837-3.23,4.358-4.743
		c1.091-1.085,2.282-2.109,3.568-2.943c0.694-0.45,1.618,0.147,2.419,0.298c1.014,0.191,1.994,0.573,3.038,0.653
		c0.874,0.067,1.407,0.739,2.001,1.227c0.548,0.45,0.371,0.979-0.312,1.293c-0.479,0.22-1.199,0.368-0.56,1.156
		c0.037,0.046,0.027,0.207,0.001,0.217c-1.108,0.433-1.403,1.937-2.831,2.141c-0.019-0.709,0.568-0.846,0.895-1.174
		c0.284-0.285,0.646-0.633,0.302-1.018c-0.347-0.387-0.604,0.097-0.896,0.258c-2.429,1.336-4.252,3.458-6.507,5.007
		c-1.508,1.036-3.128,1.898-4.561,3.061c-0.768,0.624-1.21,1.47-1.776,2.22c-0.551,0.731,0.281,1.943,1.327,2.062
		c0.627,0.071,1.2-0.117,1.659-0.548c1.107-1.042,2.355-1.898,3.654-2.664c3.269-1.926,6.053-4.542,9.318-6.465
		c0.451-0.266,0.875-0.883,1.511-0.09c0.531,0.662,0.587,0.978-0.215,1.434c-2.802,1.593-5.358,3.581-8.237,5.064
		c-1.066,0.549-1.952,1.447-3.061,2.294c1.914,0.303,3.026-1.308,4.8-1.387c-0.351,0.535-0.748,0.749-1.155,0.904
		c-3.5,1.333-6.811,3.105-10.377,4.297c-5.525,1.846-10.403,4.944-15.256,8.096c-4.238,2.751-7.97,6.101-11.741,9.423
		c-1.75,1.541-3.597,2.974-5.341,4.734C39.229,85.671,39.541,85.309,39.817,84.967z M82.419,78.879
		c-0.555,0.412-1.008,0.628-1.544,0.22c-0.129-0.099-0.201-0.312-0.055-0.402C81.341,78.377,81.829,78.547,82.419,78.879z
		 M69.03,83.51c-0.342,0.185-0.628,0.347-0.921,0.494c-0.138,0.069-0.417,0.16-0.419,0.155c-0.673-1.676-2.331,0.272-3.195-1.174
		C66.108,81.637,67.468,83.495,69.03,83.51z M64.247,72.621c0.496-0.538,0.565-1.499,1.611-1.042
		c0.347,0.151,0.514,0.34,0.307,0.723C65.687,73.187,65.029,72.902,64.247,72.621z M67.985,81.916
		c-0.176,0.112-0.516,0.065-0.6-0.221c-0.096-0.323,0.209-0.4,0.424-0.454c0.502-0.125,1.013-0.278,1.525-0.299
		c2.797-0.112,5.369-1.102,7.972-1.981c0.216-0.073,0.443-0.111,0.666-0.166c-2.004,1.505-4.473,1.751-6.726,2.598
		C70.229,81.774,69.011,81.261,67.985,81.916z M70.441,71.519c0.113-0.529,0.584-0.606,1.006-0.687
		c0.281-0.053,0.495,0.133,0.396,0.42c-0.166,0.481-0.704,0.444-0.958,0.669C70.543,71.885,70.393,71.746,70.441,71.519z
		 M74.067,75.164c0.952-0.63,1.907-0.941,2.562-1.727c0.372-0.446,0.614-0.1,0.684,0.309c0.139,0.817-0.226,1.415-1.002,1.586
		C75.641,75.482,74.915,75.551,74.067,75.164z M77.938,69.7c-0.844,0.211-1.692,0.409-2.315,0.558
		c-0.476,0.036-0.724,0.042-0.854-0.213c-0.168-0.328,0.011-0.57,0.292-0.654c0.476-0.142,0.387-0.941,0.874-0.861
		c0.714,0.118,1.369,0.535,2.132,0.512c0.075-0.002,0.218,0.151,0.221,0.236C78.294,69.495,78.142,69.649,77.938,69.7z
		 M63.099,81.473c-0.404,0.749-0.839,0.929-1.359,0.838c-0.667-0.117-0.63-0.776-0.828-1.294
		C61.589,81.272,62.172,81.656,63.099,81.473z M55.672,102.656c0.782,0.807,0.785,1.85,1.092,2.76
		c0.091,0.271,0.169,0.787-0.218,0.808c-0.575,0.03-1.252-0.146-1.578-0.626c-0.246-0.361,0.268-0.56,0.603-0.691
		c0.071-0.027,0.128-0.088,0.339-0.239C54.79,104.08,55.078,103.424,55.672,102.656z M55.648,94.413
		c-0.792,0-0.905-0.854-1.01-1.429c-0.118-0.644,0.533-0.539,0.935-0.596c0.432-0.061,0.87-0.076,1.509-0.128
		c0.194,0,0.592-0.02,0.988,0.006c0.34,0.022,0.792-0.057,0.876,0.415c0.071,0.399-0.056,0.78-0.44,1.029
		C57.633,94.277,56.627,94.414,55.648,94.413z M52.078,91.25c0.642-0.125,0.996-0.928,1.874-0.794
		c0.463,0.07,1.003-0.361,1.568-0.591c-1.135,1.376-3.205,1.398-4.019,3.135C51.908,92.459,50.788,91.501,52.078,91.25z
		 M51.198,87.844c0.02,0.329-0.118,0.476-0.34,0.418c-0.435-0.114-0.823-0.364-0.819-0.856c0.003-0.387,0.378-0.479,0.697-0.476
		C51.542,86.941,50.709,87.749,51.198,87.844z M51.568,89.624c0.181-0.08,0.496-0.135,0.597,0.177
		c0.074,0.229-0.139,0.343-0.286,0.464c-0.54,0.447-1.172,0.365-2.131,0.315C50.54,90.156,51.04,89.857,51.568,89.624z
		 M56.251,90.507c0.706-0.906,1.6-1.04,2.6-1.404c-0.349,0.524-1.174,0.939,0.158,1.401C57.889,90.753,57.159,90.596,56.251,90.507z
		 M57.51,84.439c-0.178-1.04,0.721-1.169,1.5-0.804c0.163,0.076-0.401,0.928,0.637,0.991C58.618,85.239,57.592,84.916,57.51,84.439z
		 M41.78,95.05c-0.074-0.419-0.124-0.79,0.101-1.137c0.625-0.964,1.258-1.923,1.921-2.86c0.196-0.277,0.453-0.662,0.835-0.567
		c0.384,0.095,0.152,0.555,0.266,0.837c0.116,0.289,0.153,0.609,0.193,0.78c-0.348,2.259-0.157,4.34,0.328,6.407
		c0.062,0.261,0.144,0.577-0.187,0.735c-0.249,0.12-0.456-0.028-0.639-0.192C43.355,97.935,42.096,96.842,41.78,95.05z
		 M44.594,103.315c-0.041,0.349-0.281,0.394-0.504,0.242c-1.113-0.749-2.209-1.523-3.309-2.292c-0.062-0.044-0.154-0.14-0.14-0.181
		c0.215-0.663,0.969-0.688,1.391-1.146c0.271-0.294,0.725,0.039,0.811,0.406c0.256,1.104,1.016,1.89,1.629,2.771
		C44.516,103.179,44.553,103.248,44.594,103.315z M38.088,83.601c0.272-0.101,0.504,0.051,0.44,0.355
		c-0.125,0.598-0.562,1.014-0.851,1.46c-0.431-0.041-0.463-0.3-0.459-0.528C37.228,84.28,37.506,83.816,38.088,83.601z
		 M35.359,88.055c0.095-0.553,0.42-0.932,0.968-1.053c0.232-0.051,0.332,0.144,0.27,0.447c-0.217,0.432-0.48,0.955-1.01,1.133
		C35.312,88.675,35.321,88.277,35.359,88.055z M35.225,91.09c0.168-0.237,0.501-0.247,0.771-0.094
		c0.192,0.109,0.222,0.312,0.184,0.523c-0.057,0.321-2.582,2.241-2.955,2.224c-0.307-0.098-0.76-0.052-0.865-0.476
		c-0.107-0.437,0.276-0.696,0.598-0.771C33.886,92.28,34.659,91.885,35.225,91.09z M31.906,74.992
		c1.082-0.253,1.394-0.015,1.152,1.058c-0.161,0.711-0.184,1.423-0.052,2.142c0.083,0.456-0.087,0.873-0.289,1.264
		c-0.154,0.3-0.526,0.46-0.567,0.031c-0.106-1.097-0.257-2.15-1.071-2.915C31.456,75.977,30.994,75.206,31.906,74.992z
		 M29.705,85.918c0.636-0.409,0.709-0.962,0.617-1.657c-0.06-0.45,0.314-0.718,0.752-0.771c0.233-0.028,0.354,0.141,0.295,0.407
		c-0.34,0.849,0.084,2.069-1.162,2.522c-0.18,0.065-0.364,0.222-0.542,0.03C29.5,86.273,29.55,86.017,29.705,85.918z M29.374,89.311
		c-0.219-0.388-0.705-0.828-0.39-1.294c0.268-0.396,0.8-0.238,1.229-0.12c0.564,0.155,1.019-0.038,1.41-0.432
		c0.52-0.522,1.086-0.546,1.75-0.267c0.745,0.313,0.428,0.93,0.475,1.217c0.043,1.025-0.023,1.725-1.034,1.945
		C31.443,90.66,29.918,90.275,29.374,89.311z M29.867,99.561c-0.079,0.51-0.663,0.225-0.909-0.135
		c-0.41-0.599,0.183-2.515,0.834-2.788c0.226-0.095,0.396-0.001,0.526,0.157c0.546,0.661,1.219,1.236,1.636,2.452
		C30.918,98.634,30.12,97.937,29.867,99.561z M31.055,104.43c-0.516-0.104-0.394-0.599-0.376-1.177
		c-0.107-0.85,0.402-1.529,1.267-2.011c0.176-0.098,0.36-0.226,0.548-0.114c0.224,0.133,0.05,0.34,0.045,0.521
		c-0.023,0.793-0.449,1.421-0.826,2.062C31.548,103.991,31.512,104.523,31.055,104.43z M32.421,105.274
		c-0.301-0.333-0.059-0.677,0.092-0.994c0.278-0.582,0.721-0.943,1.389-0.985c0.43-0.026,0.83-0.198,0.947-0.613
		c0.292-1.036-0.11-2.207,0.726-3.173c0.213-0.245-0.295-0.722-0.674-0.849c-0.987-0.332-1.707-0.975-2.365-1.751
		c-0.871-1.025-1.868-1.896-3.122-2.473c-0.366-0.168-0.972-0.622-0.548-1.112c0.411-0.476,1.001,0.027,1.189,0.369
		c0.449,0.815,1.256,1.044,1.952,1.461c0.643,0.386,1.329,0.664,1.692,1.433c0.32,0.678,1.12,0.549,1.711,0.626
		c0.619,0.081,0.537-0.518,0.595-0.95c0.064-0.475,0.517-0.526,0.658-0.207c0.672,1.521,1.847,2.832,2.008,4.415
		c-0.232,0.991,0.161,1.568,0.749,2.048c0.943,0.768,1.226,1.837,1.333,2.966c0.036,0.384-0.023,0.868-0.492,0.99
		c-0.43,0.112-0.466-0.356-0.603-0.609c-0.839-1.565-2.132-2.913-2.311-4.8c-0.027-0.289-0.183-0.558-0.535-0.521
		c-0.271,0.029-0.391,0.264-0.435,0.509c-0.042,0.235-0.067,0.476-0.067,0.714c0.006,2.569-0.562,2.745-2.989,3.585
		C33.024,105.456,32.667,105.545,32.421,105.274z M37.28,109.901c-0.692-1.041-1.523-1.968-1.929-3.193
		c-0.136-0.411-0.188-0.684,0.265-0.854c0.536-0.202,1.038-0.041,1.481,0.235c0.363,0.227,1.127,0.342,0.45,1.068
		c-0.167,0.179,0.058,0.366,0.265,0.417c0.304,0.074,0.691,0.221,0.867-0.134c0.546-1.101,0.721-0.767,0.798,0.174
		c0.005,0.062,0.089,0.152,0.154,0.172c1.735,0.526,0.848,1.819,0.757,2.811c-0.047,0.515-0.708,0.364-1.098,0.466
		C38.483,110.894,37.852,110.76,37.28,109.901z M40.602,117.296c-0.878,0.281-1.355-0.316-1.669-0.967
		c-0.227-0.472,0.236-0.467,0.551-0.467c0.888-0.001,1.586,0.685,2.489,0.826C41.517,116.894,41.075,117.145,40.602,117.296z
		 M40.476,114.76c0.283-0.813,0.814-1.141,1.229-1.34c1.621-0.778,1.442-2.096,1.184-3.446c-0.261-1.362-0.27-1.401,1.153-1.247
		c0.547,0.059,1.116-0.19,1.905,0.277c-1.568,0.938-2.057,2.442-2.622,3.912C42.852,114.144,41.583,114.104,40.476,114.76z
		 M46.117,113.957c-0.706,0.737-1.551,1.34-2.083,2.243c-0.071,0.119-0.257,0.172-0.351,0.23c-0.371,0.014-0.476-0.175-0.472-0.449
		c0.005-0.407,0.051-0.823,0.393-1.089c0.63-0.489,1.238-0.993,1.755-1.608c0.226-0.269,0.583-0.347,0.867-0.139
		C46.611,113.427,46.316,113.749,46.117,113.957z M49.346,81.042c-0.645,1.214-1.978,1.628-2.904,2.518
		C46.756,81.926,48.59,82.148,49.346,81.042z M48.468,106.623c-0.416,0.169-0.716,0.012-0.86-0.379c-0.243-0.655-0.05-1.31,0.143-2
		c0.379,0.685,0.2,1.609,1.082,2.016C48.931,106.305,48.649,106.548,48.468,106.623z M51.733,113.225
		c-0.66-0.468-1.284-1.071-0.641-2.072c0.445-0.693,0.466-1.396-0.447-1.849c-0.255-0.127-0.623-0.391-0.302-0.745
		c0.279-0.309,0.564,0.03,0.681,0.224c0.659,1.09,1.735,1.519,3.09,1.794c-0.512,0.46-0.789,0.203-1.047,0.258
		c-0.602,0.126-0.818,0.65-0.889,1.131c-0.074,0.506,0.352,0.867,0.835,0.776c0.78-0.146,0.876,0.473,1.438,0.938
		C53.32,113.846,52.442,113.726,51.733,113.225z M57.828,109.813c-0.106,0.273-0.326,0.3-0.573,0.329
		c-1.458,0.171-6.883-2.372-7.468-3.644c-0.328-0.712-0.621-1.453-0.92-2.185c-0.281-0.684-0.504-1.238-1.436-1.021
		c-0.354,0.083-0.723-0.26-0.739-0.643c-0.025-0.609,0.487-0.102,0.83-0.368c-0.273-0.352-0.516-0.661-0.755-0.973
		c-0.212-0.276-0.292-0.573-0.082-0.883c0.257-0.378,0.541-0.175,0.831-0.03c0.389,0.195,0.792,0.362,1.184,0.553
		c0.23,0.111,0.363,0.247,0.247,0.557c-0.578,1.539,0.214,2.914,1.819,3.215c0.229,0.043,0.504,0.088,0.661,0.235
		c1.46,1.367,3.44,1.548,5.171,2.29C57.131,107.476,58.036,109.28,57.828,109.813z M62.055,128.811
		c-1.078,0.975-2.639,1.494-2.961,3.188c-0.041,0.217-0.13,0.569-0.541,0.537c-0.179-0.443,0.262-0.718,0.307-1.099
		c0.017-0.143,0.262-0.299,0.232-0.399c-0.452-1.558,0.793-2.492,1.269-3.718c0.506-1.306,0.615-2.765,0.898-4.157
		c-0.114-0.088-0.228-0.067-0.29,0.047c-0.209,0.385-0.192,0.981-0.942,0.775c-0.418-0.114-0.598-0.342-0.399-0.657
		c0.23-0.367-0.287-1.434,0.871-1.012c0.226,0.082,0.375-0.097,0.436-0.302c0.08-0.265-0.007-0.408-0.292-0.534
		c-0.835-0.369-0.488-0.712,0.112-0.85c0.633-0.146,1.093-0.304,0.837-1.087c-0.085-0.261-0.019-0.508,0.262-0.569
		c0.379-0.083,0.458,0.235,0.524,0.508c0.27,1.116-0.168,2.188-0.222,3.285c-0.002,0.037-0.047,0.077-0.041,0.11
		c0.308,1.622-0.839,2.788-1.278,4.176c-0.173,0.546-0.427,1.512,0.869,0.916c0.338-0.156,0.896,0.071,1.003,0.448
		C62.864,128.964,62.253,128.632,62.055,128.811z M67.059,135.576c-0.046-0.112,0.015-0.329,0.105-0.421
		c0.132-0.135,0.346-0.043,0.367,0.113c0.112,0.838,0.967,1.326,1.126,2.467C67.689,137.086,67.365,136.333,67.059,135.576z
		 M68.477,127.029c-0.42-1.031-1.06-1.535-2.087-1.664c-0.72-0.09-1.077-0.373-0.551-1.057c0.336-0.437-0.208-1.307,0.531-1.368
		c0.342-0.029,0.729,0.65,1.119,0.98c0.936,0.789,1.915,1.518,1.94,2.938c0.007,0.415,0.512,0.416,0.866,0.466
		c0.878,0.124,1.756,0.253,2.736,0.396C71.279,129.083,69.188,128.773,68.477,127.029z M76.517,130.089
		c0.063,0.18-0.167,0.354-0.383,0.36c-0.208,0.005-0.456-0.115-0.439-0.314c0.077-0.915-0.489-1.399-1.387-1.861
		c1.228-0.335,2.226-0.138,3.48-0.084C77.021,128.818,76.163,129.077,76.517,130.089z M111.466,85.932
		c-2.062,2.362-4.182,4.682-7.348,5.662c-0.856,0.265-1.619,0.831-2.424,1.26c-0.205,0.109-0.5,0.196-0.408,0.492
		c0.093,0.301,0.407,0.226,0.618,0.167c0.633-0.175,1.254-0.251,1.88,0.003c0.225,0.091,0.47,0.171,0.309,0.501
		c-0.355,0.732-1.828,1.316-2.599,1.004c-0.237-0.097-0.45-0.192-0.662-0.01c-0.29,0.249-0.273,0.572-0.115,0.875
		c0.294,0.566,0.557,1.051,0.229,1.777c-0.252,0.557,0.874,1.175,1.586,0.847c0.349-0.161,0.722-0.426,0.911-0.746
		c0.624-1.056,1.232-2.073,2.278-2.82c0.711-0.508,0.508-1.474,0.564-2.247c0.048-0.659,0.286-1.009,0.909-1.209
		c0.604-0.195,1.198-0.458,1.559-1.046c0.103-0.168,0.224-0.364,0.464-0.242c0.223,0.112,0.136,0.347,0.156,0.536
		c0.202,1.943,0.089,3.821-1.006,5.54c-0.751,1.178-1.38,2.438-2.183,3.577c-0.619,0.88-1.35,1.783-2.69,1.278
		c-0.206-0.077-0.4,0.047-0.52,0.216c-0.299,0.424-0.631,0.498-1.129,0.296c-0.573-0.232-1.037,0.024-1.227,0.61
		c-0.186,0.571,0.037,1.057,0.578,1.288c0.495,0.211,0.916,0.361,0.995,1.021c0.095,0.787,0.3,1.652,1.23,1.831
		c0.631,0.121,1.55-1.199,1.455-2.221c-0.079-0.859,0.129-1.379,0.842-1.871c0.327-0.227,0.441-0.32,0.754-0.08
		c0.282,0.217,0.523,0.443,0.288,0.788c-1.211,1.772-1.607,3.983-3.037,5.636c-0.184,0.212-0.472,0.443-0.258,0.713
		c0.317,0.401,0.753,0.745,1.268,0.813c0.526,0.07,1.027-0.202,1.457-0.476c0.404-0.257,0.186-0.529-0.159-0.704
		c-0.309-0.156-0.73,0.029-1.045-0.395c0.437-0.435,1.002-0.356,1.517-0.4c0.522-0.044,1.051-0.066,1.444-0.467
		c0.127-0.129,0.26-0.346,0.241-0.505c-0.033-0.282-0.271-0.193-0.465-0.133c-0.325,0.103-0.592-0.035-0.658-0.333
		c-0.079-0.358,0.286-0.439,0.523-0.554c0.801-0.384,1.169-0.806,0.158-1.383c-0.415-0.237-0.101-0.467-0.016-0.701
		c0.199-0.546,0.594-0.834,1.169-0.88c0.274-0.022,0.503,0.072,0.508,0.369c0.018,1.11,0.803,1.122,1.7,1.181
		c-1.23,0.271-0.664,1.43-1.129,1.997c-0.577,0.705-1.238,1.334-1.687,2.149c-0.358,0.649-0.696,1.281-0.202,1.995
		c0.313,0.452-0.096,0.518-0.327,0.703c-0.915,0.733-1.819,1.456-1.477,2.864c0.157,0.646-0.317,0.756-0.807,0.661
		c-0.963-0.187-1.759-0.148-2.009,1.047c-0.072,0.348-0.469,0.407-0.758,0.526c-0.985,0.405-1.757,1.087-2.461,1.861
		c-0.34,0.373-0.519,0.802-0.454,1.314c0.045,0.356,0.047,0.771,0.446,0.912c0.479,0.169,0.731-0.198,0.942-0.549
		c0.62-1.031,1.282-2.027,2.396-2.596c0.436-0.222,0.412-0.61,0.496-1.003c0.087-0.408,0.215-1.021,0.745-0.915
		c0.536,0.106,1.259,0.146,1.483,0.823c0.135,0.404,0.238,0.897,0.132,1.289c-0.338,1.232-0.195,2.465-0.13,3.696
		c0.054,0.991-0.396,1.632-1.144,2.22c-1.274,1.003-2.837,2.101-4.229,1.914c-1.626-0.218-1.59,1.308-2.646,1.547
		c-0.844,0.191-1.501,0.691-2.164-0.289c-0.293-0.434-1.023-0.613-1.139-0.008c-0.195,1.029-0.887,1.07-1.615,1.239
		c-0.397,0.092-1.084,0.048-0.975,0.606c0.102,0.518,0.753,0.278,1.159,0.238c2.584-0.254,4.976-1.1,7.188-2.449
		c0.362-0.221,0.732-0.405,1.12-0.238c0.446,0.192,0.969,0.825,0.839-0.344c-0.022-0.199,0.186-0.264,0.341-0.206
		c1.046,0.385,1.494-0.321,2.038-1.003c0.242-0.304,0.594-1.114,1.028-0.639c0.413,0.45,0.399,1.408-0.211,1.824
		c-0.646,0.439-1.124,0.997-1.654,1.529c-0.189,0.19-0.488,0.445-0.697,0.413c-1.117-0.174-1.898,0.538-2.734,1.017
		c-1.208,0.693-2.526,0.957-3.845,1.262l0.02-0.002c-0.15,0.72,0.14,0.998,0.837,0.783c0.871-0.27,1.713-0.629,2.671-0.351
		c0.214,0.062,0.635-0.087,0.751-0.271c1.045-1.655,3.209-1.654,4.435-3.044c0.396-0.45,0.555-0.153,0.614,0.333
		c0.28,2.298,0.073,2.411-2.113,3.776c-1.911,1.194-4.109,1.703-6.019,2.872c-0.501,0.308-1.687,1.164-1.588-0.654
		c0.021-0.409-0.523-0.385-0.773-0.222c-1.595,1.04-3.536,0.453-5.204,1.148c-0.546,0.228-1.148,0.331-1.734,0.442
		c-0.518,0.099-1.105,0.199-1.117-0.617c-0.007-0.536-0.377-0.364-0.667-0.42c-0.816-0.158-1.687,0.008-2.458-0.384
		c-0.267-0.135-0.676-0.252-0.569-0.66c0.104-0.401,0.48-0.312,0.803-0.291c0.876,0.058,1.754,0.081,2.628,0.149
		c0.689,0.055,1.599-0.28,1.707,0.914c0.018,0.194,0.272,0.278,0.49,0.22c0.223-0.061,0.345-0.239,0.314-0.448
		c-0.133-0.927,0.507-0.9,1.122-0.976c0.908-0.11,1.811-0.272,2.716-0.411c0.23-0.036,0.528-0.016,0.54-0.338
		c0.013-0.374-0.303-0.446-0.584-0.449c-0.969-0.013-1.918,0.189-2.825,0.48c-2.213,0.71-4.419,0.204-6.63,0.076
		c-1.042-0.06-2.064-0.216-3.167-0.749c1.333-0.281,1.288-2.651,3.244-1.812c-0.209,0.731-0.897,0.29-1.334,0.539
		c0.259,0.699,0.996,0.345,1.438,0.709c-0.369,0.405-0.979-0.116-1.389,0.543c1.103,0.283,2.148,0.423,3.228,0.346
		c0.637-0.045,1.271-0.117,1.909-0.147c0.713-0.033,1.48,0.09,1.768-0.843c0.028-0.093,0.166-0.166,0.269-0.22
		c0.365-0.191,1.061-0.089,1.018-0.63c-0.044-0.575-0.862-0.591-1.194-1.051c-0.157-0.217-0.513-0.117-0.623,0.094
		c-0.503,0.96-1.31,0.834-2.167,0.716c-0.468-0.064-0.957,0.033-1.436,0.034c-0.416,0.002-0.809,0.051-0.576-0.65
		c0.139-0.417-1.37-1.169-2.08-1.028c-0.344,0.068-0.703,0.208-0.986,0.411c-1.494,1.075-1.866,1.092-3.539,0.033
		c0.062-0.309,0.352-0.337,0.555-0.352c2.366-0.175,4.558-1.013,6.809-1.664c2.731-0.79,4.622-2.834,6.922-4.26
		c0.372-0.23,0.418-0.656,0.437-1.067c0.017-0.395-0.005-0.819,0.536-0.911c0.056,0.071,0.153,0.146,0.142,0.188
		c-0.132,0.464-0.617,0.883-0.147,1.416c0.146,0.168,0.323,0.275,0.519,0.181c0.567-0.276,0.536-0.828,0.574-1.344
		c0.017-0.238,0.019-0.482,0.08-0.71c0.303-1.12,0.834-1.273,1.687-0.485c0.247,0.229,0.35,0.679,0.824,0.537
		c0.169-0.05,0.249-0.22,0.194-0.384c-0.124-0.375-0.217-0.892-0.62-0.963c-1.562-0.272-1.028-0.686-0.295-1.499
		c0.479-0.53,0.842-1.182,1.438-1.624c0.052-0.575,0.494-1.078,0.357-1.801c-0.861,0.217-1.354,0.806-1.755,1.418
		c-1.647,2.515-4.021,4.262-6.328,6.083c-0.594,0.469-1.222,0.894-1.812,1.368c-3.739,3.012-8.163,3.916-12.8,4.356
		c-2.651,0.252-4.607-0.558-6.437-2.49c-1.487-1.57-3.506-2.634-4.797-4.444c-1.948-2.73-4.26-5.244-5.073-8.658
		c-0.227-0.955-0.694-1.856-1.088-2.767c-0.201-0.464-0.336-0.924-0.085-1.379c0.246-0.444,0.049-0.697-0.214-1.049
		c-1.04-1.383-1.257-3.044-1.512-4.84c0.851,1.665,1.823,0.962,2.79,0.331c0.433-0.283,0.859-0.578,1.299-0.851
		c0.247-0.153,0.544-0.213,0.803-0.078c0.315,0.164,0.23,0.485,0.161,0.748c-0.199,0.755-0.422,1.49,0.564,1.909
		c0.124,0.053,0.256,0.41,0.194,0.521c-0.583,1.048,0.041,2.106-0.069,3.158c-0.204,1.955,0.514,3.471,2.244,4.5
		c0.663,0.395,1.288,0.614,2.029,0.279c0.306-0.139,0.588-0.085,0.91,0.062c1.699,0.774,3.029-0.127,2.806-1.916
		c-0.085-0.68,0.244-1.03,0.717-1.382c0.561-0.417,1.075-0.955,0.898-1.69c-0.193-0.804-0.857-1.201-1.667-1.358
		c-1.215-0.237-2.373-0.417-3.161,0.915c-0.414,0.7-1.401,0.576-1.97,1.259c-0.321,0.386-0.673-0.322-0.628-0.756
		c0.188-1.795-0.023-3.593,0.071-5.385c0.111-2.118-0.271-4.125-1.153-6.044c-0.327-0.712-1.049-1.086-1.479-1.714
		c-0.315-0.459-0.356-0.887,0.26-0.993c1.068-0.186,1.757-1.034,2.716-1.42c0.688-0.276,1.253-0.834,2.083-0.755
		c0.335,0.033,0.658-0.156,0.828-0.42c1.668-2.597,4.624-3.256,7.056-4.695c0.838-0.497,1.697-1.043,2.786-0.849
		c0.397,0.071,0.809,0.083,1.13,0.333c0.392,0.305,1.115,0.561,0.903,1.107c-0.175,0.451-0.758-0.071-1.167-0.072
		c-0.549-0.002-1.509-0.496-0.935,0.806c0.027,0.062,0.011,0.199-0.03,0.223c-0.704,0.4-1.323,0.77-1.792,1.57
		c-0.401,0.685-1.461,0.478-2.327,0.312c-2.037-0.386-4.247,0.785-4.202,3.169c0.009,0.479,0.13,1.029-0.671,0.921
		c-0.286-0.039-0.6-0.06-0.6,0.358c0,0.316,0.222,0.499,0.494,0.617c0.572,0.25,1.056,0.175,1.525-0.285
		c0.567-0.555,1.042-0.34,1.226,0.361c0.264,1.011,0.702,1.606,1.859,1.161c0.229-0.088,0.59,0.06,0.623,0.249
		c0.18,1.042,0.983,1.003,1.73,1.066c1.229,0.105,2.455,0.327,3.524-0.637c0.708-0.638,1.479-1.249,2.321-1.683
		c1.151-0.592,1.266-1.599,1.002-2.548c-0.238-0.858-0.618-1.827-1.69-2.144c-0.996-0.294-1.86-0.717-1.633-2.033
		c0.69-0.007,1.254,0.168,1.481,1.004c0.174,0.64,0.834,0.809,1.35,1.098c0.664,0.372,1.035,0.058,1.312-0.535
		c0.039-0.085,0.234-0.188,0.299-0.156c1.206,0.574,1.633-0.89,2.609-1.006c0.403-0.049,0.761-0.673,0.656-1.152
		c-0.117-0.537-0.188-0.898,0.433-1.127c0.269-0.1,0.286-0.418,0.04-0.576c-0.393-0.252-0.973-0.623-1.259-0.12
		c-0.35,0.614-0.616,0.281-1.035,0.234c-1.082-0.121-2.367,0.235-2.543-1.444c-1.192-0.356-2.415-0.499-3.653-0.578
		c-2.37-0.151-4.484,0.552-6.453,1.814c-1.204,0.771-2.475,1.416-3.598,2.34c-1.062,0.875-2.38,1.351-3.752,1.654
		c-1.14,0.252-2.119,0.912-3.115,1.497c-0.384,0.225-1.098,0.4-0.883,0.935c0.209,0.519,0.755-0.205,1.169-0.037
		c-0.624,1.176-1.54,1.282-2.416,0.257c-0.33-0.385,0.038-0.57,0.307-0.72c1.565-0.862,3.102-1.788,4.72-2.536
		c0.897-0.414,1.353-0.782,0.603-1.648c-0.631-0.729,0.061-0.909,0.457-1.075c1.285-0.537,2.601-1.001,3.996-1.181l-0.037,0.028
		c3.251-1.513,6.627-2.407,10.25-2.071c0.869,0.081,1.748-0.137,2.612,0.178c1.253,0.457,2.691,0.328,3.753,1.423
		c0.679,0.701,1.765,0.588,2.665,0.843c0.623,0.177,1.223,0.371,1.751,0.749c0.309,0.221,0.585,0.489,0.398,0.897
		c-0.357,0.783,0.136,1.283,0.562,1.812c-0.093,0.415-0.469,0.247-0.692,0.316c-0.508,0.157-0.528,1.195-1.197,0.8
		c-0.414-0.244-0.595-0.882-0.915-1.399c-0.463,0.643-0.344,1.127,0.081,1.727c1.048,1.481,2.322,2.352,4.224,2.043
		c0.352-0.057,0.894-0.108,0.59,0.608c-0.557,1.313-0.024,2.914,1.335,3.188c1.529,0.307,3.244,0.755,4.57-0.709
		c0.228-0.251,0.706-0.425,0.474-0.848c-0.198-0.361-0.673-0.299-0.984-0.186c-1.282,0.469-2.589,0.401-3.906,0.289
		c-0.688-0.06-1.178-0.295-1.035-1.113c0.141-0.814,0.574-1.164,1.424-0.919c3.633,1.047,6.99,0.111,9.761-2.128
		c2.436-1.97,4.976-3.899,7.076-6.487C112.783,84.458,112.062,85.249,111.466,85.932z M103.636,104.248
		c-0.456-0.493-0.554-0.956-0.22-1.678C103.955,103.145,104.029,103.612,103.636,104.248z M60.797,99.023
		c0.437-0.814,0.588-1.531,0.715-2.379c0.658,0.438,0.785,0.985,0.681,1.565C62.083,98.816,61.55,98.916,60.797,99.023z
		 M79.11,91.923c0.134-0.483,0.853-0.537,1.362-0.544c0.333-0.005,0.541,0.297,0.628,0.636c0.136,0.527-0.163,0.857-0.553,1.083
		c-0.799,0.461-1.38,1.354-2.613,1.305C78.237,93.434,78.87,92.788,79.11,91.923z M113.861,104.835
		c-0.378-0.124-0.823-0.306-0.795-0.743c0.024-0.392,0.515-0.494,0.852-0.517c0.442-0.03,0.819,0.316,0.805,0.703
		C114.708,104.637,114.233,104.744,113.861,104.835z M116.734,92.495c-0.718,0.456-1.155,0.976-0.907,1.922
		c0.115,0.436,0.057,0.96-0.345,1.331c-0.153,0.143-0.285,0.36-0.146,0.527c1.421,1.706-0.73,1.188-1.035,1.829
		c0.229-0.413,0.514-0.775,0.148-1.247c-0.121-0.156-0.309-0.325-0.074-0.499c0.535-0.394,0.664-0.736,0.015-1.164
		c-0.121-0.08-0.136-0.613-0.071-0.643c0.907-0.394,0.442-1.456,1.018-2.009c0.525-0.504-0.129-0.625-0.338-0.89
		c-0.156-0.198-0.586-0.322-0.35-0.649c0.424-0.59,0.827,0.003,1.25,0.08c0.362,0.066,0.265,0.03,0.214,0.41
		c-0.183,1.388,0.821,0.174,1.213,0.401C117.251,92.261,116.953,92.356,116.734,92.495z M118.18,98.547
		c-0.339-0.09-0.568-0.35-0.602-0.642c-0.053-0.476,0.394-0.511,0.721-0.565c0.263-0.044,0.465,0.129,0.439,0.406
		C118.705,98.099,118.575,98.421,118.18,98.547z M120.506,97.793c-0.542-0.004-0.771-0.494-0.892-0.943
		c-0.108-0.41,0.167-0.648,0.598-0.753c0.475,0.113,0.819,0.441,0.868,0.934C121.115,97.375,120.899,97.796,120.506,97.793z
		 M120.094,72.055c-0.686,0.451-1.419-0.187-1.227-1.109c0.188-0.901-0.264-1.226-0.855-1.735c-1.385-1.19-2.959-1.612-4.723-1.703
		c-1.438-0.074-2.52-1.22-3.872-1.511c-1.88-0.404-2.841-1.963-4.191-3.029c-0.234-0.185-0.397-0.503-0.511-0.792
		c-0.763-1.948-2.102-3.368-3.832-4.52c-0.585-0.389-0.908-1.17-1.349-1.77c0.121-0.101,0.216-0.199,0.23-0.188
		c1.367,0.997,3.194,1.468,3.8,3.338c0.484,1.493,1.854,2.13,2.984,2.979c0.375,0.281,0.783,0.028,1.002-0.363
		c0.449-0.803-0.051-1.979-0.889-2.465c-0.941-0.548-1.36-1.611-1.877-2.479c-0.791-1.329-1.229-2.867-2.429-3.953
		c-0.08-0.073-0.189-0.193-0.179-0.278c0.253-1.998-1.081-2.892-2.52-3.772c-0.218-0.133-0.837-0.48-0.398-1.021
		c0.334-0.411,0.988-0.708,0.528-1.391c-0.418-0.621-1.007-0.842-1.751-0.451c-0.099-1.07,0.333-1.581,1.243-1.846
		c2.489-0.725,5.03-1.171,7.59-1.55c0.942-0.139,1.875-0.373,2.798-0.62c1.239-0.331,2.312,0.242,3.453,0.53
		c-2.021,0.294-4.054,0.273-6.034,0.773c-1.816,0.459-3.664,0.792-5.494,1.193c-0.416,0.091-0.996,0.139-0.913,0.728
		c0.089,0.632,0.678,0.541,1.159,0.545c1.831,0.018,3.523-0.598,5.226-1.153c0.515-0.168,0.911-0.283,1.428,0.114
		c0.9,0.691,1.814-0.157,2.908-0.177c-0.395,0.39-0.771,0.417-1.13,0.448c-0.461,0.04-0.953,0.171-1.165,0.535
		c-0.428,0.731-0.771,1.377-1.646,1.809c-0.542,0.267-0.014,1.032,0.61,1.163c0.859,0.18,1.761,0.288,2.623,0.101
		c3.465-0.749,6.968-1.373,10.21-2.909c0.318-0.151,0.691-0.189,1.039-0.278c0.354-0.091,0.738-0.183,0.775-0.625
		c0.036-0.442-0.307-0.61-0.666-0.727c-0.075-0.025-0.159-0.025-0.233-0.052c-3.41-1.23-6.77-2.606-10.368-3.255
		c-2.13-0.384-4.01-1.521-6.017-2.272c-1.635-0.612-3.268-0.643-4.92-0.825c-0.356-0.04-0.819-0.041-0.905,0.384
		c-0.094,0.466,0.221,0.916,0.663,1c1.014,0.192,1.785,0.865,2.704,1.211c0.585,0.22,0.882,0.664,0.933,1.125
		c0.05,0.452-0.571,0.465-0.919,0.597c-2.256,0.857-2.72,0.639-3.484-1.678c-0.195-0.592-0.469-1.155-0.932-1.509
		c-1.307-1-1.396-2.304-0.896-3.652c0.206-0.556-0.176-1.502,0.62-1.642c0.867-0.151,0.764,0.87,1.079,1.359
		c0.557,0.863,1.547,0.908,2.321,1.246c1.094,0.477,2.126,1.583,3.54,0.878c0.624,0.936,2.078,0.353,2.641,1.465
		c0.188,0.371,0.667,0.458,1.075,0.32c0.419-0.141,0.759-0.168,1.072,0.21c0.184,0.223,0.463,0.399,0.716,0.12
		c0.302-0.333,0.042-0.637-0.214-0.802c-0.808-0.523-1.594-1.053-2.167-1.853c-0.168-0.235-0.634-0.303-0.424-0.73
		c0.197-0.4,0.562-0.57,0.997-0.513c0.509,0.067,1.058,0.081,1.504,0.295c0.407,0.195,0.693,0.517,1.138,0.088
		c0.157-0.151,0.389-0.033,0.526,0.128c0.468,0.544,0.837,1.173,1.775,0.626c0.179-0.104,0.852,0.55,1.241,0.912
		c1.98,1.84,3.94,3.701,5.914,5.549c0.322,0.301,0.687,0.648,1.153,0.326c0.371-0.256,0.682-0.424,1.043-0.033
		c0.365,0.395,0.431,0.857,0.245,1.339c-0.265,0.689-0.791,1.319-0.298,2.131c0.122,0.2-0.118,0.416-0.324,0.365
		c-1.922-0.472-2.982,1.417-4.547,1.678c-2.419,0.402-4.436,1.825-6.807,2.31c-1.067,0.218-2.263,0.549-2.553,1.983
		c-0.075,0.375-0.578,0.645-0.806,1.013c-0.709,1.146-0.098,2.329,1.242,2.282c0.658-0.022,0.886,0.616,1.477,0.698
		c-0.163,0.094-0.327,0.186-0.488,0.282c-0.221,0.13-0.406,0.306-0.293,0.576c0.148,0.354,0.447,0.258,0.719,0.169
		c0.968-0.32,1.793-0.918,2.698-1.392c-0.429,0.668-0.994,1.179-1.603,1.655c-0.417,0.326-0.954,0.708-0.035,1.095
		c0.163,0.068,0.348,0.192,0.261,0.324c-0.767,1.17,0.846,0.958,0.981,1.667c0.058,0.3,0.711,0.161,0.906-0.157
		c0.854-1.396,1.711-0.279,2.464,0.041c0.957,0.406,1.527,1.177,1.28,2.353c-0.089,0.419,0.187,0.676,0.657,0.605
		c0.189-0.028,0.479-0.153,0.552-0.075c0.886,0.962,0.966,0.054,1.216-0.496c0.041-0.09,0.158-0.146,0.375-0.337
		c0.221,1.586,0.215,3.042-0.055,4.484c-0.082,0.444-0.367,0.857,0.228,1.093c0.488,0.193,0.971,0.105,1.284-0.346
		c0.177-0.254,0.388-0.598,0.35-0.869c-0.21-1.505,0.156-2.989-0.005-4.514c-0.496-4.706-0.02-9.313,2.043-13.661
		c0.291-0.613,0.521-1.254,0.812-1.867c0.162-0.341,0.293-0.912,0.78-0.734c0.603,0.22,0.136,0.69,0.003,0.997
		c-0.988,2.274-1.736,4.625-2.448,6.998c-0.438,1.461-0.461,2.927-0.326,4.37c0.318,3.393-0.095,6.752-0.23,10.125
		c-0.023,0.594,0.039,1.193,0.068,1.79c0.052,1.088-0.239,1.371-1.312,1.083C121.155,71.82,120.717,71.645,120.094,72.055z
		 M125.283,73.49c-0.941,1.375-1.383,3.049-2.021,4.627c0.131-3.054,1.373-5.906,1.549-8.955
		C125.703,70.547,126.423,71.824,125.283,73.49z M121.898,94.567c0.237-0.261,0.531-0.601,0.911-0.413
		c1.29,0.638,1.169-0.269,1.151-1.166c1.391,0.704,1.397,0.711,0.348,1.595c-0.424,0.356-0.862,0.704-1.331,0.994
		c-0.367,0.228-0.682,0.007-0.935-0.286C121.855,95.075,121.645,94.844,121.898,94.567z M125.762,99.708
		c-0.555,0.521-0.521-0.809-1.065-0.437c-0.839,0.574-1.548-0.05-2.336-0.109c0.06-0.532,0.516-0.663,0.709-0.995
		c0.105-0.183,0.434-0.277,0.487-0.091c0.459,1.59,1.176,0.457,1.81,0.196c0.047,0.052,0.138,0.146,0.134,0.149
		C124.958,98.993,126.258,99.241,125.762,99.708z M125.412,91.687c-0.433-0.018-0.774-0.18-0.783-0.683
		c-0.006-0.327,0.056-0.719,0.467-0.653c0.418,0.067,0.774,0.352,0.968,0.769C125.969,91.463,125.785,91.702,125.412,91.687z
		 M125.125,85.146c-0.121-0.992,0.429-1.981,1.358-2.494c0.552-0.305,0.771-0.682,0.893-1.229c0.013,0.157,0.016,0.315,0.039,0.471
		c0.069,0.446-0.053,1.166,0.606,1.076c0.6-0.081,0.711-0.78,0.673-1.345c-0.145-2.176,0.16-4.338,0.176-6.509
		c0.002-0.174,0.142-0.484,0.248-0.499c1.124-0.152,0.911-1.072,0.778-1.65c-0.408-1.772-0.516-3.634-1.414-5.273
		c-0.153-0.281-0.368-0.544-0.263-0.884c0.051-0.165,0.229-0.229,0.392-0.143c0.362,0.193,0.668,0.467,0.748,0.881
		c0.159,0.816,0.193,1.642,0.576,2.428c1.117,2.291,0.82,4.661,0.359,7.066c-0.291,1.52-0.706,3.056-0.403,4.644
		c0.111,0.582,0.273,1.168,0.064,1.772c-0.173,0.503,0.111,0.843,0.49,1.111c0.202,0.144,0.451,0.23,0.66,0.038
		c0.357-0.328,0.21-0.721,0.116-1.116c-0.051-0.217-0.009-0.455,0.13-0.717c0.849,2.948,1.559,5.929,2.61,8.815
		c-1.303-2.681-3.403-4.336-6.172-5.225c-0.304-0.097-0.619-0.186-0.894-0.342C126.305,85.688,125.212,85.856,125.125,85.146z
		 M129.501,96.018c-0.522,0.438,0.285,0.605-0.004,1.027c-0.68,0.991-1.207,2.088-1.796,3.143c0.059-1.356-0.497-2.728,0.313-3.965
		c0.076-0.115,0.097-0.327,0.047-0.457c-0.776-2.019-0.045-4.029,0.016-6.042c0.024-0.802,0.429-0.937,1.1-0.599
		c0.355,0.179,0.743,0.296,1.1,0.474c1.966,0.98,2.188,1.565,1.188,3.516C130.929,94.156,130.411,95.258,129.501,96.018z
		 M135.834,111.518c-0.108-0.203-0.279-0.396-0.316-0.61c-0.386-2.252-1.012-4.46-1.128-6.762c-0.073-1.462-0.269-2.918-0.438-4.374
		c-0.045-0.383-0.123-0.87-0.683-0.784c-0.51,0.079-0.913,0.374-0.845,0.971c0.084,0.745-0.066,1.522,0.307,2.229
		c0.197,0.374,0.195,0.759-0.017,1.284c-0.459-0.695-0.729-1.23-0.497-2.079c0.293-1.071-0.395-2.111-0.366-3.258
		c0.044-1.801,0.73-3.265,1.688-4.749C134.473,99.408,136.537,105.245,135.834,111.518z M137.759,96.31
		c-1.022-2.637-1.376-5.43-2.581-7.953c-0.854-1.791-0.336-3.79-0.909-5.628c-0.489-1.57-0.46-3.233-0.608-4.851
		c-0.104-1.129-0.045-2.263-0.404-3.367c-0.086-0.264-0.234-0.702,0.193-0.82c0.354-0.098,0.393,0.314,0.513,0.547
		c0.239,0.46,0.438,0.945,0.712,1.383c0.249,0.397,0.518,0.99,1.028,0.899c1.202-0.213,0.969,0.191,0.479,0.862
		c-0.625,0.857-0.271,1.848-0.076,2.671c1.04,4.396,1.336,8.914,2.278,13.316C138.644,94.59,138.211,95.392,137.759,96.31z
		 M142.226,91.273c-0.813,1.981-1.665,3.946-2.239,6.017c-0.08,0.29-0.162,0.614-0.567,0.735c0.135-2.577,1.016-4.871,2.09-7.104
		c0.131-0.27,0.384-0.626,0.738-0.461C142.708,90.673,142.328,91.026,142.226,91.273z M146.173,82.06
		c-0.933,0.384-1.559,1.118-1.767,2.097c-0.38,1.794-1.553,2.985-2.895,4.078c-0.168,0.137-0.37,0.289-0.503,0.084
		c-0.255-0.397-0.456-0.834-0.636-1.271c-0.093-0.227,0.05-0.385,0.304-0.368c0.866,0.057,0.506-0.467,0.397-0.85
		c-0.565-1.992-1.134-3.98-1.368-6.053c-0.131-1.153-0.763-2.194-0.999-3.3c-0.563-2.637-2.703-4.32-3.765-6.648
		c-0.435-0.952-0.115-1.629,0.275-2.343c0.235-0.43,0.6-0.146,0.905,0.084c0.801,0.603,1.337,1.466,1.962,2.203
		c1.804,2.125,3.727,4.105,5.926,5.801c0.682,0.525,0.606,1.328,1.036,1.955c0.747,1.092,1.378,2.321,1.611,3.676
		C146.662,81.596,146.617,81.878,146.173,82.06z M157.074,53.603c-0.071,0.305-0.205,0.615-0.383,0.873
		c-2.292,3.328-3.562,7.058-4.476,10.955c-0.152,0.649-0.549,1.55-1.66,1.294c-0.325-0.075-0.691,0.024-1.234,0.055
		c1.243-1.486,1.151-1.797-0.42-2.116c0.308-0.708,1.439-1.114,1.15-1.914c-0.228-0.631,0.911-1.627-0.695-1.943
		c1.666,0.235,1.692-1.215,2.41-1.875c0.16-0.147,0.206-0.375,0.088-0.549c-0.645-0.956,0.053-1.193,0.753-1.366
		c0.712-0.176,1.3-0.239,0.393-1.074c-0.363-0.334-0.486-1.003-0.573-1.543c-0.092-0.576,0.199-0.976,0.867-0.981
		c1.008-0.008,1.969-0.222,2.902-0.622C156.986,52.458,157.248,52.855,157.074,53.603z"/>
	<path style="fill-rule:evenodd;clip-rule:evenodd;" d="M61.734,150.378c0.385,0.493,1.304,0.114,1.321,0.878
		c0.013,0.547-0.736,0.374-0.967,0.725c0.497,0.937,1.05,1.44,1.98,0.42c0.231-0.253,0.698-0.068,1.044,0.008
		c1.163,0.256,2.253,0.808,3.485,0.797c0.291-0.003,0.688,0.142,0.646,0.554c-0.034,0.334-0.394,0.375-0.662,0.407
		c-0.353,0.043-0.714,0.035-1.071,0.026c-1.125-0.027-2.258-0.496-3.375,0.098c-0.152,0.081-0.417,0.056-0.587-0.019
		c-1.075-0.465-2.209-0.506-3.354-0.573c-0.635-0.036-1.24-0.401-1.133-1.126c0.106-0.716-0.899-1.95,0.808-2.051
		c0.114-0.007,0.292-0.044,0.328-0.119c0.892-1.865,2.507-0.858,3.793-0.883c1.854-0.037,3.516,0.903,5.27,1.391
		c0.957,0.266,1.874,0.828,2.937,0.142c0.531-0.343,1.195,0.42,2.08-0.014c-1.067-0.437-1.971-0.807-2.875-1.177
		c0.042-0.123,0.085-0.247,0.128-0.37c1.03,0.05,1.996,0.401,2.952,0.823c0.801,0.354,1.603,0.714,2.425,1.012
		c0.281,0.103,0.801,0.299,0.681-0.396c-0.048-0.279-0.409-0.646,0.164-0.721c0.423-0.056,0.984-0.097,1.173,0.377
		c0.253,0.635,0.636,0.955,1.299,1.061c0.449,0.071,0.747,0.389,0.521,0.863c-0.214,0.448-0.67,0.48-1.025,0.225
		c-0.608-0.44-0.98-0.69-1.438,0.261c-0.349,0.725-1.204,0.432-1.854,0.227c-1.007-0.316-1.985-0.891-2.967,0.118
		c-0.272,0.279-0.783,0.247-1.152,0.085c-1.295-0.572-2.849-0.478-3.941-1.617c-0.292-0.304-0.877-0.338-1.336-0.468
		c-1.298-0.366-2.597-0.729-3.902-1.068C62.685,150.157,62.218,150.133,61.734,150.378z"/>
	<path style="fill-rule:evenodd;clip-rule:evenodd;" d="M98.929,143.688c-0.265,0.577-0.804,0.362-1.188,0.79
		c2.017,0.257,3.478-0.774,5.128-1.446c1.749-0.712,2.971-1.883,4.236-3.163c0.283,1.843,1.179,0.283,1.787,0.335
		c0.201,0.502-0.214,0.736-0.462,0.85c-1.12,0.511-2.005,1.466-3.257,1.713c-1.124,0.222-1.913,1.098-2.974,1.489
		c-0.938,0.347-2.267,0.048-2.721,1.376c-0.673-0.684-1.818,0.104-2.363-0.669c-0.372-0.528-0.779-0.463-1.231-0.462
		c-2.371,0.006-4.601-1.014-6.979-0.961c-0.309,0.006-0.57-0.19-0.487-0.534c0.094-0.392,0.45-0.406,0.781-0.362
		c1.423,0.186,2.844,0.384,4.267,0.567c0.513,0.066,1.028,0.112,1.544,0.153c0.374,0.03,0.702,0.067,0.675-0.527
		c-0.045-0.942,0.724-0.791,0.936-0.364C97.116,143.466,97.934,143.672,98.929,143.688z"/>
	<path style="fill-rule:evenodd;clip-rule:evenodd;" d="M86.787,152.914c-0.97,0.181-1.515-0.267-2.125-0.547
		c-1.479-0.681-2.984-1.302-4.462-1.982c-0.649-0.298-1.453-0.656-0.201-1.285c0.284-0.144,0.227-0.366,0.197-0.612
		c-0.056-0.457,0.234-0.549,0.601-0.49c0.35,0.057,0.712,0.3,0.528,0.628c-0.523,0.931,0.237,1.081,0.751,1.358
		c1.505,0.811,3.236,1.105,4.693,2.03c0.31,0.197,0.953,0.151,0.837,0.659C87.502,153.123,86.915,152.874,86.787,152.914z"/>
	<path style="fill-rule:evenodd;clip-rule:evenodd;" d="M101.266,138.253c1.824,0.927,3.106-0.246,4.465-1.145
		c0.25-0.165,0.541-0.457,0.841-0.137c0.191,0.206,0.058,0.501-0.149,0.621c-2.526,1.468-4.694,3.604-7.781,4.125
		c1.586-0.667,3.03-1.416,2.659-3.499L101.266,138.253z"/>
	<path style="fill-rule:evenodd;clip-rule:evenodd;" d="M111.657,127.208c0.359-2.968,0.667-5.789,2.125-8.319
		c0.177-0.306,0.356-0.869,0.86-0.562c0.428,0.26,0.334,0.776,0.164,1.194C113.785,122.036,112.75,124.544,111.657,127.208z"/>
	<path style="fill-rule:evenodd;clip-rule:evenodd;" d="M89.682,141.11c-1.419-0.136-2.693-0.23-3.96-0.388
		c-0.719-0.089-1.413-0.175-2.113,0.106c-0.193,0.077-0.517,0.114-0.585-0.212c-0.047-0.227,0.192-0.318,0.354-0.425
		c0.314-0.206,0.672-0.251,1.034-0.247c0.499,0.005,0.897-0.031,1.149-0.61c0.239-0.553,0.71-0.783,0.908,0.054
		c0.138,0.58,0.505,0.651,0.965,0.667c0.759,0.027,1.521,0.041,2.252,0.277c0.282,0.092,0.74,0.095,0.657,0.525
		C90.26,141.287,89.831,141.101,89.682,141.11z"/>
	<path style="fill-rule:evenodd;clip-rule:evenodd;" d="M83.849,148.453c0.266,0.12,0.646,0.248,0.98,0.452
		c1.661,1.014,3.37,1.931,5.168,2.682c0.388,0.161,0.955,0.371,0.675,0.893c-0.238,0.441-0.806,0.294-1.183,0.053
		c-1.335-0.852-2.601-1.815-4.076-2.44c-0.51-0.216-0.983-0.49-1.553-0.566c-0.414-0.055-0.561-0.432-0.575-0.802
		C83.276,148.459,83.535,148.47,83.849,148.453z"/>
	<path style="fill-rule:evenodd;clip-rule:evenodd;" d="M86.179,142.593c-0.18,0.455-0.564,0.46-0.884,0.274
		c-1.211-0.702-2.657-0.509-3.901-1.065c-0.142-0.063-0.372-0.16-0.45-0.1c-0.987,0.771-1.516-0.237-2.22-0.55
		c-0.261-0.115-0.553-0.239-0.386-0.6c0.141-0.305,0.448-0.322,0.728-0.246c0.69,0.19,1.375,0.4,2.059,0.613
		c1.444,0.451,2.897,0.863,4.388,1.128C85.826,142.104,86.162,142.155,86.179,142.593z"/>
	<path style="fill-rule:evenodd;clip-rule:evenodd;" d="M70.668,150.169c-1.447-0.356-2.905-0.624-4.388-0.69
		c-0.264-0.012-0.472-0.192-0.311-0.481c0.238-0.429,0.409-1.102,1.074-0.869c1.032,0.359,2.356,0.083,3.013,1.34
		c0.104,0.197,0.45,0.268,0.684,0.396C70.716,149.966,70.692,150.068,70.668,150.169z"/>
	<path style="fill-rule:evenodd;clip-rule:evenodd;" d="M72.567,145.086c0.918,0.56,2.143,0.54,3.295,0.818
		c0.287,0.069,0.543,0.282,0.412,0.608c-0.161,0.402-0.595,0.717-0.95,0.561c-1.037-0.456-2.165-0.512-3.214-0.87
		c-0.255-0.087-0.73-0.17-0.562-0.603C71.673,145.282,71.979,145.022,72.567,145.086z"/>
	<path style="fill-rule:evenodd;clip-rule:evenodd;" d="M98.03,152.151c-1.006-0.198-1.658-0.868-2.361-1.44
		c-0.073-0.06-0.062-0.32,0.004-0.431c0.109-0.181,0.36-0.256,0.531-0.153c0.956,0.574,1.952,0.8,3.062,0.553
		c0.263-0.059,0.544,0.146,0.573,0.487c0.022,0.268-0.12,0.487-0.355,0.569C98.996,151.903,98.491,152.022,98.03,152.151z"/>
	<path style="fill-rule:evenodd;clip-rule:evenodd;" d="M118.305,147.376c0.749,0.215,0.891,0.986,1.257,1.57
		c0.252,0.401,0.348,0.802,0.007,1.201c-0.159,0.185-0.351,0.341-0.611,0.3c-0.543-0.086-1.462-2.271-1.171-2.758
		C117.893,147.512,118.023,147.375,118.305,147.376z"/>
	<path style="fill-rule:evenodd;clip-rule:evenodd;" d="M98.563,140.361c-1.695,0.849-3.248,0.416-4.906,0.591
		C94.516,139.974,96.747,139.721,98.563,140.361z"/>
	<path style="fill-rule:evenodd;clip-rule:evenodd;" d="M61.958,142.473c-0.382,0.362-0.722,1.227-1.208,0.892
		c-0.592-0.408,0.22-0.928,0.43-1.379c0.254-0.55,0.639-1.04,1.11-1.78c0.26,1.053-0.448,1.61-0.36,2.307
		C61.93,142.51,61.958,142.473,61.958,142.473z"/>
	<path style="fill-rule:evenodd;clip-rule:evenodd;" d="M76.949,145.235c1.28-0.076,2.258,0.66,3.344,1.095
		c0.16,0.063,0.178,0.267,0.088,0.413c-0.121,0.196-0.379,0.257-0.521,0.142C78.992,146.171,77.963,145.753,76.949,145.235z"/>
	<path style="fill-rule:evenodd;clip-rule:evenodd;" d="M86.708,147.331c0.908-0.656,1.744-0.18,2.583,0.172
		c0.188,0.078,0.389,0.227,0.351,0.436c-0.053,0.29-0.342,0.32-0.575,0.292c-0.859-0.106-1.69-0.298-2.347-0.927
		C86.715,147.31,86.708,147.331,86.708,147.331z"/>
	<path style="fill-rule:evenodd;clip-rule:evenodd;" d="M73.069,149.198c-1.289-0.112-2.548-0.32-3.739-1.002
		C70.63,147.831,71.659,148.086,73.069,149.198z"/>
	<path style="fill-rule:evenodd;clip-rule:evenodd;" d="M70.692,144.813c-0.053,0.427-0.174,0.818-0.701,0.793
		c-0.376-0.018-0.961,0.061-0.945-0.466c0.015-0.483,0.488-0.801,1.004-0.861C70.416,144.236,70.663,144.414,70.692,144.813z"/>
	<path style="fill-rule:evenodd;clip-rule:evenodd;" d="M77.631,148.385c0.205-0.526,0.48-1.037,1.11-1.056
		c0.493-0.015,0.48,0.485,0.463,0.8c-0.036,0.633-0.655,0.576-1.06,0.707C77.888,148.919,77.596,148.776,77.631,148.385z"/>
	<path style="fill-rule:evenodd;clip-rule:evenodd;" d="M117.213,107.405c0.894-0.653,1.742-1.396,2.963-1.557
		c-0.55,1.032-1.883,1.705-2.977,1.549C117.194,107.393,117.213,107.405,117.213,107.405z"/>
	<path style="fill-rule:evenodd;clip-rule:evenodd;" d="M92.032,140.227c0.239-0.01,0.54,0.13,0.429,0.272
		c-0.357,0.459,0.068,1.287-0.658,1.488c-0.336,0.093-0.535-0.291-0.581-0.626C91.132,140.725,91.562,140.447,92.032,140.227z"/>
	<path style="fill-rule:evenodd;clip-rule:evenodd;" d="M57.196,128.472c-0.368-0.05-0.557-0.182-0.494-0.403
		c0.179-0.626,0.524-1.177,1.12-1.458c0.275-0.131,0.48,0.246,0.375,0.432C57.9,127.567,57.508,128.04,57.196,128.472z"/>
	<path style="fill-rule:evenodd;clip-rule:evenodd;" d="M93.798,149.111c0.443,0.053,0.806,0.184,0.806,0.609
		c-0.001,0.434-0.352,0.58-0.745,0.546c-0.395-0.035-0.674-0.252-0.671-0.671C93.191,149.163,93.56,149.168,93.798,149.111z"/>
	<path style="fill-rule:evenodd;clip-rule:evenodd;" d="M91.727,149.402c-0.499,0.01-0.836-0.275-0.983-0.697
		c-0.123-0.352,0.185-0.485,0.485-0.474c0.503,0.019,0.961,0.216,1.072,0.736C92.375,149.312,92.003,149.36,91.727,149.402z"/>
	<path style="fill-rule:evenodd;clip-rule:evenodd;" d="M64.99,147.243c0.333,0.012,0.65,0.065,0.686,0.479
		c0.034,0.398-0.188,0.59-0.572,0.551c-0.355-0.037-0.773-0.116-0.799-0.542C64.282,147.332,64.679,147.295,64.99,147.243z"/>
	<path style="fill-rule:evenodd;clip-rule:evenodd;" d="M103.541,141.042c-0.632,0.713-1.289,1.113-2.145,1.237
		C101.676,141.498,102.139,141.221,103.541,141.042z"/>
	<path style="fill-rule:evenodd;clip-rule:evenodd;" d="M77.675,140.707c-0.047,0.305-0.157,0.588-0.516,0.466
		c-0.382-0.129-0.682-0.4-0.693-0.853c-0.009-0.321,0.23-0.388,0.479-0.355C77.373,140.02,77.686,140.216,77.675,140.707z"/>
	<path style="fill-rule:evenodd;clip-rule:evenodd;" d="M80.011,139.821c0.117-0.143,0.14-0.195,0.165-0.196
		c0.704-0.04,1.361,0.093,1.908,0.569c0.03,0.025-0.054,0.273-0.094,0.275C81.269,140.513,80.63,140.298,80.011,139.821z"/>
	<path style="fill-rule:evenodd;clip-rule:evenodd;" d="M122.981,104.518c-0.013,0.182,0.012,0.293-0.027,0.324
		c-0.493,0.393-1.021,0.705-1.688,0.519c-0.05-0.015-0.112-0.236-0.072-0.292C121.657,104.43,122.354,104.684,122.981,104.518z"/>
	<path style="fill-rule:evenodd;clip-rule:evenodd;" d="M100.366,142.014c0.348,0.038,0.499,0.262,0.523,0.561
		c0.035,0.425-0.236,0.562-0.604,0.525c-0.279-0.028-0.601-0.101-0.551-0.475C99.78,142.285,100.036,142.084,100.366,142.014z"/>
	<path style="fill-rule:evenodd;clip-rule:evenodd;" d="M50.146,41.99c1.114-0.436,1.869-1.53,3.239-1.899
		c-0.2,0.721-0.451,1.142-0.928,1.421c-0.495,0.386-0.985,0.767-1.47,1.145c-0.545,0.441-1.159,0.756-1.891,0.966
		C49.204,42.876,50.043,42.667,50.146,41.99z"/>
	<path style="fill-rule:evenodd;clip-rule:evenodd;" d="M71.793,115.451c0.812-0.165,1.513-0.262,2.186-0.458
		c0.552-0.16,1.192-0.727,1.576,0.014c0.371,0.716,0.57,1.593,0.025,2.382c-0.677,0.98-3.345,1.66-4.479,1.243
		c-1.007-0.371-1.993-0.671-2.706-1.598c-0.307-0.398-0.96-0.539-1.469-0.769c-1.03-0.466-1.046-0.73-0.342-1.646
		c1.229-1.6,2.988-2.203,4.773-2.918c2.318-0.93,4.681-0.711,7.044-0.729c1.081-0.009,1.413,0.815,0.806,1.72
		c-0.517,0.77-1.299,1.146-2.114,1.486c-0.363,0.152-0.575-0.021-0.832-0.258c-0.718-0.665-1.445-0.82-2.107,0.1
		c-0.35,0.486-0.823,0.724-1.428,0.744C72.368,114.775,72.007,114.856,71.793,115.451z"/>
	<path style="fill-rule:evenodd;clip-rule:evenodd;" d="M91.617,126.25c1.878-0.536,3.75-1.119,5.466-2.052
		c1.668-0.908,3.249-1.976,4.864-2.981c0.691-0.431,1.445-0.659,2.248-0.743c0.228-0.024,0.511-0.104,0.587,0.219
		c0.07,0.298-0.168,0.42-0.398,0.499c-0.805,0.274-1.465,0.591-0.96,1.659c0.121,0.256-0.188,0.484-0.484,0.574
		c-0.922,0.278-1.737,0.781-2.594,1.201c-0.38,0.186-0.908,0.69-1.194-0.239c-0.13-0.423-0.546-0.127-0.808,0.026
		c-1.688,0.987-3.618,1.408-5.353,2.294c-0.479,0.245-1.275,0.722-1.375-0.467L91.617,126.25z"/>
	<path style="fill-rule:evenodd;clip-rule:evenodd;" d="M91.616,126.24c-0.32,0.325-0.744,0.447-1.156,0.595
		c-0.339,0.121-0.647,0.286-0.899,0.562c-0.309,0.342-0.069,1.088-0.711,1.128c-0.789,0.049-1.558-0.161-2.338-0.512
		c1.851-0.853,2.513-3.093,4.574-3.57c0.341-0.08,0.641-0.336,0.981-0.414c0.46-0.105,1.062-0.208,1.235,0.36
		c0.18,0.593-0.423,0.773-0.85,0.948c-0.25,0.102-0.545,0.114-0.82,0.124c-0.536,0.017-1.01,0.185-1.637,0.646
		c0.696-0.141,1.158,0,1.62,0.146C91.617,126.25,91.616,126.24,91.616,126.24z"/>
	<path style="fill-rule:evenodd;clip-rule:evenodd;" d="M107.623,92.476c0.778,2.356-0.407,4.943-2.284,5.383
		c-0.315,0.073-0.644,0.19-0.868-0.138c-0.195-0.287-0.011-0.541,0.186-0.744c0.63-0.653,1.393-1.188,1.691-2.12
		C106.624,93.997,107.478,93.448,107.623,92.476z"/>
	<path style="fill-rule:evenodd;clip-rule:evenodd;" d="M97.927,120.577c0.465-0.038,0.79,0.149,0.857,0.623
		c0.06,0.419-0.19,0.733-0.574,0.784c-1.173,0.153-2.153,0.52-2.586,1.765c-0.098,0.282-0.428,0.358-0.718,0.219
		c-0.308-0.149-0.295-0.431-0.238-0.723C94.917,121.962,96.622,120.564,97.927,120.577z"/>
	<path style="fill-rule:evenodd;clip-rule:evenodd;" d="M102.333,112.929c-0.644-0.161-1.045-0.464-0.874-1.11
		c0.216-0.819,0.868-1.271,1.633-1.418c0.702-0.135,1.164,0.443,1.572,0.919c0.297,0.345,0.11,0.732-0.263,0.885
		C103.709,112.487,102.909,112.443,102.333,112.929z"/>
	<path style="fill-rule:evenodd;clip-rule:evenodd;" d="M96.993,130.201c0.021-0.335-0.176-0.719,0.204-0.977
		c1.145-0.777,2.357-1.406,3.733-1.718c-1.271,0.975-2.745,1.636-3.951,2.694C96.973,130.203,96.993,130.201,96.993,130.201z"/>
	<path style="fill-rule:evenodd;clip-rule:evenodd;" d="M100.483,132.12c0.945-1.033,2.357-1.178,2.938-2.41
		c0.15-0.318,0.705-0.128,0.927,0.171c0.249,0.336-0.092,0.504-0.347,0.595C102.839,130.889,101.917,131.788,100.483,132.12z"/>
	<path style="fill-rule:evenodd;clip-rule:evenodd;" d="M102.11,114.116c-0.012,0.475-0.294,0.57-0.648,0.54
		c-0.586-0.049-1.141-0.217-1.234-0.887c-0.053-0.381,0.314-0.544,0.646-0.548C101.506,113.215,101.875,113.609,102.11,114.116z"/>
	<path style="fill-rule:evenodd;clip-rule:evenodd;" d="M98.372,115.223c0.22-0.078,0.441-0.151,0.659-0.234
		c0.335-0.127,0.738-0.58,0.999-0.078c0.219,0.42-0.285,0.661-0.597,0.874c-0.404,0.276-0.804,0.382-0.989-0.251
		c-0.033-0.11-0.025-0.232-0.037-0.349C98.406,115.185,98.372,115.223,98.372,115.223z"/>
	<path style="fill-rule:evenodd;clip-rule:evenodd;" d="M69.894,84.21c0.294,0.137,0.961-0.053,0.837,0.388
		c-0.167,0.592-0.834,0.54-1.387,0.5c-0.047-0.525,0.416-0.616,0.584-0.915C69.931,84.182,69.894,84.21,69.894,84.21z"/>
	<path style="fill-rule:evenodd;clip-rule:evenodd;" d="M68.374,91.744c0.025,0.312-0.101,0.487-0.381,0.501
		c-0.429,0.021-0.627-0.245-0.694-0.628c-0.04-0.229,0.094-0.386,0.307-0.405C68.013,91.173,68.244,91.418,68.374,91.744z"/>
	<path style="fill-rule:evenodd;clip-rule:evenodd;" d="M110.67,63.563c-0.966,0.404-1.875,1.004-3.016,0.734
		c-0.357-0.085-0.759-0.1-0.892-0.479c-0.157-0.449,0.278-0.628,0.556-0.806c0.767-0.494,1.554-0.958,2.353-1.399
		c0.496-0.274,1.085-0.531,1.535-0.006c0.464,0.539,0.098,1.03-0.292,1.474c-0.127,0.145-0.19,0.344-0.283,0.519L110.67,63.563z"/>
	<path style="fill-rule:evenodd;clip-rule:evenodd;" d="M110.631,63.6c0.431,0.018,0.944-0.077,0.992,0.57
		c0.05,0.69,0.307,1.22,0.964,1.521c0.188,0.086,0.327,0.254,0.235,0.482c-0.117,0.291-0.411,0.309-0.605,0.194
		c-0.562-0.332-1.176-0.476-1.797-0.604c-0.402-0.083-0.324-0.35-0.324-0.639c0.001-0.598,0.461-1.013,0.573-1.561
		C110.67,63.563,110.631,63.6,110.631,63.6z"/>
	<path style="fill-rule:evenodd;clip-rule:evenodd;" d="M53.941,43.033c-0.504,0.533-0.997,1.079-1.521,1.592
		c-0.162,0.159-0.439,0.27-0.645,0.079c-0.285-0.265-0.053-0.511,0.128-0.708C52.418,43.435,53.085,43.125,53.941,43.033z"/>
	<path style="fill-rule:evenodd;clip-rule:evenodd;" d="M96.137,84.455c-0.398,0-0.804,0.046-1.193-0.013
		c-0.403-0.061-0.711-0.367-0.494-0.767c0.477-0.88-0.067-1.312-0.644-1.775c-0.217-0.174-0.402-0.387-0.607-0.576
		c-0.268-0.246-0.579-0.499-0.453-0.903c0.143-0.458,0.594-0.353,0.924-0.347c0.925,0.016,1.818-0.116,2.718-0.327
		c1.499-0.353,2.335,0.061,3.098,1.478c0.188,0.347,0.46,0.313,0.707,0.255c0.688-0.165,1.345,0.039,2.014,0.094
		c0.283,0.023,0.59,0.024,0.69,0.354c0.093,0.302-0.062,0.566-0.298,0.728c-0.522,0.358-0.983,0.856-1.637,0.962
		C99.349,83.877,97.789,84.433,96.137,84.455z"/>
	<path style="fill-rule:evenodd;clip-rule:evenodd;" d="M54.148,39.425c0.325-0.815,1.515-1.167,0.762-2.28
		c0.65,0.323,1.186,0.289,1.716-0.037c0.213-0.131,0.477-0.119,0.63,0.12c0.158,0.245,0.002,0.451-0.153,0.638
		C56.36,38.762,55.312,39.056,54.148,39.425z"/>
</g>
</svg>
